<svg width="582" height="512" viewBox="0 0 582 512" fill="none" xmlns="http://www.w3.org/2000/svg">
<path d="M126.156 34.4639C192.881 84.5139 264.651 185.994 291.002 240.455C317.354 185.998 389.12 84.5129 455.847 34.4639C503.992 -1.65016 582 -29.5932 582 59.323C582 77.0807 571.81 208.497 565.834 229.832C545.059 304.007 469.359 322.926 402.022 311.476C519.725 331.491 549.668 397.79 485.003 464.089C362.192 590.003 308.488 432.497 294.72 392.138C292.198 384.739 291.017 381.278 291 384.221C290.983 381.277 289.802 384.739 287.28 392.138C273.518 432.497 219.815 590.007 96.9968 464.089C32.3309 397.79 62.2726 331.487 179.978 311.476C112.639 322.926 36.9377 304.007 16.1665 229.832C10.1898 208.495 0 77.0787 0 59.323C0 -29.5932 78.0096 -1.65016 126.153 34.4639H126.156Z" fill="white"/>
</svg>
