<svg width="512" height="512" viewBox="0 0 512 512" fill="none" xmlns="http://www.w3.org/2000/svg">
<path d="M256 122.839C183.742 122.839 123.871 181.677 123.871 254.968C123.871 328.258 182.71 387.097 256 387.097C329.29 387.097 388.129 327.226 388.129 254.968C388.129 182.71 328.258 122.839 256 122.839ZM256 339.613C209.549 339.613 171.355 301.419 171.355 254.968C171.355 208.516 209.549 170.323 256 170.323C302.452 170.323 340.645 208.516 340.645 254.968C340.645 301.419 302.452 339.613 256 339.613Z" fill="white"/>
<path d="M393.292 149.677C409.825 149.677 423.228 136.275 423.228 119.742C423.228 103.209 409.825 89.8064 393.292 89.8064C376.76 89.8064 363.357 103.209 363.357 119.742C363.357 136.275 376.76 149.677 393.292 149.677Z" fill="white"/>
<path d="M470.71 42.3226C443.871 14.4516 405.677 0 362.323 0H149.677C59.871 0 0 59.871 0 149.677V361.29C0 405.677 14.4516 443.871 43.3548 471.742C71.2258 498.581 108.387 512 150.71 512H361.29C405.677 512 442.839 497.548 469.677 471.742C497.548 444.903 512 406.71 512 362.323V149.677C512 106.323 497.548 69.1613 470.71 42.3226ZM466.581 362.323C466.581 394.323 455.226 420.129 436.645 437.677C418.064 455.226 392.258 464.516 361.29 464.516H150.71C119.742 464.516 93.9355 455.226 75.3548 437.677C56.7742 419.097 47.4839 393.29 47.4839 361.29V149.677C47.4839 118.71 56.7742 92.9032 75.3548 74.3226C92.9032 56.7742 119.742 47.4839 150.71 47.4839H363.355C394.323 47.4839 420.129 56.7742 438.71 75.3548C456.258 93.9355 466.581 119.742 466.581 149.677V362.323Z" fill="white"/>
</svg>
