<svg width="512" height="512" viewBox="0 0 512 512" fill="none" xmlns="http://www.w3.org/2000/svg">
<path d="M259.584 226.435L164.973 94.0511H114.511L231.71 258.028L246.463 278.656L346.779 419.134H397.24L274.274 247.063L259.584 226.435Z" fill="white"/>
<path d="M469.173 0H42.8267C19.1733 0 0 19.1733 0 42.8267V469.173C0 492.827 19.1733 512 42.8267 512H469.173C492.827 512 512 492.827 512 469.173V42.8267C512 19.1733 492.827 0 469.173 0ZM331.295 442.182L229.767 297.588L102.666 442.182H69.8182L215.2 276.837L69.8182 69.8182H180.705L276.824 206.707L397.256 69.8182H430.102L291.467 227.506L442.182 442.182H331.295Z" fill="white"/>
</svg>
