<svg width="537" height="537" viewBox="0 0 537 537" fill="none" xmlns="http://www.w3.org/2000/svg">
<g clip-path="url(#clip0_404_14)">
<path d="M269 0C340.078 0 408.245 28.341 458.505 78.7883C508.764 129.236 537 197.657 537 269H477.444C477.444 213.511 455.483 160.294 416.392 121.058C377.302 81.8208 324.283 59.7778 269 59.7778V0Z" fill="black"/>
<path d="M269 537C197.657 537 129.236 508.764 78.7883 458.505C28.341 408.245 -2.09315e-05 340.078 -1.47177e-05 269L59.7778 269C59.7778 324.283 81.8208 377.302 121.058 416.392C160.294 455.483 213.511 477.444 269 477.444L269 537Z" fill="black"/>
</g>
<defs>
<clipPath id="clip0_404_14">
<rect width="537" height="537" fill="white"/>
</clipPath>
</defs>
</svg>
