<svg width="186" height="56" viewBox="0 0 186 56" fill="none" xmlns="http://www.w3.org/2000/svg">
<g clip-path="url(#clip0_124_2)">
<path d="M15.7067 26.5263L14.821 23.5495H7.94195L7.05623 26.5263H1.32861L8.14861 5.89474H14.5848L21.4048 26.5263H15.7067ZM9.30004 19.0105H13.4629L11.3667 11.9958L9.30004 19.0105ZM29.8265 26.9684C27.6417 26.9684 25.8309 26.5067 24.3941 25.5832C22.9573 24.6596 21.9535 23.412 21.3827 21.84L25.8998 19.2168C26.6674 21.0442 28.0255 21.9579 29.9741 21.9579C31.588 21.9579 32.395 21.4962 32.395 20.5726C32.395 19.9636 31.9326 19.4722 31.0074 19.099C30.6137 18.9417 29.7478 18.6764 28.4093 18.3032C26.5198 17.753 25.024 16.9867 23.9217 16.0042C22.8194 15.0021 22.2684 13.6168 22.2684 11.8484C22.2684 9.94247 22.9474 8.40001 24.3055 7.22106C25.6832 6.04211 27.3956 5.45264 29.4427 5.45264C31.1747 5.45264 32.7099 5.85544 34.0484 6.66106C35.3868 7.46668 36.4103 8.63579 37.1189 10.1684L32.6903 12.7621C32.0408 11.2295 30.968 10.4632 29.4722 10.4632C28.8423 10.4632 28.3602 10.5909 28.0255 10.8463C27.7106 11.1018 27.5531 11.426 27.5531 11.819C27.5531 12.2709 27.7893 12.654 28.2617 12.9684C28.7537 13.2828 29.6985 13.6463 31.096 14.059C32.0998 14.3537 32.9068 14.6288 33.5169 14.8842C34.1271 15.1396 34.7964 15.513 35.5246 16.0042C36.2528 16.4758 36.7941 17.0947 37.1484 17.8611C37.5027 18.6078 37.6798 19.492 37.6798 20.5137C37.6798 22.5375 36.9613 24.1194 35.5246 25.259C34.0878 26.3986 32.1884 26.9684 29.8265 26.9684ZM53.3401 5.89474V10.9937H48.2325V26.5263H42.9477V10.9937H37.8401V5.89474H53.3401ZM66.033 26.5263L62.4311 19.8653H60.5416V26.5263H55.2568V5.89474H63.5235C65.6296 5.89474 67.3911 6.57264 68.8082 7.92843C70.2452 9.26457 70.9635 10.9642 70.9635 13.0274C70.9635 14.2653 70.6486 15.4049 70.0187 16.4463C69.389 17.468 68.5328 18.2836 67.4501 18.8926L71.7016 26.5263H66.033ZM60.5416 10.7579V15.3853H63.4644C64.1139 15.4049 64.6454 15.1986 65.0587 14.7663C65.472 14.334 65.6787 13.774 65.6787 13.0863C65.6787 12.3986 65.472 11.8386 65.0587 11.4063C64.6454 10.974 64.1139 10.7579 63.4644 10.7579H60.5416ZM90.9911 23.8737C88.9046 25.9368 86.346 26.9684 83.3149 26.9684C80.2837 26.9684 77.7151 25.9368 75.6092 23.8737C73.5227 21.7909 72.4797 19.2364 72.4797 16.2105C72.4797 13.1846 73.5227 10.64 75.6092 8.57685C77.7151 6.49405 80.2837 5.45264 83.3149 5.45264C86.346 5.45264 88.9046 6.49405 90.9911 8.57685C93.097 10.64 94.1501 13.1846 94.1501 16.2105C94.1501 19.2364 93.097 21.7909 90.9911 23.8737ZM79.3292 20.2484C80.3921 21.2899 81.7206 21.8105 83.3149 21.8105C84.9092 21.8105 86.2378 21.2899 87.3006 20.2484C88.3635 19.1874 88.8949 17.8415 88.8949 16.2105C88.8949 14.5796 88.3635 13.2435 87.3006 12.2021C86.2378 11.1411 84.9092 10.6105 83.3149 10.6105C81.7206 10.6105 80.3921 11.1411 79.3292 12.2021C78.2663 13.2435 77.7349 14.5796 77.7349 16.2105C77.7349 17.8415 78.2663 19.1874 79.3292 20.2484ZM103.146 26.9684C100.961 26.9684 99.1503 26.5067 97.7135 25.5832C96.2766 24.6596 95.2728 23.412 94.7021 21.84L99.2192 19.2168C99.9869 21.0442 101.345 21.9579 103.294 21.9579C104.907 21.9579 105.714 21.4962 105.714 20.5726C105.714 19.9636 105.252 19.4722 104.327 19.099C103.933 18.9417 103.067 18.6764 101.729 18.3032C99.8392 17.753 98.3433 16.9867 97.2411 16.0042C96.1389 15.0021 95.5878 13.6168 95.5878 11.8484C95.5878 9.94247 96.2669 8.40001 97.625 7.22106C99.0027 6.04211 100.715 5.45264 102.762 5.45264C104.494 5.45264 106.029 5.85544 107.368 6.66106C108.706 7.46668 109.73 8.63579 110.438 10.1684L106.01 12.7621C105.36 11.2295 104.287 10.4632 102.792 10.4632C102.162 10.4632 101.679 10.5909 101.345 10.8463C101.03 11.1018 100.873 11.426 100.873 11.819C100.873 12.2709 101.109 12.654 101.581 12.9684C102.073 13.2828 103.018 13.6463 104.415 14.059C105.419 14.3537 106.226 14.6288 106.836 14.8842C107.446 15.1396 108.116 15.513 108.844 16.0042C109.572 16.4758 110.114 17.0947 110.468 17.8611C110.822 18.6078 110.999 19.492 110.999 20.5137C110.999 22.5375 110.281 24.1194 108.844 25.259C107.407 26.3986 105.508 26.9684 103.146 26.9684ZM124.021 5.89474H129.277V26.5263H124.021V18.5979H118.205V26.5263H112.92V5.89474H118.205V13.5284H124.021V5.89474ZM145.162 26.5263L144.276 23.5495H137.397L136.511 26.5263H130.784L137.604 5.89474H144.04L150.859 26.5263H145.162ZM138.755 19.0105H142.918L140.822 11.9958L138.755 19.0105ZM163.138 26.5263L159.536 19.8653H157.647V26.5263H152.362V5.89474H160.629C162.735 5.89474 164.496 6.57264 165.914 7.92843C167.351 9.26457 168.069 10.9642 168.069 13.0274C168.069 14.2653 167.754 15.4049 167.124 16.4463C166.495 17.468 165.639 18.2836 164.555 18.8926L168.807 26.5263H163.138ZM157.647 10.7579V15.3853H160.57C161.219 15.4049 161.751 15.1986 162.164 14.7663C162.577 14.334 162.784 13.774 162.784 13.0863C162.784 12.3986 162.577 11.8386 162.164 11.4063C161.751 10.974 161.219 10.7579 160.57 10.7579H157.647ZM175.956 21.5747H183.957V26.5263H170.671V5.89474H183.809V10.8168H175.956V13.6758H183.071V18.539H175.956V21.5747Z" fill="white"/>
<path d="M9.37385 44.8088H13.6253V45.6842H8.44385V36.4H9.37385V44.8088ZM16.0515 36.4L15.2544 39.3842H14.4573L14.9887 36.4H16.0515ZM23.5202 39.0526H24.397V45.6842H23.5202V44.3844C22.909 45.357 22.0145 45.8433 20.8365 45.8433C19.8888 45.8433 19.0783 45.5073 18.4052 44.8353C17.7409 44.1633 17.4088 43.341 17.4088 42.3684C17.4088 41.3958 17.7409 40.5734 18.4052 39.9014C19.0783 39.2294 19.8888 38.8934 20.8365 38.8934C22.0145 38.8934 22.909 39.3798 23.5202 40.3524V39.0526ZM19.0429 44.2385C19.5478 44.7425 20.1678 44.9945 20.9029 44.9945C21.638 44.9945 22.258 44.7425 22.7629 44.2385C23.2678 43.7257 23.5202 43.1023 23.5202 42.3684C23.5202 41.6345 23.2678 41.0155 22.7629 40.5115C22.258 39.9987 21.638 39.7423 20.9029 39.7423C20.1678 39.7423 19.5478 39.9987 19.0429 40.5115C18.538 41.0155 18.2856 41.6345 18.2856 42.3684C18.2856 43.1023 18.538 43.7257 19.0429 44.2385ZM28.0339 40.7901C28.0339 41.0907 28.1668 41.3294 28.4325 41.5063C28.6982 41.6831 29.0215 41.8202 29.4024 41.9174C29.7832 42.0147 30.1641 42.1252 30.5449 42.249C30.9258 42.364 31.2491 42.5629 31.5148 42.8459C31.7805 43.12 31.9134 43.4825 31.9134 43.9334C31.9134 44.4993 31.6875 44.9591 31.2358 45.3128C30.7929 45.6665 30.2172 45.8433 29.5086 45.8433C28.8709 45.8433 28.3262 45.7019 27.8745 45.4189C27.4316 45.136 27.1216 44.769 26.9445 44.3181L27.6885 43.8804C27.8125 44.2252 28.0339 44.4993 28.3528 44.7027C28.6805 44.8972 29.0658 44.9945 29.5086 44.9945C29.9426 44.9945 30.3058 44.9105 30.5981 44.7425C30.8904 44.5657 31.0365 44.296 31.0365 43.9334C31.0365 43.6328 30.9036 43.3941 30.6379 43.2172C30.3722 43.0404 30.0489 42.9033 29.6681 42.8061C29.2872 42.7088 28.9064 42.6027 28.5255 42.4878C28.1446 42.364 27.8214 42.165 27.5556 41.8909C27.2899 41.608 27.1571 41.241 27.1571 40.7901C27.1571 40.2507 27.3696 39.7998 27.7948 39.4372C28.2288 39.0747 28.7735 38.8934 29.4289 38.8934C29.9692 38.8934 30.4431 39.0172 30.8505 39.2648C31.2579 39.5035 31.5591 39.8307 31.7539 40.2463L31.0232 40.6707C30.7664 40.0518 30.2349 39.7423 29.4289 39.7423C29.0481 39.7423 28.7204 39.8351 28.4458 40.0208C28.1712 40.1977 28.0339 40.4541 28.0339 40.7901ZM37.7267 39.9014H35.8136V43.9202C35.8136 44.2827 35.8845 44.5435 36.0262 44.7027C36.1679 44.853 36.3805 44.9326 36.6639 44.9414C36.9473 44.9414 37.3016 44.9326 37.7267 44.9149V45.6842C36.7967 45.8257 36.097 45.7593 35.6276 45.4852C35.167 45.2111 34.9367 44.6894 34.9367 43.9202V39.9014H33.5417V39.0526H34.9367V37.461L35.8136 37.1958V39.0526H37.7267V39.9014ZM41.1545 40.1534C41.5619 39.3488 42.2616 38.9465 43.2536 38.9465V39.7953C42.6513 39.7953 42.1509 39.9722 41.7523 40.3259C41.3537 40.6795 41.1545 41.2366 41.1545 41.997V45.6842H40.2776V39.0526H41.1545V40.1534ZM50.7094 44.8486C50.0363 45.5118 49.2125 45.8433 48.2383 45.8433C47.264 45.8433 46.4358 45.5118 45.7538 44.8486C45.0807 44.1766 44.7441 43.3499 44.7441 42.3684C44.7441 41.3869 45.0807 40.5646 45.7538 39.9014C46.4358 39.2294 47.264 38.8934 48.2383 38.8934C49.2125 38.8934 50.0363 39.2294 50.7094 39.9014C51.3914 40.5646 51.7324 41.3869 51.7324 42.3684C51.7324 43.3499 51.3914 44.1766 50.7094 44.8486ZM46.3783 44.2385C46.8831 44.7425 47.5031 44.9945 48.2383 44.9945C48.9734 44.9945 49.5934 44.7425 50.0983 44.2385C50.6031 43.7257 50.8555 43.1023 50.8555 42.3684C50.8555 41.6345 50.6031 41.0155 50.0983 40.5115C49.5934 39.9987 48.9734 39.7423 48.2383 39.7423C47.5031 39.7423 46.8831 39.9987 46.3783 40.5115C45.8734 41.0155 45.621 41.6345 45.621 42.3684C45.621 43.1023 45.8734 43.7257 46.3783 44.2385ZM57.398 38.8934C58.204 38.8934 58.8373 39.141 59.2979 39.6362C59.7673 40.1225 60.002 40.7812 60.002 41.6124V45.6842H59.1252V41.6124C59.1252 41.02 58.9657 40.5602 58.6469 40.233C58.3369 39.9059 57.894 39.7423 57.3183 39.7423C56.6806 39.7423 56.1624 39.9457 55.7639 40.3524C55.3653 40.7503 55.166 41.3692 55.166 42.2092V45.6842H54.2892V39.0526H55.166V40.0871C55.662 39.2913 56.406 38.8934 57.398 38.8934ZM68.3536 44.8486C67.6804 45.5118 66.8567 45.8433 65.8824 45.8433C64.9081 45.8433 64.08 45.5118 63.398 44.8486C62.7248 44.1766 62.3883 43.3499 62.3883 42.3684C62.3883 41.3869 62.7248 40.5646 63.398 39.9014C64.08 39.2294 64.9081 38.8934 65.8824 38.8934C66.8567 38.8934 67.6804 39.2294 68.3536 39.9014C69.0356 40.5646 69.3766 41.3869 69.3766 42.3684C69.3766 43.3499 69.0356 44.1766 68.3536 44.8486ZM64.0224 44.2385C64.5273 44.7425 65.1473 44.9945 65.8824 44.9945C66.6176 44.9945 67.2376 44.7425 67.7424 44.2385C68.2473 43.7257 68.4997 43.1023 68.4997 42.3684C68.4997 41.6345 68.2473 41.0155 67.7424 40.5115C67.2376 39.9987 66.6176 39.7423 65.8824 39.7423C65.1473 39.7423 64.5273 39.9987 64.0224 40.5115C63.5176 41.0155 63.2651 41.6345 63.2651 42.3684C63.2651 43.1023 63.5176 43.7257 64.0224 44.2385ZM79.0146 38.8934C79.7586 38.8934 80.3565 39.1322 80.8082 39.6097C81.2688 40.0871 81.499 40.7326 81.499 41.5461V45.6842H80.6222V41.5461C80.6222 40.9713 80.4716 40.5292 80.1705 40.2198C79.8782 39.9014 79.4885 39.7423 79.0013 39.7423C78.4522 39.7423 78.0049 39.928 77.6595 40.2993C77.3229 40.6619 77.1546 41.2322 77.1546 42.0103V45.6842H76.2777V41.5461C76.2777 40.9625 76.136 40.516 75.8526 40.2065C75.578 39.897 75.2016 39.7423 74.7233 39.7423C74.1919 39.7423 73.7402 39.928 73.3682 40.2993C72.9962 40.6707 72.8102 41.241 72.8102 42.0103V45.6842H71.9333V39.0526H72.8102V40.0208C73.2885 39.2692 73.966 38.8934 74.8429 38.8934C75.7995 38.8934 76.4726 39.2958 76.8623 40.1004C77.3406 39.2958 78.058 38.8934 79.0146 38.8934ZM85.1746 37.461C85.0506 37.5848 84.9 37.6467 84.7229 37.6467C84.5457 37.6467 84.3952 37.5848 84.2712 37.461C84.1472 37.3372 84.0852 37.1869 84.0852 37.0101C84.0852 36.8332 84.1472 36.6829 84.2712 36.5591C84.3952 36.4353 84.5457 36.3734 84.7229 36.3734C84.9 36.3734 85.0506 36.4353 85.1746 36.5591C85.2986 36.6829 85.3606 36.8332 85.3606 37.0101C85.3606 37.1869 85.2986 37.3372 85.1746 37.461ZM84.2845 45.6842V39.0526H85.1613V45.6842H84.2845ZM91.1805 38.8934C92.1636 38.8934 92.9563 39.2427 93.5586 39.9412C94.1698 40.6309 94.4753 41.4488 94.4753 42.3949C94.4753 42.4922 94.4665 42.6292 94.4488 42.8061H88.6163C88.7049 43.4781 88.9883 44.013 89.4666 44.4109C89.9538 44.8 90.5516 44.9945 91.2602 44.9945C91.7651 44.9945 92.1991 44.8928 92.5622 44.6894C92.9342 44.4772 93.2132 44.2031 93.3992 43.8671L94.1698 44.3181C93.8775 44.7867 93.4789 45.1581 92.9741 45.4322C92.4692 45.7063 91.8935 45.8433 91.2469 45.8433C90.2018 45.8433 89.3515 45.5162 88.6961 44.8619C88.0406 44.2075 87.7129 43.3764 87.7129 42.3684C87.7129 41.3781 88.0362 40.5513 88.6828 39.8882C89.3293 39.225 90.1619 38.8934 91.1805 38.8934ZM91.1805 39.7423C90.4896 39.7423 89.9095 39.9501 89.4401 40.3657C88.9795 40.7724 88.7049 41.3029 88.6163 41.9572H93.5719C93.4833 41.2587 93.2132 40.7149 92.7615 40.3259C92.3098 39.9368 91.7828 39.7423 91.1805 39.7423ZM97.889 44.5568L97.0919 47.541H96.2947L96.8262 44.5568H97.889ZM105.81 40.7901C105.81 41.0907 105.943 41.3294 106.209 41.5063C106.475 41.6831 106.798 41.8202 107.179 41.9174C107.56 42.0147 107.941 42.1252 108.321 42.249C108.702 42.364 109.026 42.5629 109.291 42.8459C109.557 43.12 109.69 43.4825 109.69 43.9334C109.69 44.4993 109.464 44.9591 109.012 45.3128C108.569 45.6665 107.994 45.8433 107.285 45.8433C106.647 45.8433 106.103 45.7019 105.651 45.4189C105.208 45.136 104.898 44.769 104.721 44.3181L105.465 43.8804C105.589 44.2252 105.81 44.4993 106.129 44.7027C106.457 44.8972 106.842 44.9945 107.285 44.9945C107.719 44.9945 108.082 44.9105 108.375 44.7425C108.667 44.5657 108.813 44.296 108.813 43.9334C108.813 43.6328 108.68 43.3941 108.414 43.2172C108.149 43.0404 107.825 42.9033 107.445 42.8061C107.064 42.7088 106.683 42.6027 106.302 42.4878C105.921 42.364 105.598 42.165 105.332 41.8909C105.066 41.608 104.934 41.241 104.934 40.7901C104.934 40.2507 105.146 39.7998 105.571 39.4372C106.005 39.0747 106.55 38.8934 107.205 38.8934C107.746 38.8934 108.22 39.0172 108.627 39.2648C109.034 39.5035 109.336 39.8307 109.53 40.2463L108.8 40.6707C108.543 40.0518 108.011 39.7423 107.205 39.7423C106.825 39.7423 106.497 39.8351 106.222 40.0208C105.948 40.1977 105.81 40.4541 105.81 40.7901ZM113.067 37.461C112.943 37.5848 112.793 37.6467 112.616 37.6467C112.439 37.6467 112.288 37.5848 112.164 37.461C112.04 37.3372 111.978 37.1869 111.978 37.0101C111.978 36.8332 112.04 36.6829 112.164 36.5591C112.288 36.4353 112.439 36.3734 112.616 36.3734C112.793 36.3734 112.943 36.4353 113.067 36.5591C113.191 36.6829 113.253 36.8332 113.253 37.0101C113.253 37.1869 113.191 37.3372 113.067 37.461ZM112.177 45.6842V39.0526H113.054V45.6842H112.177ZM123.086 38.8934C123.83 38.8934 124.427 39.1322 124.879 39.6097C125.34 40.0871 125.57 40.7326 125.57 41.5461V45.6842H124.693V41.5461C124.693 40.9713 124.543 40.5292 124.241 40.2198C123.949 39.9014 123.559 39.7423 123.072 39.7423C122.523 39.7423 122.076 39.928 121.73 40.2993C121.394 40.6619 121.226 41.2322 121.226 42.0103V45.6842H120.349V41.5461C120.349 40.9625 120.207 40.516 119.924 40.2065C119.649 39.897 119.273 39.7423 118.794 39.7423C118.263 39.7423 117.811 39.928 117.439 40.2993C117.067 40.6707 116.881 41.241 116.881 42.0103V45.6842H116.004V39.0526H116.881V40.0208C117.359 39.2692 118.037 38.8934 118.914 38.8934C119.87 38.8934 120.544 39.2958 120.933 40.1004C121.412 39.2958 122.129 38.8934 123.086 38.8934ZM131.916 38.8934C132.864 38.8934 133.67 39.2294 134.334 39.9014C135.007 40.5734 135.344 41.3958 135.344 42.3684C135.344 43.341 135.007 44.1633 134.334 44.8353C133.67 45.5073 132.864 45.8433 131.916 45.8433C130.738 45.8433 129.843 45.357 129.232 44.3844V48.3368H128.355V39.0526H129.232V40.3524C129.843 39.3798 130.738 38.8934 131.916 38.8934ZM129.99 44.2385C130.494 44.7425 131.114 44.9945 131.85 44.9945C132.585 44.9945 133.205 44.7425 133.71 44.2385C134.214 43.7257 134.467 43.1023 134.467 42.3684C134.467 41.6345 134.214 41.0155 133.71 40.5115C133.205 39.9987 132.585 39.7423 131.85 39.7423C131.114 39.7423 130.494 39.9987 129.99 40.5115C129.485 41.0155 129.232 41.6345 129.232 42.3684C129.232 43.1023 129.485 43.7257 129.99 44.2385ZM137.891 45.6842V36.0021H138.768V45.6842H137.891ZM144.787 38.8934C145.77 38.8934 146.563 39.2427 147.165 39.9412C147.777 40.6309 148.083 41.4488 148.083 42.3949C148.083 42.4922 148.074 42.6292 148.056 42.8061H142.223C142.312 43.4781 142.595 44.013 143.073 44.4109C143.56 44.8 144.158 44.9945 144.867 44.9945C145.372 44.9945 145.806 44.8928 146.169 44.6894C146.541 44.4772 146.82 44.2031 147.006 43.8671L147.777 44.3181C147.484 44.7867 147.086 45.1581 146.581 45.4322C146.076 45.7063 145.5 45.8433 144.854 45.8433C143.808 45.8433 142.958 45.5162 142.303 44.8619C141.647 44.2075 141.32 43.3764 141.32 42.3684C141.32 41.3781 141.643 40.5513 142.289 39.8882C142.936 39.225 143.769 38.8934 144.787 38.8934ZM144.787 39.7423C144.096 39.7423 143.516 39.9501 143.047 40.3657C142.586 40.7724 142.312 41.3029 142.223 41.9572H147.179C147.09 41.2587 146.82 40.7149 146.368 40.3259C145.916 39.9368 145.389 39.7423 144.787 39.7423ZM157.647 38.8934C158.391 38.8934 158.989 39.1322 159.44 39.6097C159.901 40.0871 160.131 40.7326 160.131 41.5461V45.6842H159.254V41.5461C159.254 40.9713 159.104 40.5292 158.803 40.2198C158.51 39.9014 158.121 39.7423 157.634 39.7423C157.084 39.7423 156.637 39.928 156.292 40.2993C155.955 40.6619 155.787 41.2322 155.787 42.0103V45.6842H154.91V41.5461C154.91 40.9625 154.768 40.516 154.485 40.2065C154.21 39.897 153.834 39.7423 153.356 39.7423C152.824 39.7423 152.372 39.928 152 40.2993C151.628 40.6707 151.442 41.241 151.442 42.0103V45.6842H150.566V39.0526H151.442V40.0208C151.921 39.2692 152.598 38.8934 153.475 38.8934C154.432 38.8934 155.105 39.2958 155.495 40.1004C155.973 39.2958 156.69 38.8934 157.647 38.8934ZM165.986 38.8934C166.969 38.8934 167.762 39.2427 168.364 39.9412C168.975 40.6309 169.281 41.4488 169.281 42.3949C169.281 42.4922 169.272 42.6292 169.254 42.8061H163.422C163.51 43.4781 163.794 44.013 164.272 44.4109C164.759 44.8 165.357 44.9945 166.066 44.9945C166.57 44.9945 167.004 44.8928 167.368 44.6894C167.74 44.4772 168.019 44.2031 168.205 43.8671L168.975 44.3181C168.683 44.7867 168.284 45.1581 167.779 45.4322C167.275 45.7063 166.699 45.8433 166.052 45.8433C165.007 45.8433 164.157 45.5162 163.501 44.8619C162.846 44.2075 162.518 43.3764 162.518 42.3684C162.518 41.3781 162.842 40.5513 163.488 39.8882C164.135 39.225 164.967 38.8934 165.986 38.8934ZM165.986 39.7423C165.295 39.7423 164.715 39.9501 164.245 40.3657C163.785 40.7724 163.51 41.3029 163.422 41.9572H168.377C168.289 41.2587 168.019 40.7149 167.567 40.3259C167.115 39.9368 166.588 39.7423 165.986 39.7423ZM174.874 38.8934C175.68 38.8934 176.313 39.141 176.774 39.6362C177.243 40.1225 177.478 40.7812 177.478 41.6124V45.6842H176.601V41.6124C176.601 41.02 176.442 40.5602 176.123 40.233C175.813 39.9059 175.37 39.7423 174.794 39.7423C174.157 39.7423 173.638 39.9457 173.24 40.3524C172.841 40.7503 172.642 41.3692 172.642 42.2092V45.6842H171.765V39.0526H172.642V40.0871C173.138 39.2913 173.882 38.8934 174.874 38.8934ZM183.784 39.9014H181.871V43.9202C181.871 44.2827 181.942 44.5435 182.084 44.7027C182.225 44.853 182.438 44.9326 182.721 44.9414C183.005 44.9414 183.359 44.9326 183.784 44.9149V45.6842C182.854 45.8257 182.155 45.7593 181.685 45.4852C181.225 45.2111 180.994 44.6894 180.994 43.9202V39.9014H179.599V39.0526H180.994V37.461L181.871 37.1958V39.0526H183.784V39.9014Z" fill="white"/>
<path d="M2.95215 30.9474V45.6842C2.95215 50.5676 6.91762 54.5263 11.8093 54.5263H186" stroke="white"/>
</g>
<defs>
<clipPath id="clip0_124_2">
<rect width="186" height="56" fill="white"/>
</clipPath>
</defs>
</svg>
