<svg width="200" height="200" viewBox="0 0 200 200" fill="none" xmlns="http://www.w3.org/2000/svg">
<path d="M84.2305 96.8359C84.228 99.9554 85.1507 103.006 86.882 105.601C88.6133 108.195 91.0753 110.219 93.9566 111.414C96.8379 112.61 100.009 112.924 103.069 112.317C106.129 111.71 108.94 110.209 111.147 108.004C113.353 105.799 114.856 102.989 115.466 99.9297C116.075 96.8704 115.764 93.6989 114.571 90.8167C113.377 87.9344 111.356 85.4708 108.763 83.7374C106.169 82.0041 103.12 81.0789 100 81.0789C95.821 81.0822 91.8138 82.743 88.8575 85.6969C85.9012 88.6508 84.2372 92.6567 84.2305 96.8359ZM113.239 96.8359C113.241 99.4547 112.467 102.016 111.014 104.194C109.561 106.373 107.494 108.072 105.075 109.076C102.656 110.08 99.9941 110.344 97.4252 109.834C94.8564 109.325 92.4963 108.065 90.6437 106.214C88.791 104.363 87.5289 102.004 87.017 99.4359C86.5052 96.8675 86.7666 94.2051 87.7682 91.7853C88.7698 89.3656 90.4666 87.2973 92.644 85.8421C94.8213 84.3869 97.3813 83.6101 100 83.6101C103.508 83.6135 106.871 85.0076 109.353 87.4868C111.835 89.966 113.232 93.3281 113.239 96.8359Z" fill="white"/>
<path d="M36.9719 58.8545L36.896 59.0064C36.8067 59.1496 36.747 59.3092 36.7203 59.4758C36.6936 59.6424 36.7006 59.8127 36.7406 59.9766C36.7807 60.1405 36.8532 60.2948 36.9538 60.4303C37.0544 60.5657 37.181 60.6798 37.3263 60.7656C37.5217 60.8815 37.7446 60.9427 37.9718 60.9428C38.1902 60.944 38.4052 60.8888 38.596 60.7823C38.7867 60.6759 38.9466 60.5219 39.0602 60.3353C41.0428 61.3362 43.3096 61.6242 45.4795 61.1507C47.6494 60.6773 49.5901 59.4712 50.9756 57.7354C52.361 55.9995 53.1066 53.8396 53.0871 51.6187C53.0676 49.3979 52.2842 47.2514 50.8685 45.5401C51.1119 45.3085 51.2532 44.9897 51.2615 44.6539C51.2699 44.318 51.1444 43.9926 50.9128 43.7493C50.6812 43.5059 50.3624 43.3645 50.0265 43.3562C49.6907 43.3479 49.3653 43.4734 49.1219 43.705L49.008 43.8189C46.9977 42.4422 44.5412 41.8763 42.1312 42.2347C39.7211 42.5932 37.5357 43.8494 36.013 45.7516C34.4903 47.6537 33.7429 50.0612 33.9208 52.4912C34.0986 54.9213 35.1885 57.1943 36.9719 58.8545ZM43.4266 44.515C44.8409 44.515 46.2234 44.9344 47.3994 45.7201C48.5753 46.5058 49.4919 47.6226 50.0331 48.9293C50.5743 50.2359 50.7159 51.6737 50.44 53.0608C50.1641 54.4479 49.483 55.7221 48.483 56.7221C47.4829 57.7222 46.2088 58.4032 44.8217 58.6791C43.4346 58.955 41.9968 58.8134 40.6901 58.2722C39.3835 57.731 38.2667 56.8144 37.481 55.6385C36.6952 54.4626 36.2758 53.08 36.2758 51.6657C36.2758 49.7692 37.0292 47.9504 38.3703 46.6094C39.7113 45.2683 41.5301 44.515 43.4266 44.515Z" fill="white"/>
<path d="M158.421 118.681C158.417 116.868 157.904 115.092 156.939 113.557C155.975 112.022 154.598 110.789 152.966 109.999C152.966 109.935 152.966 109.872 152.966 109.809C153.049 109.483 152.998 109.138 152.826 108.85C152.654 108.561 152.374 108.353 152.049 108.271C151.723 108.189 151.378 108.239 151.09 108.411C150.801 108.583 150.593 108.863 150.511 109.189C149.911 109.071 149.3 109.012 148.689 109.011C146.665 109.004 144.69 109.633 143.043 110.809C141.396 111.985 140.16 113.648 139.51 115.564C138.86 117.481 138.828 119.553 139.419 121.488C140.009 123.423 141.194 125.124 142.803 126.35C142.605 126.636 142.529 126.988 142.59 127.33C142.652 127.672 142.847 127.975 143.132 128.173C143.418 128.371 143.77 128.448 144.112 128.386C144.454 128.324 144.757 128.129 144.955 127.844L145.056 127.692C146.526 128.3 148.124 128.536 149.707 128.379C151.29 128.222 152.809 127.677 154.131 126.792C155.453 125.907 156.536 124.709 157.285 123.305C158.033 121.902 158.423 120.335 158.421 118.744V118.681ZM148.739 125.832C147.325 125.832 145.942 125.412 144.766 124.626C143.59 123.841 142.674 122.724 142.133 121.417C141.591 120.111 141.45 118.673 141.726 117.286C142.002 115.899 142.683 114.624 143.683 113.624C144.683 112.624 145.957 111.943 147.344 111.667C148.731 111.391 150.169 111.533 151.476 112.074C152.782 112.616 153.899 113.532 154.685 114.708C155.471 115.884 155.89 117.266 155.89 118.681C155.887 120.576 155.132 122.393 153.792 123.733C152.452 125.074 150.635 125.828 148.739 125.832Z" fill="white"/>
<path d="M153.308 57.5509C155.04 57.5439 156.737 57.0671 158.219 56.1714C158.335 56.3391 158.49 56.4761 158.671 56.5709C158.851 56.6656 159.052 56.7153 159.256 56.7156C159.515 56.715 159.766 56.6355 159.978 56.4878C160.251 56.2943 160.436 56.0006 160.493 55.6709C160.55 55.3412 160.474 55.0024 160.282 54.7286L160.193 54.5894C161.817 52.805 162.716 50.4777 162.712 48.0647C162.708 45.6517 161.802 43.3273 160.172 41.5482C158.542 39.769 156.305 38.6636 153.902 38.4492C151.499 38.2347 149.102 38.9266 147.182 40.3891L147.056 40.2878C146.797 40.073 146.464 39.9696 146.129 40.0005C145.795 40.0314 145.486 40.1939 145.271 40.4524C145.056 40.7108 144.953 41.044 144.984 41.3787C145.015 41.7134 145.177 42.0221 145.436 42.2369C144.255 43.8724 143.622 45.8392 143.626 47.8563C143.624 49.1288 143.874 50.3892 144.359 51.5653C144.845 52.7414 145.558 53.8103 146.457 54.7107C147.357 55.6111 148.424 56.3254 149.6 56.8127C150.775 57.3001 152.036 57.5509 153.308 57.5509ZM160.459 47.8689C160.459 49.2832 160.039 50.6657 159.254 51.8417C158.468 53.0176 157.351 53.9341 156.045 54.4754C154.738 55.0166 153.3 55.1582 151.913 54.8823C150.526 54.6064 149.252 53.9253 148.252 52.9253C147.252 51.9252 146.571 50.6511 146.295 49.264C146.019 47.8768 146.16 46.4391 146.702 45.1324C147.243 43.8258 148.159 42.709 149.335 41.9233C150.511 41.1375 151.894 40.7181 153.308 40.7181C155.204 40.7215 157.02 41.4759 158.361 42.8162C159.701 44.1566 160.455 45.9734 160.459 47.8689Z" fill="white"/>
<path d="M121.376 165.939C121.462 166.203 121.633 166.432 121.861 166.59C122.09 166.748 122.365 166.826 122.642 166.812C122.775 166.81 122.907 166.788 123.034 166.749C123.87 166.471 124.692 166.192 125.502 165.888C125.818 165.774 126.075 165.539 126.217 165.236C126.36 164.932 126.376 164.584 126.262 164.268C126.205 164.111 126.118 163.966 126.005 163.842C125.892 163.718 125.756 163.618 125.604 163.548C125.452 163.477 125.288 163.437 125.12 163.431C124.953 163.424 124.786 163.451 124.629 163.509C123.844 163.8 123.047 164.079 122.25 164.344C122.086 164.389 121.933 164.467 121.8 164.572C121.667 164.677 121.557 164.808 121.475 164.957C121.394 165.106 121.343 165.269 121.326 165.438C121.309 165.607 121.326 165.777 121.376 165.939Z" fill="white"/>
<path d="M168.47 77.7884C168.685 78.5857 168.901 79.4084 169.103 80.2184C169.17 80.5015 169.332 80.753 169.563 80.9305C169.793 81.108 170.078 81.2007 170.369 81.1929H170.66C170.985 81.1148 171.266 80.9112 171.441 80.6267C171.617 80.3421 171.672 79.9997 171.596 79.6742C171.394 78.8262 171.179 77.9782 170.938 77.1429C170.904 76.9723 170.834 76.8106 170.734 76.668C170.634 76.5254 170.506 76.405 170.357 76.3142C170.209 76.2235 170.043 76.1643 169.871 76.1405C169.698 76.1167 169.523 76.1288 169.355 76.1759C169.187 76.2231 169.031 76.3043 168.897 76.4145C168.762 76.5247 168.651 76.6616 168.572 76.8165C168.492 76.9714 168.446 77.141 168.435 77.3148C168.424 77.4886 168.449 77.6627 168.508 77.8264L168.47 77.7884Z" fill="white"/>
<path d="M169.9 116.731C170.186 116.741 170.467 116.654 170.697 116.484C170.926 116.314 171.092 116.071 171.166 115.795C171.394 114.96 171.609 114.112 171.799 113.264C171.836 113.097 171.84 112.926 171.811 112.758C171.782 112.59 171.721 112.429 171.629 112.285C171.538 112.141 171.42 112.017 171.281 111.919C171.141 111.82 170.984 111.751 170.818 111.713C170.652 111.676 170.48 111.672 170.312 111.701C170.144 111.73 169.984 111.792 169.84 111.883C169.696 111.974 169.571 112.092 169.473 112.231C169.375 112.371 169.305 112.528 169.268 112.694C169.078 113.517 168.875 114.339 168.66 115.149C168.575 115.473 168.622 115.818 168.79 116.107C168.959 116.396 169.235 116.607 169.559 116.694C169.671 116.72 169.785 116.732 169.9 116.731Z" fill="white"/>
<path d="M170.293 86.4072C170.42 87.2299 170.521 88.0652 170.622 88.9385C170.656 89.2495 170.805 89.5367 171.039 89.7447C171.272 89.9527 171.575 90.0668 171.888 90.0649H172.027C172.192 90.046 172.353 89.9947 172.498 89.9138C172.644 89.833 172.772 89.7242 172.875 89.5937C172.979 89.4631 173.056 89.3135 173.101 89.1533C173.147 88.9931 173.16 88.8255 173.141 88.66C173.052 87.7994 172.938 86.9388 172.812 86.1288C172.787 85.9626 172.731 85.8028 172.645 85.6584C172.559 85.5141 172.446 85.3881 172.311 85.2876C172.177 85.1871 172.024 85.1141 171.861 85.0728C171.698 85.0315 171.529 85.0226 171.362 85.0467C171.196 85.0708 171.036 85.1274 170.892 85.2132C170.748 85.2991 170.622 85.4126 170.521 85.5471C170.421 85.6817 170.348 85.8347 170.306 85.9975C170.265 86.1603 170.256 86.3296 170.28 86.4958L170.293 86.4072Z" fill="white"/>
<path d="M168.407 120.389C168.091 120.275 167.743 120.291 167.44 120.434C167.136 120.576 166.901 120.833 166.787 121.149C166.496 121.933 166.192 122.718 165.888 123.49C165.824 123.645 165.792 123.81 165.792 123.977C165.792 124.145 165.826 124.31 165.891 124.464C165.955 124.618 166.05 124.758 166.169 124.875C166.288 124.993 166.429 125.085 166.584 125.148C166.733 125.207 166.892 125.237 167.053 125.237C167.306 125.237 167.554 125.161 167.764 125.019C167.974 124.877 168.136 124.675 168.23 124.439C168.559 123.642 168.862 122.832 169.166 122.009C169.28 121.694 169.264 121.346 169.122 121.042C168.979 120.738 168.722 120.503 168.407 120.389Z" fill="white"/>
<path d="M166.509 71.8018C166.598 72.042 166.759 72.2493 166.969 72.3962C167.179 72.5431 167.429 72.6227 167.686 72.6245C167.841 72.6195 167.995 72.5896 168.141 72.5359C168.297 72.4769 168.439 72.3879 168.56 72.2739C168.681 72.1599 168.778 72.0232 168.846 71.8716C168.915 71.72 168.952 71.5564 168.957 71.3903C168.962 71.2241 168.934 71.0586 168.875 70.9032C168.571 70.0932 168.242 69.2832 167.913 68.4859C167.784 68.1754 167.537 67.9289 167.226 67.8008C166.915 67.6726 166.566 67.6732 166.255 67.8024C165.945 67.9317 165.698 68.1789 165.57 68.4899C165.442 68.8008 165.443 69.1499 165.572 69.4604C165.901 70.2324 166.205 71.0171 166.509 71.8018Z" fill="white"/>
<path d="M113.922 169.078H114.162C115.023 168.913 115.871 168.723 116.693 168.534C116.856 168.496 117.009 168.427 117.144 168.331C117.28 168.234 117.395 168.112 117.483 167.971C117.571 167.83 117.631 167.673 117.658 167.509C117.685 167.345 117.68 167.177 117.643 167.015C117.605 166.853 117.537 166.7 117.44 166.564C117.343 166.429 117.221 166.314 117.08 166.225C116.939 166.137 116.782 166.078 116.618 166.05C116.454 166.023 116.286 166.028 116.124 166.066C115.301 166.255 114.479 166.433 113.656 166.584C113.49 166.6 113.328 166.649 113.181 166.727C113.033 166.805 112.903 166.911 112.796 167.04C112.69 167.169 112.61 167.317 112.561 167.477C112.512 167.636 112.495 167.804 112.511 167.97C112.526 168.137 112.575 168.298 112.653 168.445C112.731 168.593 112.838 168.724 112.966 168.83C113.095 168.936 113.243 169.016 113.403 169.065C113.563 169.114 113.73 169.131 113.896 169.116L113.922 169.078Z" fill="white"/>
<path d="M134.337 160.497C134.26 160.349 134.156 160.217 134.028 160.11C133.901 160.002 133.754 159.921 133.595 159.87C133.437 159.819 133.269 159.801 133.103 159.815C132.937 159.829 132.776 159.876 132.628 159.953C131.894 160.345 131.135 160.712 130.375 161.079C130.118 161.204 129.91 161.412 129.786 161.669C129.662 161.927 129.629 162.219 129.692 162.498C129.755 162.776 129.911 163.026 130.134 163.205C130.357 163.384 130.634 163.482 130.919 163.484C131.103 163.485 131.284 163.446 131.451 163.37C132.248 162.99 133.02 162.598 133.805 162.205C134.102 162.049 134.325 161.782 134.424 161.461C134.524 161.141 134.493 160.794 134.337 160.497Z" fill="white"/>
<path d="M163.281 129.223C162.889 129.97 162.497 130.704 162.092 131.438C161.928 131.73 161.886 132.075 161.976 132.398C162.067 132.721 162.281 132.995 162.573 133.159C162.763 133.262 162.976 133.319 163.193 133.324C163.418 133.322 163.639 133.26 163.833 133.145C164.026 133.029 164.186 132.864 164.294 132.666C164.724 131.919 165.129 131.147 165.559 130.375C165.636 130.227 165.683 130.066 165.697 129.9C165.711 129.734 165.693 129.566 165.642 129.408C165.592 129.249 165.51 129.102 165.403 128.975C165.295 128.847 165.163 128.743 165.015 128.666C164.865 128.586 164.701 128.537 164.532 128.521C164.363 128.506 164.192 128.525 164.03 128.577C163.868 128.629 163.719 128.713 163.59 128.824C163.461 128.935 163.356 129.071 163.281 129.223Z" fill="white"/>
<path d="M162.142 59.8291C161.853 59.996 161.641 60.2707 161.553 60.5932C161.465 60.9156 161.509 61.2597 161.674 61.5503C162.091 62.2844 162.496 63.0185 162.939 63.7652C163.047 63.9673 163.207 64.1364 163.404 64.2545C163.6 64.3726 163.824 64.4353 164.053 64.436C164.259 64.4333 164.462 64.3858 164.648 64.2967C164.945 64.1406 165.168 63.8729 165.268 63.5525C165.367 63.2321 165.336 62.8852 165.18 62.5881C164.775 61.8161 164.344 61.0441 163.914 60.2974C163.831 60.1472 163.719 60.0154 163.584 59.9099C163.449 59.8044 163.294 59.7274 163.128 59.6836C162.963 59.6398 162.79 59.6301 162.62 59.6551C162.451 59.6802 162.288 59.7393 162.142 59.8291Z" fill="white"/>
<path d="M172.913 106.847C173.027 105.986 173.128 105.126 173.217 104.316C173.25 103.98 173.149 103.645 172.935 103.384C172.722 103.123 172.413 102.957 172.078 102.924C171.742 102.89 171.407 102.991 171.146 103.205C170.884 103.418 170.719 103.727 170.685 104.063C170.597 104.911 170.508 105.733 170.394 106.594C170.347 106.926 170.434 107.264 170.636 107.532C170.838 107.8 171.138 107.977 171.47 108.024H171.647C171.968 108.025 172.277 107.904 172.512 107.685C172.747 107.467 172.89 107.167 172.913 106.847Z" fill="white"/>
<path d="M158.333 140.854C158.529 140.854 158.723 140.809 158.899 140.721C159.075 140.633 159.227 140.505 159.345 140.348C159.864 139.639 160.371 138.931 160.851 138.209C161.01 137.932 161.058 137.606 160.986 137.295C160.915 136.984 160.728 136.712 160.464 136.533C160.2 136.354 159.878 136.281 159.563 136.329C159.247 136.377 158.962 136.542 158.763 136.792C158.295 137.488 157.801 138.171 157.308 138.842C157.209 138.976 157.137 139.128 157.097 139.289C157.056 139.451 157.048 139.619 157.073 139.783C157.098 139.948 157.155 140.106 157.241 140.248C157.326 140.391 157.44 140.515 157.573 140.614C157.794 140.774 158.06 140.858 158.333 140.854Z" fill="white"/>
<path d="M138.766 159.143C139.007 159.146 139.244 159.08 139.449 158.953C140.183 158.484 140.918 158.004 141.626 157.51C141.766 157.417 141.885 157.297 141.978 157.158C142.071 157.018 142.135 156.862 142.167 156.697C142.198 156.533 142.197 156.364 142.163 156.2C142.129 156.036 142.063 155.88 141.968 155.742C141.874 155.604 141.752 155.486 141.612 155.395C141.471 155.304 141.314 155.241 141.149 155.212C140.984 155.182 140.815 155.185 140.652 155.221C140.488 155.257 140.333 155.325 140.196 155.422C139.5 155.903 138.804 156.358 138.095 156.814C137.867 156.961 137.692 157.178 137.597 157.433C137.501 157.688 137.49 157.966 137.566 158.227C137.641 158.489 137.798 158.719 138.014 158.884C138.231 159.048 138.494 159.139 138.766 159.143Z" fill="white"/>
<path d="M171.04 95.1907C171.04 95.7349 171.04 96.2918 171.04 96.836V97.7093C171.04 98.045 171.173 98.3669 171.41 98.6042C171.648 98.8416 171.97 98.9749 172.305 98.9749C172.641 98.9749 172.963 98.8416 173.2 98.6042C173.438 98.3669 173.571 98.045 173.571 97.7093V96.836C173.571 96.2665 173.571 95.697 173.571 95.1274C173.571 94.7918 173.438 94.4699 173.2 94.2325C172.963 93.9952 172.641 93.8618 172.305 93.8618C172.134 93.8616 171.964 93.8963 171.806 93.9638C171.648 94.0314 171.506 94.1303 171.387 94.2546C171.269 94.3789 171.177 94.526 171.117 94.6869C171.057 94.8479 171.031 95.0193 171.04 95.1907Z" fill="white"/>
<path d="M153.359 143.753C152.802 144.385 152.245 145.018 151.663 145.613C151.427 145.85 151.295 146.171 151.295 146.505C151.295 146.84 151.427 147.161 151.663 147.398C151.898 147.624 152.21 147.751 152.536 147.752C152.708 147.75 152.877 147.713 153.033 147.643C153.19 147.573 153.331 147.473 153.447 147.347C154.042 146.714 154.637 146.081 155.207 145.423C155.411 145.169 155.51 144.846 155.482 144.521C155.454 144.196 155.302 143.895 155.057 143.679C154.812 143.464 154.494 143.351 154.168 143.365C153.842 143.379 153.534 143.517 153.308 143.753H153.359Z" fill="white"/>
<path d="M147.145 149.992C146.512 150.549 145.879 151.093 145.221 151.637C145.02 151.804 144.876 152.028 144.807 152.279C144.739 152.531 144.749 152.797 144.838 153.042C144.927 153.287 145.089 153.499 145.302 153.649C145.516 153.798 145.77 153.878 146.031 153.878C146.327 153.878 146.613 153.775 146.841 153.587C147.512 153.03 148.106 152.46 148.815 151.891C148.942 151.781 149.045 151.647 149.119 151.497C149.193 151.346 149.237 151.183 149.248 151.016C149.258 150.849 149.235 150.681 149.181 150.523C149.126 150.364 149.041 150.218 148.929 150.093C148.706 149.844 148.392 149.693 148.058 149.674C147.723 149.655 147.395 149.769 147.145 149.992Z" fill="white"/>
<path d="M42.8571 142.424C43.0932 142.423 43.3245 142.357 43.5247 142.231C43.725 142.106 43.8862 141.928 43.9902 141.716C44.0943 141.504 44.1369 141.267 44.1133 141.032C44.0898 140.797 44.0009 140.573 43.8569 140.386C43.3507 139.741 42.8697 139.12 42.3888 138.437C42.1933 138.166 41.8987 137.984 41.5691 137.929C41.2396 137.875 40.9019 137.953 40.6296 138.146C40.4937 138.243 40.3783 138.366 40.29 138.507C40.2018 138.649 40.1424 138.807 40.1154 138.971C40.0883 139.136 40.0941 139.304 40.1324 139.467C40.1707 139.629 40.2407 139.783 40.3385 139.918C40.8363 140.601 41.3425 141.272 41.8572 141.93C41.9751 142.083 42.1265 142.207 42.2999 142.293C42.4732 142.379 42.6638 142.423 42.8571 142.424Z" fill="white"/>
<path d="M52.2985 152.853C52.9313 153.397 53.5641 153.928 54.2476 154.46C54.4702 154.639 54.7468 154.737 55.0323 154.738C55.2224 154.737 55.4098 154.694 55.5807 154.611C55.7516 154.527 55.9016 154.407 56.0194 154.257C56.1239 154.127 56.2015 153.978 56.2479 153.817C56.2942 153.657 56.3084 153.489 56.2896 153.323C56.2707 153.157 56.2193 152.997 56.1382 152.851C56.0571 152.705 55.9479 152.576 55.8169 152.473C55.1841 151.967 54.5513 151.46 53.9438 150.929C53.8175 150.821 53.6711 150.739 53.5131 150.687C53.3551 150.636 53.1884 150.616 53.0227 150.629C52.6881 150.655 52.3775 150.813 52.1593 151.068C51.9411 151.323 51.8332 151.654 51.8593 151.989C51.8854 152.324 52.0434 152.634 52.2985 152.853Z" fill="white"/>
<path d="M82.5848 167.078C82.5473 167.24 82.5421 167.408 82.5696 167.572C82.597 167.736 82.6565 167.893 82.7446 168.034C82.8328 168.175 82.9479 168.298 83.0833 168.394C83.2188 168.491 83.372 168.56 83.5341 168.597C84.3567 168.787 85.1794 168.951 86.002 169.116H86.2425C86.5782 169.148 86.9127 169.045 87.1726 168.83C87.4325 168.615 87.5965 168.306 87.6283 167.97C87.6602 167.635 87.5575 167.3 87.3427 167.04C87.1279 166.78 86.8186 166.616 86.483 166.584C85.6856 166.433 84.8883 166.268 84.1036 166.091C83.9389 166.054 83.7685 166.05 83.6024 166.08C83.4362 166.11 83.2778 166.173 83.1363 166.265C82.9947 166.357 82.873 166.476 82.7784 166.616C82.6837 166.755 82.6179 166.913 82.5848 167.078Z" fill="white"/>
<path d="M45.9326 146.74C46.4979 147.355 47.08 147.963 47.6791 148.562C47.7963 148.682 47.9361 148.777 48.0904 148.842C48.2446 148.907 48.4103 148.941 48.5777 148.942C48.9097 148.94 49.2279 148.809 49.4636 148.575C49.6994 148.338 49.8317 148.017 49.8317 147.682C49.8317 147.348 49.6994 147.027 49.4636 146.79C48.8941 146.208 48.3372 145.626 47.7804 145.031C47.5481 144.809 47.2398 144.683 46.9183 144.68C46.5968 144.676 46.286 144.796 46.0492 145.013C45.8124 145.231 45.6672 145.53 45.6432 145.851C45.6192 146.171 45.7181 146.489 45.9199 146.74H45.9326Z" fill="white"/>
<path d="M74.3077 164.458C74.1937 164.774 74.2097 165.122 74.3521 165.425C74.4945 165.729 74.7516 165.964 75.0671 166.078C75.8644 166.357 76.6618 166.635 77.4591 166.888C77.586 166.929 77.7183 166.95 77.8515 166.951C78.1871 167.002 78.529 166.917 78.802 166.715C79.075 166.513 79.2566 166.211 79.3069 165.876C79.3573 165.54 79.2722 165.198 79.0705 164.925C78.8687 164.652 78.5668 164.471 78.2311 164.42L75.953 163.699C75.7953 163.638 75.6271 163.61 75.4583 163.616C75.2896 163.622 75.1236 163.661 74.9703 163.732C74.817 163.802 74.6794 163.903 74.5656 164.028C74.4518 164.153 74.3641 164.299 74.3077 164.458Z" fill="white"/>
<path d="M66.9671 162.598L69.2326 163.686C69.4001 163.76 69.5811 163.799 69.7642 163.8C70.0062 163.801 70.2434 163.732 70.4475 163.602C70.6517 163.472 70.8142 163.286 70.9159 163.066C70.9861 162.915 71.0257 162.751 71.0325 162.585C71.0393 162.418 71.0132 162.252 70.9555 162.096C70.8979 161.939 70.81 161.796 70.6967 161.673C70.5835 161.551 70.4472 161.452 70.2957 161.383C69.5617 161.054 68.8276 160.699 68.1062 160.332C67.8073 160.182 67.4611 160.157 67.1433 160.261C66.8255 160.365 66.562 160.591 66.4102 160.889C66.3339 161.038 66.2878 161.2 66.2745 161.367C66.2612 161.533 66.281 161.701 66.3328 161.86C66.3846 162.018 66.4673 162.165 66.5762 162.292C66.685 162.419 66.8179 162.523 66.9671 162.598Z" fill="white"/>
<path d="M29.6692 118.567C29.7528 118.833 29.9222 119.065 30.1512 119.225C30.3801 119.385 30.6557 119.465 30.9348 119.453C31.0607 119.472 31.1887 119.472 31.3145 119.453C31.635 119.353 31.903 119.131 32.0596 118.834C32.2162 118.538 32.2487 118.191 32.1498 117.871C31.9094 117.099 31.6815 116.314 31.4664 115.529C31.3702 115.215 31.1559 114.951 30.8688 114.793C30.5816 114.634 30.2439 114.593 29.9271 114.678C29.6102 114.763 29.3389 114.969 29.1704 115.25C29.0019 115.532 28.9493 115.868 29.0237 116.187C29.1883 116.959 29.4287 117.719 29.6692 118.567Z" fill="white"/>
<path d="M32.7826 126.831C32.8833 127.055 33.047 127.245 33.2538 127.378C33.4605 127.51 33.7014 127.58 33.947 127.578C34.1218 127.575 34.2942 127.537 34.4532 127.464C34.6054 127.397 34.7428 127.3 34.8576 127.18C34.9724 127.06 35.0623 126.918 35.1223 126.763C35.1822 126.607 35.211 126.442 35.207 126.276C35.2029 126.109 35.1661 125.945 35.0987 125.793C34.7696 125.059 34.4406 124.3 34.1368 123.553C34.0819 123.39 33.994 123.239 33.8785 123.11C33.7631 122.982 33.6226 122.878 33.4656 122.806C33.3087 122.734 33.1386 122.695 32.9659 122.691C32.7933 122.687 32.6216 122.718 32.4615 122.783C32.3014 122.848 32.1563 122.945 32.0351 123.068C31.914 123.191 31.8193 123.338 31.7569 123.499C31.6945 123.66 31.6657 123.832 31.6723 124.005C31.679 124.177 31.7208 124.347 31.7954 124.502C32.1118 125.312 32.4409 126.059 32.7826 126.831Z" fill="white"/>
<path d="M28.6188 85.1163H28.8466C29.1463 85.1212 29.438 85.0196 29.6698 84.8295C29.9016 84.6395 30.0584 84.3733 30.1123 84.0785C30.2515 83.2811 30.416 82.4838 30.5932 81.6865C30.6637 81.3508 30.5979 81.0009 30.4104 80.7137C30.2229 80.4265 29.929 80.2255 29.5934 80.1551C29.2577 80.0846 28.9078 80.1503 28.6206 80.3378C28.3334 80.5253 28.1324 80.8192 28.0619 81.1549C27.8848 81.9649 27.7202 82.8002 27.5684 83.6229C27.5357 83.7902 27.5372 83.9625 27.5728 84.1293C27.6083 84.2961 27.6772 84.4539 27.7754 84.5934C27.8735 84.7329 27.9988 84.8511 28.1437 84.941C28.2886 85.0308 28.4503 85.0905 28.6188 85.1163Z" fill="white"/>
<path d="M58.981 156.409C58.8883 156.548 58.824 156.703 58.7916 156.867C58.7593 157.03 58.7596 157.199 58.7925 157.362C58.8254 157.526 58.8903 157.681 58.9835 157.819C59.0767 157.958 59.1963 158.076 59.3354 158.168L61.4616 159.484C61.6036 159.572 61.7615 159.631 61.9263 159.658C62.0911 159.684 62.2595 159.678 62.4218 159.639C62.5842 159.6 62.7372 159.53 62.8722 159.431C63.0071 159.333 63.1213 159.209 63.2082 159.067C63.3815 158.781 63.4349 158.439 63.3567 158.114C63.2784 157.789 63.0749 157.508 62.7905 157.333C62.0944 156.903 61.411 156.472 60.7402 156.067C60.6023 155.974 60.4474 155.909 60.2843 155.875C60.1212 155.842 59.9531 155.841 59.7897 155.873C59.6263 155.905 59.4708 155.968 59.332 156.06C59.1932 156.152 59.0739 156.271 58.981 156.409Z" fill="white"/>
<path d="M30.074 109.543C29.9348 108.745 29.8083 107.948 29.6817 107.138C29.6576 106.972 29.601 106.812 29.5151 106.668C29.4293 106.523 29.3158 106.397 29.1812 106.297C29.0467 106.196 28.8936 106.123 28.7309 106.082C28.5681 106.041 28.3988 106.032 28.2326 106.056C28.0663 106.08 27.9065 106.137 27.7622 106.223C27.6179 106.308 27.4919 106.422 27.3914 106.556C27.2909 106.691 27.2179 106.844 27.1766 107.007C27.1352 107.17 27.1263 107.339 27.1504 107.505C27.277 108.34 27.4162 109.163 27.5554 110.036C27.6094 110.331 27.7662 110.597 27.9979 110.787C28.2297 110.977 28.5214 111.079 28.8211 111.074H29.0489C29.2191 111.046 29.3818 110.983 29.5268 110.889C29.6718 110.796 29.7962 110.673 29.8922 110.53C29.9882 110.386 30.0539 110.225 30.0852 110.055C30.1164 109.885 30.1126 109.711 30.074 109.543Z" fill="white"/>
<path d="M37.8199 131.248C37.6521 130.955 37.3744 130.74 37.0481 130.651C36.7217 130.562 36.3734 130.606 36.0797 130.774C35.786 130.942 35.571 131.219 35.482 131.546C35.393 131.872 35.4372 132.22 35.6051 132.514C36.0101 133.248 36.4404 133.969 36.8707 134.691C36.9827 134.88 37.142 135.036 37.3328 135.145C37.5236 135.254 37.7395 135.311 37.9591 135.311C38.1858 135.307 38.4079 135.246 38.6046 135.134C38.7482 135.048 38.8733 134.935 38.9728 134.8C39.0722 134.666 39.144 134.513 39.184 134.35C39.2241 134.188 39.2315 134.019 39.2059 133.854C39.1803 133.689 39.1222 133.53 39.0349 133.387C38.6173 132.653 38.2123 131.957 37.8199 131.248Z" fill="white"/>
<path d="M30.5299 76.6619C30.6516 76.6798 30.7753 76.6798 30.8969 76.6619C31.1777 76.6739 31.4545 76.5921 31.6837 76.4294C31.9128 76.2667 32.0813 76.0324 32.1626 75.7633C32.4073 74.9955 32.6604 74.2235 32.9219 73.4472C32.9831 73.2885 33.0117 73.1191 33.006 72.9491C33.0002 72.779 32.9602 72.6119 32.8884 72.4577C32.8166 72.3035 32.7144 72.1653 32.588 72.0515C32.4616 71.9376 32.3135 71.8504 32.1527 71.7951C31.9918 71.7398 31.8214 71.7175 31.6517 71.7295C31.482 71.7415 31.3165 71.7876 31.165 71.865C31.0135 71.9424 30.8792 72.0496 30.7701 72.1801C30.661 72.3106 30.5793 72.4618 30.5299 72.6246C30.2515 73.4093 29.9984 74.2066 29.7452 75.0166C29.6854 75.1759 29.6584 75.3457 29.6657 75.5157C29.673 75.6857 29.7146 75.8525 29.7878 76.0061C29.8611 76.1597 29.9645 76.2969 30.0921 76.4096C30.2196 76.5223 30.3685 76.6081 30.5299 76.6619Z" fill="white"/>
<path d="M33.4409 68.4987C33.6048 68.5686 33.7816 68.6031 33.9598 68.5999C34.2054 68.6018 34.4462 68.5323 34.653 68.3997C34.8597 68.2671 35.0234 68.0772 35.1241 67.8532C35.4532 67.1191 35.7949 66.3851 36.1493 65.651C36.2453 65.5001 36.3083 65.3305 36.334 65.1535C36.3598 64.9765 36.3477 64.796 36.2986 64.624C36.2495 64.452 36.1645 64.2924 36.0492 64.1556C35.9339 64.0189 35.7909 63.9081 35.6297 63.8306C35.4684 63.7532 35.2926 63.7108 35.1138 63.7062C34.935 63.7017 34.7572 63.7351 34.5923 63.8042C34.4273 63.8734 34.2789 63.9767 34.1567 64.1074C34.0346 64.2382 33.9416 64.3933 33.8838 64.5626C33.5041 65.3219 33.1498 66.0813 32.808 66.8533C32.6789 67.156 32.6728 67.4971 32.7909 67.8043C32.909 68.1114 33.1422 68.3605 33.4409 68.4987Z" fill="white"/>
<path d="M27.8593 102.43C28.1816 102.411 28.4844 102.269 28.7056 102.033C28.9267 101.798 29.0496 101.487 29.049 101.164C29.049 100.354 28.9604 99.5443 28.9478 98.7217C28.9478 98.386 28.8144 98.0641 28.5771 97.8267C28.3397 97.5894 28.0178 97.4561 27.6821 97.4561C27.3465 97.4561 27.0245 97.5894 26.7872 97.8267C26.5498 98.0641 26.4165 98.386 26.4165 98.7217C26.4165 99.5696 26.4165 100.405 26.5178 101.253C26.5405 101.587 26.6944 101.898 26.9458 102.118C27.1971 102.339 27.5256 102.451 27.8593 102.43Z" fill="white"/>
<path d="M27.733 93.7479H27.8596C28.1825 93.7484 28.4934 93.6256 28.7287 93.4044C28.964 93.1832 29.1058 92.8805 29.1252 92.5582C29.1252 91.7482 29.2391 90.9382 29.3151 90.1408C29.347 89.8052 29.2442 89.4706 29.0294 89.2107C28.8146 88.9508 28.5053 88.7869 28.1697 88.755C27.834 88.7231 27.4994 88.8258 27.2395 89.0406C26.9796 89.2554 26.8157 89.5647 26.7838 89.9004C26.6573 90.7272 26.594 91.5625 26.594 92.4063C26.5727 92.734 26.6796 93.0571 26.8922 93.3075C27.1047 93.5578 27.4062 93.7157 27.733 93.7479Z" fill="white"/>
<path d="M92.5832 167.496C92.417 167.478 92.249 167.494 92.0888 167.541C91.9285 167.589 91.7792 167.667 91.6494 167.773C91.5195 167.878 91.4116 168.007 91.3319 168.154C91.2522 168.301 91.2021 168.462 91.1847 168.629C91.1672 168.795 91.1827 168.963 91.2302 169.123C91.2777 169.283 91.3562 169.433 91.4614 169.562C91.5666 169.692 91.6963 169.8 91.8432 169.88C91.9901 169.96 92.1512 170.01 92.3174 170.027H92.4693C92.7069 171.856 93.6022 173.536 94.988 174.754C96.3737 175.971 98.1552 176.642 99.9998 176.642C101.844 176.642 103.626 175.971 105.012 174.754C106.397 173.536 107.293 171.856 107.53 170.027H107.682C108.018 169.992 108.326 169.825 108.538 169.562C108.751 169.3 108.85 168.964 108.815 168.629C108.78 168.293 108.612 167.985 108.35 167.773C108.088 167.56 107.752 167.461 107.416 167.496C107.029 165.824 106.087 164.333 104.743 163.266C103.4 162.198 101.735 161.617 100.019 161.617C98.3029 161.617 96.6376 162.198 95.2942 163.266C93.9509 164.333 93.0087 165.824 92.6212 167.496H92.5832ZM99.9998 164.104C101.306 164.103 102.562 164.606 103.506 165.51C104.449 166.413 105.007 167.646 105.062 168.951C105.062 168.951 105.062 169.04 105.062 169.09C105.062 170.433 104.529 171.721 103.58 172.67C102.63 173.62 101.342 174.153 99.9998 174.153C98.6571 174.153 97.3694 173.62 96.42 172.67C95.4706 171.721 94.9373 170.433 94.9373 169.09C94.9323 169.044 94.9323 168.998 94.9373 168.951C94.9928 167.646 95.5506 166.413 96.494 165.51C97.4375 164.606 98.6936 164.103 99.9998 164.104Z" fill="white"/>
<path d="M78.5731 29.0111C78.699 29.0302 78.827 29.0302 78.9528 29.0111C79.7501 28.758 80.5601 28.5175 81.3701 28.3023C81.6839 28.2061 81.948 27.9919 82.1068 27.7047C82.2656 27.4175 82.3066 27.0799 82.2212 26.763C82.1359 26.4462 81.9308 26.1749 81.6492 26.0063C81.3676 25.8378 81.0316 25.7852 80.712 25.8597C79.864 26.0875 79.0287 26.328 78.1808 26.5937C77.8451 26.6441 77.5432 26.8257 77.3414 27.0987C77.1397 27.3716 77.0546 27.7135 77.105 28.0492C77.1553 28.3849 77.337 28.6868 77.6099 28.8885C77.8829 29.0903 78.2248 29.1753 78.5605 29.125L78.5731 29.0111Z" fill="white"/>
<path d="M62.2339 36.4277C62.4666 36.4261 62.6943 36.3604 62.892 36.2379C63.6135 35.7949 64.3349 35.3646 65.0689 34.9723C65.215 34.8906 65.3435 34.7809 65.4468 34.6493C65.5502 34.5177 65.6265 34.3669 65.6712 34.2057C65.7159 34.0444 65.7282 33.8759 65.7074 33.7098C65.6866 33.5438 65.633 33.3836 65.5499 33.2383C65.385 32.9467 65.1113 32.7323 64.7886 32.6421C64.466 32.552 64.1207 32.5934 63.8286 32.7574C63.0566 33.1877 62.3099 33.6307 61.5631 34.0863C61.4217 34.1742 61.2989 34.2892 61.2019 34.4246C61.105 34.56 61.0357 34.7133 60.998 34.8755C60.9604 35.0378 60.9552 35.2059 60.9827 35.3702C61.0101 35.5344 61.0698 35.6917 61.1581 35.8329C61.2721 36.0153 61.4307 36.1656 61.619 36.2697C61.8072 36.3738 62.0188 36.4282 62.2339 36.4277Z" fill="white"/>
<path d="M70.1694 32.213C70.3485 32.2122 70.5253 32.1734 70.6883 32.0991C71.4603 31.7447 72.2324 31.4157 73.0044 31.0866C73.3145 30.9602 73.5618 30.7161 73.6923 30.4077C73.8228 30.0993 73.8257 29.7518 73.7005 29.4413C73.638 29.2862 73.5453 29.1451 73.428 29.026C73.3106 28.907 73.1708 28.8123 73.0166 28.7476C72.8625 28.6829 72.697 28.6493 72.5298 28.6489C72.3626 28.6485 72.197 28.6812 72.0425 28.7452C71.2452 29.0869 70.4352 29.4286 69.6505 29.783C69.3802 29.898 69.1583 30.1035 69.0229 30.3642C68.8874 30.6249 68.8469 30.9246 68.9083 31.2119C68.9696 31.4992 69.129 31.7562 69.3591 31.9389C69.5892 32.1215 69.8757 32.2184 70.1694 32.213Z" fill="white"/>
<path d="M87.3439 26.8976H87.5717C88.3943 26.7584 89.2296 26.6192 90.1029 26.5053C90.4386 26.4583 90.7418 26.2799 90.946 26.0093C91.1501 25.7387 91.2384 25.3981 91.1914 25.0625C91.1444 24.7268 90.966 24.4235 90.6954 24.2194C90.4248 24.0153 90.0842 23.927 89.7486 23.974C88.8879 24.0879 88.0146 24.2271 87.2173 24.379C86.8816 24.4075 86.5711 24.5683 86.3539 24.8258C86.1367 25.0833 86.0307 25.4166 86.0593 25.7522C86.0878 26.0879 86.2485 26.3985 86.506 26.6156C86.7635 26.8328 87.0968 26.9388 87.4325 26.9103L87.3439 26.8976Z" fill="white"/>
<path d="M54.8804 41.5914C55.1658 41.5897 55.4424 41.4916 55.665 41.3129L57.6647 39.7689C57.8123 39.6759 57.9391 39.5534 58.0371 39.4091C58.1352 39.2648 58.2023 39.1018 58.2343 38.9303C58.2663 38.7588 58.2625 38.5826 58.2232 38.4126C58.1839 38.2427 58.1098 38.0827 58.0057 37.9427C57.9016 37.8027 57.7697 37.6858 57.6182 37.5992C57.4668 37.5126 57.2991 37.4583 57.1256 37.4396C56.9522 37.421 56.7767 37.4384 56.6103 37.4907C56.4439 37.5431 56.2901 37.6293 56.1586 37.7439C55.4625 38.2628 54.7664 38.7944 54.083 39.3386C53.8782 39.5029 53.7296 39.7268 53.6577 39.9793C53.5858 40.2319 53.5943 40.5005 53.6819 40.748C53.7695 40.9956 53.9319 41.2097 54.1467 41.3608C54.3614 41.5119 54.6178 41.5925 54.8804 41.5914Z" fill="white"/>
<path d="M130.615 32.7067C131.375 33.0738 132.122 33.4535 132.868 33.8458C133.05 33.9335 133.249 33.981 133.45 33.985C133.716 33.9667 133.969 33.8651 134.174 33.6946C134.378 33.5242 134.524 33.2936 134.59 33.0356C134.655 32.7777 134.638 32.5056 134.541 32.2579C134.443 32.0103 134.27 31.7997 134.045 31.6563C133.273 31.2513 132.489 30.8589 131.704 30.4792C131.553 30.3933 131.386 30.3394 131.213 30.3209C131.04 30.3024 130.865 30.3197 130.699 30.3717C130.533 30.4238 130.38 30.5094 130.249 30.6233C130.118 30.7372 130.011 30.8769 129.936 31.0337C129.861 31.1906 129.819 31.3612 129.813 31.5349C129.807 31.7086 129.837 31.8817 129.901 32.0434C129.964 32.2051 130.061 32.352 130.184 32.4748C130.307 32.5976 130.454 32.6938 130.615 32.7574V32.7067Z" fill="white"/>
<path d="M122.427 29.4033C123.224 29.6691 124.022 29.9476 124.806 30.2387C124.96 30.3311 125.134 30.3833 125.313 30.3905C125.648 30.4409 125.99 30.3558 126.263 30.1541C126.536 29.9523 126.718 29.6504 126.768 29.3148C126.818 28.9791 126.733 28.6372 126.532 28.3642C126.33 28.0913 126.028 27.9096 125.692 27.8593C124.848 27.5555 124.005 27.2644 123.161 26.986C122.842 26.8803 122.494 26.9055 122.194 27.0563C121.894 27.207 121.666 27.4708 121.56 27.7897C121.454 28.1086 121.48 28.4564 121.63 28.7566C121.781 29.0569 122.045 29.285 122.364 29.3907L122.427 29.4033Z" fill="white"/>
<path d="M96.2033 25.885C97.0387 25.885 97.8866 25.885 98.7346 25.8091C99.0703 25.8091 99.3922 25.6757 99.6295 25.4384C99.8669 25.201 100 24.8791 100 24.5435C100 24.2078 99.8669 23.8859 99.6295 23.6485C99.3922 23.4112 99.0703 23.2778 98.7346 23.2778C97.8487 23.2778 96.988 23.2778 96.1147 23.3664C95.7791 23.3748 95.4605 23.5162 95.2291 23.7595C94.9977 24.0028 94.8724 24.328 94.8808 24.6637C94.8892 24.9994 95.0305 25.3179 95.2738 25.5494C95.5171 25.7808 95.8424 25.9061 96.178 25.8977L96.2033 25.885Z" fill="white"/>
<path d="M113.922 27.1379C114.744 27.3024 115.567 27.4922 116.377 27.6821C116.478 27.6943 116.58 27.6943 116.681 27.6821C116.847 27.7004 117.015 27.6857 117.176 27.639C117.336 27.5923 117.486 27.5144 117.616 27.4098C117.747 27.3052 117.855 27.176 117.936 27.0294C118.016 26.8829 118.067 26.7219 118.086 26.5557C118.104 26.3895 118.089 26.2213 118.042 26.0608C117.996 25.9002 117.918 25.7504 117.813 25.62C117.709 25.4895 117.579 25.381 117.433 25.3005C117.286 25.22 117.125 25.1691 116.959 25.1508C116.124 24.9483 115.263 24.7712 114.428 24.594C114.264 24.5608 114.095 24.5605 113.932 24.5929C113.768 24.6253 113.612 24.6898 113.473 24.7828C113.334 24.8757 113.215 24.9953 113.123 25.1345C113.03 25.2737 112.966 25.4298 112.934 25.5938C112.894 25.7602 112.887 25.9332 112.915 26.1023C112.943 26.2713 113.005 26.433 113.097 26.5773C113.19 26.7217 113.31 26.8458 113.452 26.9422C113.594 27.0385 113.753 27.1051 113.922 27.1379Z" fill="white"/>
<path d="M105.139 25.9608C105.987 25.9608 106.822 26.1001 107.67 26.1886H107.809C108.145 26.2054 108.473 26.0882 108.723 25.8627C108.972 25.6372 109.121 25.322 109.138 24.9863C109.155 24.6506 109.038 24.3221 108.812 24.0728C108.587 23.8236 108.271 23.6742 107.936 23.6574C107.075 23.5688 106.214 23.4929 105.341 23.4296C105.005 23.4044 104.674 23.5136 104.418 23.7332C104.163 23.9527 104.006 24.2646 103.981 24.6003C103.955 24.936 104.065 25.2679 104.284 25.523C104.504 25.7782 104.816 25.9357 105.151 25.9608H105.139Z" fill="white"/>
<path d="M138.323 37.0099C139.032 37.4655 139.728 37.9338 140.424 38.4147C140.635 38.5625 140.887 38.6419 141.145 38.6426C141.414 38.6419 141.676 38.5556 141.893 38.396C142.109 38.2364 142.27 38.012 142.35 37.7552C142.43 37.4984 142.427 37.2227 142.34 36.9681C142.253 36.7134 142.087 36.4931 141.867 36.3391C141.145 35.8455 140.424 35.3519 139.69 34.8836C139.408 34.7029 139.065 34.6413 138.738 34.7125C138.411 34.7837 138.125 34.9818 137.943 35.2633C137.762 35.5454 137.701 35.8877 137.772 36.2151C137.843 36.5425 138.041 36.8283 138.323 37.0099Z" fill="white"/>
<path d="M92.4062 45.3376H92.5834C92.9949 46.9796 93.9432 48.437 95.2778 49.4783C96.6123 50.5197 98.2566 51.0853 99.9493 51.0853C101.642 51.0853 103.286 50.5197 104.621 49.4783C105.955 48.437 106.904 46.9796 107.315 45.3376H107.594C107.929 45.3611 108.261 45.2503 108.515 45.0296C108.769 44.8088 108.924 44.4962 108.948 44.1606C108.971 43.8249 108.861 43.4937 108.64 43.2397C108.419 42.9857 108.107 42.8299 107.771 42.8064H107.606C107.608 40.7907 106.809 38.8569 105.385 37.4304C103.961 36.004 102.028 35.2016 100.013 35.2C97.9969 35.1983 96.0632 35.9974 94.6367 37.4215C93.2102 38.8456 92.4079 40.778 92.4062 42.7937H92.2417C91.906 42.8172 91.5934 42.9731 91.3727 43.227C91.1519 43.481 91.0411 43.8123 91.0646 44.1479C91.0881 44.4836 91.244 44.7962 91.498 45.0169C91.7519 45.2376 92.0832 45.3484 92.4188 45.325L92.4062 45.3376ZM99.9999 38.4653C101.343 38.4653 102.63 38.9986 103.58 39.948C104.529 40.8974 105.062 42.1851 105.062 43.5278C105.062 43.6037 105.062 43.667 105.062 43.7303C104.911 44.9565 104.317 46.0851 103.392 46.9036C102.466 47.7221 101.273 48.1739 100.038 48.1739C98.8024 48.1739 97.6096 47.7221 96.6841 46.9036C95.7586 46.0851 95.1644 44.9565 95.0134 43.7303C95.0134 43.667 95.0134 43.6037 95.0134 43.5278C95.0132 42.1982 95.5362 40.9219 96.4692 39.9746C97.4022 39.0274 98.6705 38.4852 99.9999 38.4653Z" fill="white"/>
<path d="M55.3487 127.236C55.5912 127.236 55.8284 127.165 56.0321 127.034C56.3046 126.851 56.4953 126.569 56.5638 126.247C56.6323 125.926 56.5732 125.591 56.3991 125.313C55.9562 124.616 55.5132 123.908 55.1335 123.186C54.9584 122.911 54.6836 122.714 54.3665 122.636C54.0495 122.558 53.7147 122.606 53.4321 122.77C53.1494 122.933 52.9409 123.199 52.8499 123.513C52.759 123.826 52.7927 124.163 52.944 124.452C53.3869 125.199 53.8426 125.933 54.3235 126.667C54.4358 126.837 54.5876 126.978 54.7661 127.077C54.9447 127.177 55.1445 127.231 55.3487 127.236Z" fill="white"/>
<path d="M91.862 148.246C91.0393 148.119 90.2293 147.98 89.4193 147.803C89.0836 147.736 88.7351 147.804 88.4502 147.994C88.1654 148.184 87.9677 148.479 87.9006 148.815C87.8334 149.151 87.9024 149.499 88.0923 149.784C88.2821 150.069 88.5774 150.267 88.9131 150.334C89.761 150.511 90.609 150.663 91.4443 150.802H91.6468C91.813 150.815 91.98 150.794 92.1384 150.742C92.2967 150.69 92.4432 150.607 92.5695 150.499C92.6959 150.39 92.7996 150.257 92.8747 150.109C92.9498 149.96 92.9949 149.798 93.0074 149.631C93.0198 149.465 92.9994 149.298 92.9473 149.14C92.8953 148.982 92.8125 148.835 92.7038 148.709C92.5951 148.582 92.4625 148.479 92.3138 148.404C92.165 148.328 92.0029 148.283 91.8367 148.271L91.862 148.246Z" fill="white"/>
<path d="M45.5782 101C45.6037 101.318 45.7482 101.614 45.9829 101.83C46.2175 102.046 46.525 102.165 46.8438 102.164H46.9324C47.0988 102.153 47.2613 102.109 47.4106 102.035C47.5599 101.961 47.693 101.858 47.8024 101.732C47.9118 101.606 47.9952 101.46 48.0479 101.302C48.1006 101.143 48.1215 100.976 48.1095 100.81C48.1095 99.9874 48.0082 99.1521 47.9829 98.2788C47.9829 97.9431 47.8496 97.6212 47.6122 97.3839C47.3749 97.1465 47.0529 97.0132 46.7173 97.0132C46.3816 97.0132 46.0597 97.1465 45.8224 97.3839C45.585 97.6212 45.4517 97.9431 45.4517 98.2788C45.4643 99.266 45.5782 100.139 45.5782 101Z" fill="white"/>
<path d="M139.095 134.893C139.703 134.273 140.361 133.628 140.867 132.982C140.997 132.862 141.099 132.716 141.169 132.554C141.238 132.392 141.273 132.217 141.271 132.04C141.269 131.864 141.23 131.689 141.157 131.529C141.083 131.368 140.977 131.225 140.845 131.108C140.713 130.991 140.558 130.903 140.389 130.849C140.221 130.796 140.044 130.778 139.868 130.797C139.693 130.816 139.523 130.872 139.37 130.961C139.218 131.049 139.085 131.169 138.981 131.312C138.425 131.932 137.868 132.577 137.286 133.134C137.05 133.371 136.917 133.692 136.917 134.026C136.917 134.361 137.05 134.681 137.286 134.919C137.521 135.152 137.839 135.284 138.171 135.286C138.344 135.287 138.515 135.252 138.674 135.185C138.833 135.118 138.976 135.018 139.095 134.893Z" fill="white"/>
<path d="M67.3849 140.272C67.6584 140.283 67.9279 140.204 68.1531 140.049C68.3782 139.893 68.547 139.669 68.6339 139.41C68.7209 139.15 68.7214 138.87 68.6354 138.61C68.5494 138.35 68.3815 138.125 68.1569 137.969C67.5115 137.462 66.8913 136.944 66.2332 136.399C66.1061 136.292 65.9591 136.211 65.8006 136.16C65.6421 136.11 65.4752 136.091 65.3094 136.105C65.1437 136.119 64.9824 136.166 64.8347 136.243C64.687 136.319 64.5558 136.424 64.4487 136.551C64.3332 136.677 64.2444 136.824 64.1874 136.985C64.1304 137.146 64.1066 137.317 64.1172 137.487C64.1279 137.657 64.1728 137.823 64.2493 137.976C64.3258 138.128 64.4324 138.264 64.5626 138.374C65.2207 138.931 65.9041 139.475 66.5876 140.019C66.817 140.191 67.0981 140.281 67.3849 140.272Z" fill="white"/>
<path d="M83.7745 47.3246C83.9035 47.323 84.0316 47.3016 84.1542 47.2613C84.9515 47.0082 85.7362 46.7804 86.5462 46.5652C86.7078 46.5226 86.8593 46.4485 86.9921 46.347C87.1249 46.2456 87.2363 46.1188 87.3198 45.9741C87.4034 45.8294 87.4574 45.6695 87.4789 45.5038C87.5003 45.3381 87.4887 45.1697 87.4448 45.0085C87.3559 44.6873 87.1439 44.4141 86.8548 44.2482C86.5657 44.0823 86.2229 44.0372 85.9007 44.1226C85.0528 44.3377 84.2174 44.5908 83.3695 44.8566C83.0838 44.9505 82.8408 45.1431 82.6842 45.3998C82.5276 45.6566 82.4675 45.9607 82.5147 46.2577C82.5619 46.5547 82.7134 46.8252 82.9419 47.0207C83.1704 47.2162 83.4611 47.3239 83.7618 47.3246H83.7745Z" fill="white"/>
<path d="M51.4129 71.9791C51.0079 72.7385 50.6282 73.5232 50.2738 74.3205C50.1368 74.6261 50.1265 74.9734 50.2452 75.2866C50.3638 75.5997 50.6016 75.853 50.9066 75.9912C51.0696 76.0654 51.2465 76.1042 51.4255 76.1051C51.669 76.1046 51.9071 76.0338 52.1114 75.9014C52.3157 75.769 52.4774 75.5804 52.5773 75.3583C52.919 74.6116 53.286 73.8649 53.653 73.1308C53.749 72.9824 53.8128 72.8155 53.8403 72.6409C53.8678 72.4663 53.8585 72.2879 53.8128 72.1172C53.7672 71.9464 53.6863 71.7871 53.5754 71.6495C53.4645 71.5119 53.326 71.3991 53.1688 71.3183C53.0116 71.2375 52.8392 71.1905 52.6628 71.1803C52.4863 71.1702 52.3097 71.1971 52.1443 71.2593C51.9789 71.3216 51.8283 71.4178 51.7024 71.5418C51.5764 71.6657 51.4778 71.8147 51.4129 71.9791Z" fill="white"/>
<path d="M48.2486 110.96C48.3495 110.972 48.4514 110.972 48.5523 110.96C48.8778 110.88 49.1579 110.673 49.3311 110.386C49.5043 110.099 49.5565 109.754 49.4762 109.429C49.2737 108.619 49.0965 107.809 48.932 106.999C48.8677 106.67 48.6757 106.38 48.3982 106.193C48.1206 106.006 47.7801 105.936 47.4512 105.999C47.2872 106.031 47.1311 106.095 46.9919 106.187C46.8527 106.28 46.7332 106.399 46.6402 106.537C46.5473 106.676 46.4827 106.832 46.4503 106.996C46.4179 107.16 46.4183 107.329 46.4514 107.492C46.6286 108.34 46.8058 109.188 47.0209 110.024C47.0935 110.293 47.2533 110.532 47.4754 110.701C47.6974 110.87 47.9693 110.962 48.2486 110.96Z" fill="white"/>
<path d="M51.3369 115.314C51.2779 115.159 51.1889 115.016 51.0749 114.895C50.9609 114.774 50.8242 114.677 50.6726 114.609C50.521 114.541 50.3574 114.503 50.1913 114.498C50.0251 114.493 49.8596 114.521 49.7042 114.58C49.5488 114.639 49.4065 114.728 49.2855 114.842C49.1645 114.956 49.0672 115.093 48.999 115.244C48.9308 115.396 48.8932 115.559 48.8883 115.726C48.8833 115.892 48.9111 116.057 48.9702 116.213C49.2739 117.056 49.603 117.866 49.9574 118.643C50.0553 118.867 50.2162 119.058 50.4207 119.193C50.6251 119.328 50.8642 119.4 51.1091 119.402C51.2842 119.402 51.4571 119.363 51.6153 119.288C51.9217 119.155 52.1628 118.905 52.2861 118.595C52.4094 118.284 52.4049 117.937 52.2734 117.63C51.9064 116.871 51.628 116.099 51.3369 115.314Z" fill="white"/>
<path d="M45.9451 89.2928C45.8186 90.1534 45.7173 91.0141 45.6414 91.8873C45.6276 92.0566 45.6481 92.227 45.7015 92.3882C45.755 92.5495 45.8403 92.6983 45.9525 92.8259C46.0647 92.9534 46.2015 93.0571 46.3546 93.1307C46.5077 93.2043 46.674 93.2463 46.8437 93.2542H46.9576C47.2745 93.2555 47.5802 93.1379 47.8146 92.9247C48.0489 92.7114 48.1947 92.418 48.2233 92.1025C48.2992 91.2672 48.4004 90.4445 48.5143 89.5712C48.5575 89.239 48.4671 88.9033 48.2631 88.6375C48.059 88.3718 47.758 88.1979 47.4259 88.1537C47.2528 88.1232 47.0753 88.1291 46.9046 88.171C46.7339 88.2129 46.5738 88.2898 46.4345 88.397C46.2952 88.5041 46.1798 88.6391 46.0955 88.7934C46.0112 88.9476 45.96 89.1177 45.9451 89.2928Z" fill="white"/>
<path d="M49.5267 79.5727C49.2078 79.4733 48.8625 79.504 48.5662 79.6581C48.2698 79.8122 48.0464 80.0772 47.9446 80.3954C47.6746 81.2391 47.4342 82.0829 47.2232 82.9266C47.1453 83.2452 47.1942 83.5816 47.3594 83.8649C47.5247 84.1483 47.7935 84.3564 48.1092 84.4454C48.2139 84.4636 48.3209 84.4636 48.4256 84.4454C48.713 84.4545 48.9949 84.3654 49.225 84.1929C49.455 84.0203 49.6195 83.7746 49.6912 83.4961C49.9064 82.6988 50.1342 81.9015 50.3873 81.1041C50.4699 80.7871 50.4264 80.4504 50.2659 80.1648C50.1054 79.8792 49.8404 79.6669 49.5267 79.5727Z" fill="white"/>
<path d="M123.313 143.386C123.019 143.542 122.799 143.807 122.699 144.125C122.6 144.442 122.629 144.786 122.781 145.082C122.887 145.292 123.05 145.469 123.251 145.592C123.453 145.715 123.684 145.779 123.92 145.778C124.115 145.781 124.307 145.733 124.477 145.638C125.262 145.246 126.034 144.841 126.78 144.373C127.072 144.205 127.286 143.928 127.374 143.603C127.461 143.278 127.417 142.931 127.249 142.639C127.081 142.347 126.804 142.133 126.479 142.046C126.154 141.958 125.807 142.003 125.515 142.171C124.781 142.614 124.047 143.031 123.313 143.386Z" fill="white"/>
<path d="M115.188 146.613C114.852 146.662 114.549 146.842 114.346 147.113C114.144 147.385 114.057 147.726 114.106 148.062C114.154 148.398 114.334 148.7 114.606 148.903C114.878 149.106 115.219 149.193 115.555 149.144C115.68 149.143 115.803 149.121 115.922 149.081C116.757 148.828 117.592 148.562 118.453 148.258C118.759 148.138 119.007 147.902 119.142 147.602C119.278 147.301 119.291 146.96 119.179 146.65C119.067 146.341 118.839 146.087 118.542 145.943C118.246 145.799 117.905 145.776 117.592 145.879C116.82 146.107 116.036 146.373 115.188 146.613Z" fill="white"/>
<path d="M96.7349 150.068C96.7349 150.404 96.8682 150.726 97.1056 150.963C97.3429 151.2 97.6648 151.334 98.0005 151.334C98.6713 151.334 99.3547 151.334 100.038 151.334H100.595C100.931 151.334 101.253 151.2 101.49 150.963C101.727 150.726 101.861 150.404 101.861 150.068C101.861 149.732 101.727 149.411 101.49 149.173C101.253 148.936 100.931 148.803 100.595 148.803H100H98.0511C97.8807 148.796 97.7107 148.823 97.5512 148.884C97.3918 148.944 97.2462 149.037 97.1233 149.155C97.0003 149.273 96.9026 149.415 96.8358 149.572C96.7691 149.729 96.7347 149.898 96.7349 150.068Z" fill="white"/>
<path d="M61.3477 61.3984C61.5182 61.3977 61.6868 61.3626 61.8434 61.2952C62 61.2278 62.1413 61.1294 62.259 61.006C62.8285 60.3985 63.4233 59.8163 64.0182 59.2468C64.2615 59.0152 64.4029 58.6964 64.4112 58.3605C64.4195 58.0247 64.2941 57.6993 64.0625 57.4559C63.8309 57.2126 63.5121 57.0712 63.1762 57.0629C62.8404 57.0546 62.515 57.18 62.2716 57.4116C61.6388 58.0191 61.006 58.6773 60.4238 59.2595C60.2524 59.4392 60.1377 59.6655 60.094 59.9101C60.0503 60.1546 60.0795 60.4066 60.178 60.6346C60.2765 60.8627 60.4399 61.0567 60.6479 61.1925C60.8559 61.3283 61.0993 61.3999 61.3477 61.3984Z" fill="white"/>
<path d="M83.4203 146.183C82.6356 145.93 81.851 145.638 81.0916 145.347C80.9354 145.278 80.7669 145.241 80.5961 145.239C80.4253 145.237 80.2558 145.269 80.0977 145.334C79.9397 145.399 79.7965 145.495 79.6767 145.617C79.5568 145.738 79.4629 145.883 79.4005 146.042C79.3381 146.201 79.3085 146.371 79.3135 146.542C79.3186 146.713 79.3581 146.88 79.4298 147.036C79.5015 147.191 79.6038 147.329 79.7306 147.444C79.8574 147.558 80.0061 147.646 80.1677 147.701C80.9777 148.018 81.7877 148.309 82.623 148.587C82.7526 148.612 82.8857 148.612 83.0153 148.587C83.351 148.641 83.6942 148.559 83.9696 148.36C84.2449 148.161 84.4298 147.86 84.4835 147.524C84.5372 147.189 84.4553 146.845 84.256 146.57C84.0566 146.295 83.756 146.11 83.4203 146.056V146.183Z" fill="white"/>
<path d="M56.2347 64.2461C55.7115 64.938 55.2053 65.6467 54.7159 66.3724C54.5315 66.6499 54.464 66.9889 54.5279 67.3158C54.5919 67.6428 54.7823 67.9314 55.0576 68.1189C55.1955 68.2122 55.3504 68.2774 55.5135 68.3107C55.6767 68.344 55.8447 68.3448 56.0081 68.313C56.1716 68.2813 56.3271 68.2176 56.4659 68.1257C56.6046 68.0337 56.7239 67.9153 56.8169 67.7772C57.2851 67.0938 57.7661 66.423 58.2597 65.7522C58.3743 65.6207 58.4605 65.4669 58.5128 65.3005C58.5652 65.1341 58.5826 64.9587 58.5639 64.7852C58.5452 64.6118 58.4909 64.4441 58.4043 64.2926C58.3178 64.1411 58.2008 64.0092 58.0609 63.9051C57.9209 63.801 57.7609 63.727 57.5909 63.6876C57.421 63.6483 57.2447 63.6445 57.0732 63.6765C56.9018 63.7086 56.7387 63.7757 56.5944 63.8737C56.4501 63.9717 56.3276 64.0985 56.2347 64.2461Z" fill="white"/>
<path d="M58.2343 131.894C58.7911 132.565 59.3733 133.159 59.9555 133.855C60.075 133.984 60.2199 134.087 60.3812 134.157C60.5424 134.226 60.7164 134.262 60.8921 134.26C61.2074 134.256 61.5098 134.134 61.74 133.919C61.9861 133.692 62.1323 133.377 62.1465 133.042C62.1607 132.708 62.0419 132.381 61.816 132.134C61.2591 131.527 60.7022 130.869 60.1707 130.274C60.069 130.133 59.9393 130.014 59.7898 129.925C59.6402 129.837 59.474 129.78 59.3015 129.758C59.129 129.736 58.9538 129.751 58.787 129.8C58.6202 129.849 58.4653 129.932 58.3319 130.043C58.1986 130.155 58.0896 130.293 58.0119 130.448C57.9342 130.604 57.8893 130.774 57.8802 130.947C57.871 131.121 57.8977 131.294 57.9586 131.457C58.0196 131.62 58.1134 131.769 58.2343 131.894Z" fill="white"/>
<path d="M105.645 149.866C105.685 150.172 105.836 150.453 106.069 150.656C106.302 150.859 106.601 150.969 106.91 150.967H107.075C107.935 150.853 108.796 150.714 109.606 150.562C109.942 150.503 110.24 150.313 110.436 150.034C110.632 149.756 110.709 149.41 110.65 149.075C110.591 148.739 110.402 148.44 110.123 148.245C109.844 148.049 109.499 147.972 109.163 148.03C108.34 148.182 107.53 148.309 106.632 148.41C106.311 148.477 106.028 148.667 105.844 148.938C105.66 149.21 105.588 149.542 105.645 149.866Z" fill="white"/>
<path d="M67.9922 55.4753C68.266 55.4753 68.5325 55.3865 68.7516 55.2222C69.4223 54.7286 70.0931 54.2476 70.7766 53.7793C70.9145 53.6863 71.0328 53.5669 71.1246 53.4282C71.2164 53.2894 71.28 53.1339 71.3118 52.9705C71.3435 52.8072 71.3427 52.6391 71.3096 52.4761C71.2764 52.313 71.2114 52.1581 71.1183 52.0201C71.0252 51.8822 70.9059 51.7639 70.7671 51.6721C70.6283 51.5802 70.4728 51.5167 70.3095 51.4849C70.1461 51.4532 69.9781 51.4539 69.815 51.4871C69.6519 51.5203 69.497 51.5853 69.3591 51.6784C68.6419 52.1762 67.9331 52.6825 67.2328 53.1972C66.9643 53.3986 66.7868 53.6984 66.7393 54.0307C66.6918 54.363 66.7783 54.7005 66.9797 54.969C67.0976 55.1262 67.2504 55.2538 67.4262 55.3417C67.6019 55.4295 67.7957 55.4753 67.9922 55.4753Z" fill="white"/>
<path d="M75.9529 144.449C76.1099 144.153 76.1434 143.807 76.0462 143.487C75.9489 143.167 75.7288 142.898 75.434 142.74C74.7 142.348 73.9912 141.943 73.2825 141.474C73.1393 141.37 72.9758 141.297 72.8026 141.26C72.6294 141.223 72.4504 141.223 72.2771 141.26C72.1038 141.296 71.9401 141.369 71.7966 141.472C71.6531 141.576 71.533 141.709 71.4439 141.862C71.3549 142.015 71.299 142.185 71.2799 142.361C71.2607 142.537 71.2787 142.715 71.3327 142.884C71.3867 143.053 71.4755 143.208 71.5934 143.34C71.7112 143.472 71.8555 143.578 72.0169 143.651C72.7509 144.094 73.5103 144.525 74.2823 144.917C74.568 145.066 74.9 145.101 75.2105 145.014C75.521 144.927 75.7865 144.725 75.9529 144.449Z" fill="white"/>
<path d="M75.5354 50.7418C75.7393 50.7425 75.94 50.6902 76.1176 50.59C76.8517 50.2103 77.5984 49.8559 78.3578 49.5015C78.6632 49.3622 78.9008 49.1073 79.0183 48.7928C79.1358 48.4783 79.1235 48.13 78.9842 47.8246C78.8449 47.5191 78.59 47.2815 78.2755 47.164C77.961 47.0465 77.6127 47.0588 77.3073 47.1981C76.5099 47.5651 75.7252 47.9448 74.9532 48.3498C74.7 48.4795 74.4979 48.6908 74.3795 48.9494C74.2611 49.2081 74.2333 49.4991 74.3005 49.7755C74.3678 50.0519 74.5263 50.2976 74.7503 50.473C74.9743 50.6483 75.2509 50.743 75.5354 50.7418Z" fill="white"/>
<path d="M134.475 137.513C134.371 137.383 134.242 137.275 134.096 137.195C133.949 137.115 133.788 137.065 133.623 137.047C133.457 137.029 133.289 137.045 133.129 137.092C132.969 137.14 132.82 137.218 132.691 137.323C132.045 137.842 131.425 138.348 130.729 138.842C130.594 138.94 130.48 139.063 130.393 139.205C130.306 139.348 130.248 139.505 130.222 139.67C130.196 139.835 130.203 140.003 130.242 140.165C130.281 140.327 130.352 140.479 130.451 140.614C130.55 140.748 130.674 140.861 130.816 140.947C130.959 141.033 131.117 141.09 131.282 141.114C131.446 141.139 131.614 141.131 131.775 141.091C131.937 141.05 132.089 140.979 132.223 140.88C132.919 140.373 133.615 139.842 134.286 139.285C134.544 139.074 134.71 138.77 134.745 138.438C134.781 138.106 134.684 137.774 134.475 137.513Z" fill="white"/>
<path d="M113.656 46.616C114.479 46.8438 115.289 47.0843 116.099 47.3501C116.226 47.3895 116.358 47.4108 116.491 47.4133C116.827 47.4654 117.17 47.3819 117.444 47.1814C117.718 46.9808 117.901 46.6796 117.953 46.3439C118.005 46.0082 117.922 45.6656 117.721 45.3915C117.521 45.1174 117.219 44.9341 116.884 44.8821C116.036 44.6163 115.175 44.3632 114.352 44.1227C114.19 44.0729 114.019 44.0564 113.85 44.074C113.681 44.0916 113.518 44.143 113.369 44.2252C113.22 44.3074 113.09 44.4186 112.985 44.5523C112.88 44.6861 112.804 44.8395 112.759 45.0035C112.715 45.1675 112.704 45.3387 112.728 45.507C112.751 45.6752 112.808 45.837 112.895 45.9828C112.983 46.1285 113.098 46.2552 113.236 46.3553C113.373 46.4554 113.529 46.5268 113.694 46.5654L113.656 46.616Z" fill="white"/>
<path d="M152.536 82.0029C152.498 81.8355 152.425 81.6776 152.324 81.539C152.222 81.4004 152.094 81.2839 151.946 81.1966C151.798 81.1094 151.633 81.0532 151.463 81.0314C151.292 81.0097 151.119 81.0229 150.954 81.0702C150.789 81.1175 150.635 81.1979 150.502 81.3066C150.369 81.4153 150.26 81.55 150.18 81.7024C150.101 81.8548 150.053 82.0217 150.041 82.1931C150.028 82.3644 150.05 82.5366 150.106 82.699C150.334 83.509 150.536 84.3317 150.726 85.2303C150.791 85.5158 150.952 85.7702 151.183 85.9501C151.413 86.1301 151.699 86.2246 151.992 86.2174C152.084 86.2298 152.178 86.2298 152.27 86.2174C152.432 86.1801 152.586 86.1113 152.721 86.0147C152.856 85.9182 152.972 85.7959 153.06 85.6548C153.148 85.5138 153.207 85.3567 153.235 85.1927C153.262 85.0286 153.257 84.8607 153.22 84.6987C153.004 83.7242 152.777 82.8635 152.536 82.0029Z" fill="white"/>
<path d="M131.805 55.703C132.026 55.8745 132.298 55.9679 132.577 55.9688C132.842 55.9706 133.1 55.8895 133.316 55.7368C133.533 55.5841 133.695 55.3675 133.782 55.1174C133.869 54.8674 133.875 54.5965 133.799 54.3429C133.724 54.0892 133.571 53.8656 133.362 53.7033C132.653 53.1591 131.932 52.6276 131.198 52.1213C131.062 52.0161 130.906 51.9396 130.74 51.8965C130.574 51.8534 130.401 51.8445 130.231 51.8705C130.061 51.8965 129.898 51.9568 129.753 52.0477C129.607 52.1386 129.481 52.2582 129.383 52.3992C129.285 52.5402 129.217 52.6997 129.182 52.868C129.148 53.0362 129.148 53.2097 129.183 53.3779C129.218 53.5461 129.286 53.7054 129.385 53.8462C129.483 53.987 129.609 54.1064 129.755 54.1969C130.451 54.6272 131.134 55.1335 131.805 55.703Z" fill="white"/>
<path d="M153.27 99.2154C152.937 99.1945 152.608 99.3066 152.357 99.5271C152.105 99.7477 151.952 100.059 151.929 100.392C151.929 101.24 151.79 102.088 151.688 102.924C151.669 103.089 151.682 103.257 151.728 103.417C151.773 103.577 151.85 103.727 151.954 103.857C152.057 103.988 152.185 104.097 152.331 104.177C152.476 104.258 152.637 104.31 152.802 104.328H152.941C153.252 104.331 153.553 104.218 153.787 104.013C154.02 103.808 154.17 103.523 154.207 103.215C154.308 102.329 154.384 101.443 154.447 100.544C154.465 100.213 154.351 99.8874 154.131 99.6388C153.911 99.3902 153.602 99.2381 153.27 99.2154Z" fill="white"/>
<path d="M154.283 91.204C154.266 91.0378 154.217 90.8765 154.138 90.7293C154.059 90.5821 153.952 90.4519 153.822 90.3461C153.693 90.2403 153.544 90.1611 153.384 90.1128C153.225 90.0646 153.057 90.0483 152.89 90.0649C152.724 90.0815 152.563 90.1307 152.416 90.2097C152.269 90.2886 152.138 90.3958 152.033 90.5251C151.927 90.6544 151.848 90.8032 151.799 90.9631C151.751 91.123 151.735 91.2909 151.751 91.4571C151.827 92.3051 151.903 93.153 151.941 93.9883C151.941 94.324 152.075 94.6459 152.312 94.8833C152.549 95.1206 152.871 95.254 153.207 95.254C153.379 95.2542 153.548 95.2195 153.706 95.1519C153.864 95.0844 154.007 94.9855 154.125 94.8612C154.243 94.7369 154.335 94.5898 154.395 94.4289C154.455 94.2679 154.481 94.0965 154.473 93.9251C154.422 92.9758 154.422 92.0899 154.283 91.204Z" fill="white"/>
<path d="M122.035 49.6914C122.794 50.0458 123.566 50.4255 124.313 50.8178C124.492 50.9145 124.692 50.9666 124.895 50.9697C125.176 50.9683 125.449 50.8733 125.67 50.6997C125.891 50.5262 126.048 50.2838 126.117 50.0111C126.185 49.7383 126.16 49.4505 126.047 49.1933C125.933 48.936 125.737 48.7239 125.49 48.5903C124.705 48.1727 123.908 47.7677 123.098 47.388C122.792 47.247 122.443 47.2331 122.128 47.3495C121.812 47.4658 121.556 47.7027 121.415 48.0081C121.274 48.3136 121.26 48.6625 121.376 48.9782C121.492 49.2939 121.729 49.5504 122.035 49.6914Z" fill="white"/>
<path d="M149.22 73.2447C149.075 72.9432 148.817 72.7114 148.501 72.5999C148.186 72.4884 147.839 72.5064 147.537 72.6498C147.386 72.7216 147.251 72.8225 147.139 72.9468C147.028 73.0711 146.942 73.2162 146.886 73.3739C146.831 73.5316 146.807 73.6986 146.817 73.8654C146.827 74.0322 146.869 74.1955 146.942 74.3458C147.309 75.1052 147.664 75.8898 147.993 76.6745C148.089 76.9033 148.252 77.0985 148.459 77.2358C148.666 77.3731 148.909 77.4464 149.157 77.4466C149.326 77.4434 149.494 77.4091 149.651 77.3453C149.959 77.2142 150.203 76.966 150.329 76.6551C150.455 76.3442 150.452 75.9962 150.321 75.6873C149.98 74.8647 149.613 74.0547 149.22 73.2447Z" fill="white"/>
<path d="M142.398 66.6507C142.892 67.3468 143.373 68.0555 143.829 68.7643C143.943 68.9425 144.1 69.0892 144.286 69.1909C144.472 69.2926 144.68 69.3461 144.892 69.3464C145.12 69.3484 145.344 69.2886 145.541 69.1735C145.738 69.0583 145.9 68.8921 146.01 68.6925C146.121 68.4928 146.175 68.267 146.167 68.039C146.16 67.8111 146.091 67.5894 145.967 67.3974C145.474 66.6507 144.98 65.9039 144.461 65.1825C144.364 65.0466 144.242 64.9313 144.1 64.843C143.958 64.7548 143.801 64.6954 143.636 64.6684C143.471 64.6413 143.303 64.6471 143.14 64.6854C142.978 64.7237 142.825 64.7937 142.69 64.8914C142.419 65.0869 142.236 65.3816 142.182 65.7111C142.127 66.0406 142.205 66.3784 142.398 66.6507Z" fill="white"/>
<path d="M138.386 61.7021C138.504 61.8294 138.647 61.931 138.806 62.0006C138.965 62.0703 139.137 62.1066 139.31 62.1071C139.628 62.1095 139.936 61.992 140.171 61.778C140.295 61.6655 140.395 61.5295 140.466 61.378C140.536 61.2265 140.577 61.0624 140.584 60.8953C140.591 60.7282 140.565 60.5613 140.507 60.4044C140.449 60.2474 140.361 60.1035 140.247 59.9809C139.639 59.3227 138.981 58.7152 138.386 58.0571C138.272 57.9255 138.132 57.8189 137.974 57.7441C137.816 57.6693 137.645 57.6279 137.471 57.6224C137.297 57.617 137.123 57.6476 136.961 57.7124C136.799 57.7772 136.652 57.8747 136.53 57.9989C136.407 58.1231 136.312 58.2712 136.25 58.4341C136.187 58.5969 136.159 58.7708 136.167 58.9451C136.175 59.1193 136.219 59.29 136.296 59.4464C136.373 59.6029 136.481 59.7418 136.614 59.8543C137.209 60.4491 137.804 61.0693 138.386 61.7021Z" fill="white"/>
<path d="M70.1819 121.275C71.2566 121.272 72.3183 121.039 73.2953 120.592L73.4725 120.807C73.5908 120.938 73.7353 121.043 73.8966 121.115C74.0579 121.187 74.2325 121.224 74.4091 121.224C74.7227 121.224 75.0249 121.106 75.257 120.895C75.4904 120.68 75.6342 120.385 75.66 120.068C75.6858 119.752 75.5916 119.437 75.3963 119.187C76.6395 118.025 77.4565 116.479 77.7162 114.798C77.9759 113.116 77.6634 111.396 76.8286 109.913C75.9938 108.43 74.6852 107.271 73.1127 106.621C71.5403 105.971 69.795 105.868 68.1569 106.328C68.0245 106.045 67.7918 105.82 67.5036 105.698C67.2154 105.576 66.8923 105.565 66.5966 105.667C66.3008 105.77 66.0534 105.978 65.9022 106.252C65.7509 106.526 65.7065 106.846 65.7775 107.151C65.7775 107.239 65.7775 107.315 65.8661 107.404C64.5432 108.327 63.5487 109.648 63.0269 111.175C62.505 112.701 62.483 114.354 62.9638 115.894C63.4447 117.434 64.4036 118.781 65.7014 119.739C66.9992 120.698 68.5686 121.218 70.1819 121.224V121.275ZM70.1819 108.619C71.1832 108.619 72.1619 108.916 72.9945 109.472C73.827 110.028 74.4759 110.819 74.859 111.744C75.2422 112.669 75.3424 113.687 75.1471 114.669C74.9518 115.651 74.4696 116.553 73.7616 117.261C73.0536 117.969 72.1516 118.451 71.1695 118.647C70.1875 118.842 69.1696 118.742 68.2446 118.358C67.3195 117.975 66.5288 117.326 65.9726 116.494C65.4163 115.661 65.1194 114.683 65.1194 113.681C65.1227 112.341 65.6576 111.056 66.6066 110.11C67.5557 109.163 68.8414 108.631 70.1819 108.631V108.619Z" fill="white"/>
<path d="M126.793 119.807C126.982 119.808 127.169 119.766 127.34 119.685C127.511 119.604 127.661 119.486 127.78 119.339C128.337 118.668 128.869 117.959 129.362 117.251C129.56 116.983 129.644 116.648 129.596 116.319C129.549 115.99 129.374 115.692 129.109 115.491C128.835 115.299 128.496 115.223 128.167 115.28C127.837 115.337 127.543 115.522 127.35 115.795C126.882 116.466 126.388 117.061 125.882 117.744C125.777 117.874 125.698 118.023 125.651 118.182C125.603 118.342 125.588 118.51 125.606 118.676C125.623 118.842 125.674 119.002 125.754 119.149C125.834 119.295 125.942 119.424 126.072 119.529C126.277 119.694 126.529 119.792 126.793 119.807Z" fill="white"/>
<path d="M112.289 65.9674C113.049 66.2711 113.795 66.6002 114.529 66.9546C114.699 67.0368 114.885 67.08 115.074 67.0811C115.36 67.0823 115.639 66.986 115.864 66.8079C116.089 66.6298 116.247 66.3806 116.312 66.1011C116.376 65.8215 116.344 65.5283 116.22 65.2695C116.097 65.0106 115.889 64.8015 115.63 64.6765C114.858 64.2968 114.048 63.9424 113.238 63.6133C112.926 63.4875 112.577 63.4907 112.267 63.6225C111.957 63.7542 111.713 64.0036 111.587 64.3157C111.461 64.6279 111.464 64.9773 111.596 65.287C111.728 65.5968 111.977 65.8415 112.289 65.9674Z" fill="white"/>
<path d="M81.8255 124.642C81.1421 124.199 80.4713 123.73 79.8385 123.237C79.7022 123.135 79.5472 123.062 79.3825 123.02C79.2178 122.979 79.0466 122.97 78.8785 122.995C78.7104 123.02 78.5489 123.077 78.4031 123.164C78.2572 123.251 78.13 123.366 78.0286 123.503C77.9272 123.639 77.8537 123.794 77.8122 123.959C77.7707 124.123 77.762 124.295 77.7867 124.463C77.8114 124.631 77.8689 124.792 77.956 124.938C78.0431 125.084 78.1581 125.211 78.2944 125.312C78.9905 125.844 79.7119 126.35 80.4333 126.831C80.7153 127.016 81.059 127.081 81.3889 127.012C81.7188 126.943 82.0079 126.746 82.1925 126.464C82.3771 126.182 82.4422 125.839 82.3734 125.509C82.3045 125.179 82.1074 124.89 81.8255 124.705V124.642Z" fill="white"/>
<path d="M125.882 75.9532C126.388 76.586 126.882 77.2188 127.337 77.9149C127.455 78.0844 127.612 78.2225 127.795 78.3173C127.978 78.4122 128.182 78.4609 128.388 78.4592C128.646 78.4585 128.898 78.3791 129.109 78.2313C129.384 78.0397 129.572 77.7469 129.631 77.4171C129.69 77.0874 129.617 76.7475 129.426 76.4721C128.932 75.7634 128.401 75.0546 127.856 74.3712C127.752 74.2412 127.623 74.1331 127.476 74.0531C127.33 73.9732 127.169 73.9229 127.004 73.9053C126.838 73.8877 126.67 73.903 126.51 73.9503C126.35 73.9977 126.201 74.0762 126.072 74.1813C125.813 74.392 125.648 74.6964 125.612 75.0282C125.577 75.3601 125.674 75.6925 125.882 75.9532Z" fill="white"/>
<path d="M89.4827 128.363C88.7233 128.11 87.9513 127.819 87.2045 127.502C86.8941 127.373 86.5449 127.372 86.234 127.5C85.9231 127.629 85.6758 127.875 85.5466 128.186C85.4173 128.496 85.4167 128.845 85.5449 129.156C85.6731 129.467 85.9195 129.714 86.23 129.844C87.0274 130.173 87.8627 130.489 88.6853 130.767C88.8197 130.786 88.9559 130.786 89.0903 130.767C89.426 130.819 89.7686 130.736 90.0427 130.535C90.3169 130.335 90.5001 130.034 90.5521 129.698C90.6041 129.362 90.5207 129.02 90.3201 128.746C90.1196 128.471 89.8183 128.288 89.4827 128.236V128.363Z" fill="white"/>
<path d="M121.642 71.6246C121.87 71.8252 122.162 71.9375 122.465 71.941C122.724 71.941 122.976 71.8617 123.188 71.7139C123.401 71.566 123.563 71.3566 123.652 71.1138C123.742 70.8711 123.755 70.6068 123.69 70.3564C123.625 70.106 123.484 69.8817 123.288 69.7135C122.629 69.144 121.933 68.5871 121.237 68.0682C121.104 67.9691 120.952 67.8974 120.79 67.8572C120.629 67.8169 120.461 67.8089 120.296 67.8336C120.132 67.8583 119.974 67.9152 119.831 68.001C119.688 68.0869 119.564 68.2 119.465 68.334C119.366 68.4677 119.295 68.6197 119.254 68.7811C119.214 68.9426 119.206 69.1105 119.231 69.275C119.255 69.4396 119.312 69.5977 119.398 69.7403C119.484 69.8828 119.597 70.0071 119.731 70.1059C120.389 70.5868 121.022 71.1057 121.642 71.6246Z" fill="white"/>
<path d="M120.402 125.92C120.672 125.917 120.933 125.829 121.149 125.667C121.857 125.148 122.541 124.604 123.212 124.034C123.338 123.923 123.441 123.788 123.515 123.636C123.589 123.485 123.633 123.321 123.643 123.153C123.654 122.985 123.631 122.816 123.577 122.657C123.522 122.498 123.437 122.351 123.326 122.224C123.214 122.098 123.079 121.995 122.928 121.921C122.777 121.847 122.612 121.803 122.444 121.793C122.276 121.782 122.108 121.805 121.948 121.859C121.789 121.914 121.642 121.999 121.516 122.11C120.896 122.642 120.25 123.148 119.605 123.629C119.47 123.727 119.355 123.851 119.268 123.993C119.181 124.135 119.123 124.293 119.097 124.457C119.072 124.622 119.078 124.79 119.118 124.952C119.157 125.114 119.228 125.267 119.326 125.401C119.449 125.569 119.611 125.705 119.799 125.795C119.987 125.886 120.194 125.929 120.402 125.92Z" fill="white"/>
<path d="M116.124 127.363C116.052 127.212 115.952 127.077 115.827 126.965C115.703 126.853 115.558 126.768 115.4 126.712C115.243 126.657 115.075 126.633 114.909 126.643C114.742 126.653 114.579 126.695 114.428 126.768C113.707 127.122 112.948 127.452 112.188 127.755C111.914 127.864 111.686 128.064 111.544 128.323C111.402 128.581 111.355 128.881 111.41 129.171C111.466 129.46 111.621 129.721 111.848 129.909C112.076 130.096 112.362 130.199 112.656 130.198C112.816 130.193 112.974 130.163 113.125 130.109C113.935 129.78 114.745 129.426 115.529 129.046C115.831 128.901 116.063 128.643 116.174 128.327C116.286 128.012 116.268 127.665 116.124 127.363Z" fill="white"/>
<path d="M131.248 85.534C131.337 85.7786 131.498 85.99 131.711 86.1395C131.924 86.2889 132.178 86.3692 132.438 86.3693C132.585 86.3691 132.73 86.3434 132.868 86.2933C133.184 86.1791 133.441 85.9443 133.583 85.6405C133.726 85.3368 133.741 84.9889 133.628 84.6733C133.336 83.8507 132.995 83.028 132.64 82.2307C132.579 82.0691 132.486 81.9217 132.365 81.7977C132.245 81.6736 132.101 81.5755 131.941 81.5093C131.782 81.4431 131.61 81.4104 131.437 81.413C131.265 81.4156 131.094 81.4536 130.937 81.5246C130.779 81.5955 130.638 81.698 130.521 81.8257C130.405 81.9533 130.316 82.1035 130.26 82.2669C130.204 82.4302 130.181 82.6034 130.195 82.7757C130.208 82.9479 130.256 83.1157 130.337 83.2685C130.666 84.0152 130.97 84.8126 131.248 85.534Z" fill="white"/>
<path d="M130.919 112.175C131.082 112.25 131.259 112.288 131.438 112.289C131.684 112.291 131.925 112.222 132.131 112.089C132.338 111.956 132.502 111.766 132.603 111.542C132.957 110.758 133.286 109.935 133.59 109.112C133.693 108.8 133.67 108.459 133.526 108.162C133.382 107.866 133.128 107.638 132.818 107.526C132.509 107.414 132.167 107.427 131.867 107.562C131.567 107.698 131.331 107.945 131.21 108.252C130.932 109.011 130.628 109.771 130.287 110.505C130.15 110.81 130.139 111.158 130.258 111.471C130.376 111.784 130.614 112.037 130.919 112.175Z" fill="white"/>
<path d="M135.26 102.772C135.399 101.924 135.513 101.051 135.602 100.241C135.617 100.074 135.6 99.9064 135.551 99.7468C135.501 99.5873 135.42 99.4391 135.313 99.3109C135.206 99.1826 135.075 99.0768 134.927 98.9996C134.779 98.9224 134.617 98.8753 134.45 98.861C134.118 98.8328 133.789 98.9366 133.533 99.1498C133.277 99.363 133.115 99.6685 133.083 100C133.007 100.81 132.893 101.633 132.767 102.417C132.733 102.736 132.821 103.056 133.014 103.312C133.207 103.568 133.489 103.741 133.805 103.797H134.02C134.313 103.796 134.598 103.694 134.824 103.507C135.05 103.32 135.204 103.06 135.26 102.772Z" fill="white"/>
<path d="M132.78 91.4317C132.919 92.229 133.02 93.039 133.083 93.849C133.112 94.1646 133.258 94.4579 133.492 94.6712C133.726 94.8844 134.032 95.002 134.349 95.0007H134.463C134.79 94.9717 135.093 94.8169 135.307 94.569C135.522 94.3211 135.632 93.9994 135.615 93.6718C135.539 92.7985 135.425 91.9253 135.286 91.0646C135.23 90.729 135.044 90.4291 134.767 90.2309C134.491 90.0327 134.147 89.9525 133.811 90.0078C133.476 90.0632 133.176 90.2497 132.977 90.5262C132.779 90.8027 132.699 91.1466 132.754 91.4823L132.78 91.4317Z" fill="white"/>
<path d="M65.7014 101.772H65.828C65.9946 101.754 66.1561 101.704 66.3031 101.624C66.4502 101.544 66.5798 101.435 66.6846 101.305C66.7894 101.174 66.8672 101.024 66.9135 100.863C66.9598 100.702 66.9737 100.533 66.9544 100.367C66.8658 99.5696 66.8152 98.7469 66.7898 97.9369C66.7781 97.6013 66.6335 97.284 66.3878 97.055C66.1422 96.8259 65.8156 96.7039 65.4799 96.7156C65.1443 96.7274 64.827 96.872 64.598 97.1176C64.3689 97.3633 64.2468 97.6899 64.2586 98.0255C64.2586 98.8988 64.3472 99.7721 64.4358 100.645C64.4702 100.956 64.6186 101.244 64.8523 101.452C65.086 101.66 65.3885 101.774 65.7014 101.772Z" fill="white"/>
<path d="M65.1318 88.9005C64.942 89.7358 64.7775 90.6091 64.6509 91.4318C64.6037 91.7622 64.689 92.0978 64.8881 92.3657C65.0872 92.6335 65.384 92.8119 65.714 92.8619H65.9039C66.211 92.8649 66.5087 92.7562 66.7416 92.5559C66.9744 92.3557 67.1265 92.0776 67.1695 91.7735C67.296 90.9761 67.4479 90.1661 67.6251 89.3814C67.6676 89.2173 67.6766 89.0463 67.6517 88.8786C67.6268 88.7109 67.5685 88.55 67.4802 88.4052C67.3919 88.2605 67.2754 88.135 67.1377 88.0362C67 87.9373 66.8438 87.8672 66.6784 87.8299C66.513 87.7926 66.3418 87.7888 66.175 87.819C66.0082 87.8491 65.8491 87.9124 65.7072 88.0052C65.5653 88.098 65.4435 88.2183 65.349 88.359C65.2545 88.4998 65.1893 88.6581 65.1571 88.8246L65.1318 88.9005Z" fill="white"/>
<path d="M69.4859 83.6734C69.8149 82.9267 70.1693 82.18 70.5363 81.4712C70.6174 81.1933 70.6008 80.8961 70.4892 80.629C70.3777 80.3619 70.178 80.1411 69.9233 80.0034C69.6687 79.8657 69.3746 79.8195 69.09 79.8724C68.8054 79.9253 68.5476 80.0742 68.3595 80.2942C67.9545 81.0662 67.5748 81.8636 67.233 82.6609C67.166 82.8137 67.1299 82.9783 67.1267 83.1452C67.1235 83.312 67.1534 83.4779 67.2145 83.6331C67.2757 83.7884 67.367 83.9301 67.4831 84.0499C67.5992 84.1698 67.7379 84.2655 67.8912 84.3315C68.0521 84.3966 68.2238 84.4309 68.3974 84.4328C68.6314 84.4194 68.857 84.3413 69.0492 84.2072C69.2413 84.0731 69.3925 83.8883 69.4859 83.6734Z" fill="white"/>
<path d="M80.5349 66.8406C79.8008 67.3216 79.0794 67.8278 78.3833 68.3594C78.1699 68.5194 78.0125 68.7428 77.9336 68.9976C77.8547 69.2523 77.8583 69.5256 77.9439 69.7782C78.0295 70.0308 78.1928 70.2499 78.4103 70.4042C78.6279 70.5586 78.8886 70.6402 79.1553 70.6375C79.4306 70.6339 79.6972 70.5406 79.9147 70.3717C80.5602 69.8781 81.1803 69.4099 81.9144 68.9669C82.1963 68.784 82.3941 68.4965 82.4641 68.1678C82.5341 67.839 82.4707 67.496 82.2877 67.214C82.1048 66.932 81.8174 66.7343 81.4886 66.6643C81.1599 66.5943 80.8168 66.6577 80.5349 66.8406Z" fill="white"/>
<path d="M95.5198 63.917C96.3298 63.8031 97.1398 63.7272 97.9498 63.6766C98.1161 63.6669 98.2789 63.6245 98.4288 63.5518C98.5786 63.479 98.7127 63.3774 98.8232 63.2528C98.9338 63.1282 99.0186 62.9829 99.0729 62.8254C99.1271 62.6679 99.1498 62.5013 99.1395 62.335C99.1168 62.0014 98.9629 61.6903 98.7115 61.4698C98.4601 61.2492 98.1317 61.1371 97.798 61.158C96.9247 61.158 96.0514 61.2845 95.1908 61.4111C94.8587 61.4552 94.5576 61.6292 94.3536 61.8949C94.1496 62.1606 94.0592 62.4964 94.1023 62.8286C94.1425 63.135 94.2934 63.4161 94.5265 63.619C94.7596 63.8218 95.0589 63.9323 95.368 63.9297L95.5198 63.917Z" fill="white"/>
<path d="M86.8247 66.2206C86.9891 66.2208 87.1521 66.1907 87.3057 66.132C88.0524 65.8156 88.8244 65.5371 89.5964 65.284C89.7546 65.2312 89.9007 65.1476 90.0265 65.0381C90.1522 64.9287 90.2551 64.7954 90.3292 64.646C90.4033 64.4967 90.4471 64.3342 90.4582 64.1678C90.4693 64.0015 90.4474 63.8345 90.3938 63.6767C90.287 63.3603 90.0594 63.0989 89.7607 62.9495C89.462 62.8002 89.1163 62.7749 88.7991 62.8793C87.9764 63.1451 87.1411 63.4615 86.3311 63.7906C86.0629 63.9048 85.8424 64.1082 85.7068 64.3662C85.5712 64.6243 85.5288 64.9212 85.5869 65.2069C85.6449 65.4926 85.7998 65.7495 86.0253 65.9342C86.2508 66.1188 86.5332 66.22 86.8247 66.2206Z" fill="white"/>
<path d="M106.328 129.451C105.531 129.603 104.721 129.729 103.911 129.831C103.745 129.85 103.585 129.901 103.44 129.982C103.294 130.063 103.166 130.171 103.062 130.302C102.959 130.432 102.882 130.582 102.837 130.742C102.791 130.902 102.778 131.07 102.797 131.236C102.834 131.544 102.984 131.828 103.218 132.034C103.451 132.239 103.752 132.352 104.063 132.349H104.215C105.075 132.235 105.949 132.109 106.809 131.944C107.145 131.881 107.441 131.686 107.634 131.404C107.826 131.121 107.898 130.774 107.834 130.438C107.771 130.103 107.576 129.806 107.294 129.614C107.011 129.421 106.664 129.349 106.328 129.413V129.451Z" fill="white"/>
<path d="M106.454 64.2461H106.695C107.031 64.2796 107.366 64.1785 107.627 63.9649C107.888 63.7513 108.054 63.4427 108.087 63.107C108.121 62.7713 108.02 62.4361 107.806 62.175C107.592 61.9139 107.284 61.7484 106.948 61.7148C106.087 61.5376 105.214 61.3984 104.417 61.2972C104.251 61.2772 104.082 61.2902 103.921 61.3354C103.76 61.3806 103.609 61.457 103.477 61.5605C103.346 61.6639 103.236 61.7922 103.154 61.9381C103.072 62.0841 103.019 62.2447 102.999 62.4109C102.979 62.5771 102.992 62.7456 103.038 62.9068C103.083 63.068 103.159 63.2187 103.263 63.3503C103.366 63.482 103.494 63.5919 103.64 63.674C103.786 63.756 103.947 63.8085 104.113 63.8284C104.847 63.955 105.657 64.0815 106.454 64.2461Z" fill="white"/>
<path d="M97.8487 129.995C97.0387 129.995 96.216 129.856 95.4187 129.742C95.083 129.697 94.7431 129.787 94.4737 129.992C94.2043 130.197 94.0275 130.501 93.9822 130.837C93.9369 131.173 94.0268 131.513 94.2321 131.782C94.4374 132.051 94.7413 132.228 95.077 132.273C95.9376 132.387 96.8109 132.476 97.6841 132.527H97.7601C98.0957 132.538 98.4223 132.416 98.668 132.187C98.9136 131.958 99.0583 131.641 99.07 131.305C99.0818 130.97 98.9597 130.643 98.7306 130.397C98.5016 130.152 98.1843 130.007 97.8487 129.995Z" fill="white"/>
<path d="M73.8397 76.3582C74.3459 75.7127 74.8775 75.0926 75.4217 74.4851C75.6238 74.2335 75.7221 73.9142 75.6965 73.5925C75.671 73.2708 75.5236 72.971 75.2843 72.7544C75.0451 72.5378 74.7322 72.4208 74.4096 72.4273C74.0869 72.4337 73.7789 72.5632 73.5486 72.7892C72.9664 73.422 72.3969 74.0548 71.8526 74.7888C71.6471 75.0527 71.5544 75.3872 71.5947 75.7192C71.635 76.0512 71.8051 76.3537 72.0678 76.5607C72.2905 76.7394 72.567 76.8375 72.8525 76.8392C73.0426 76.8383 73.23 76.7946 73.4009 76.7113C73.5719 76.6281 73.7218 76.5074 73.8397 76.3582Z" fill="white"/>
</svg>
