<svg width="200" height="200" viewBox="0 0 200 200" fill="none" xmlns="http://www.w3.org/2000/svg">
<path d="M35.291 65.6556C35.2571 65.8777 35.289 66.1049 35.3829 66.309C35.4768 66.5132 35.6285 66.6853 35.8193 66.804L54.5044 78.4262C54.6871 78.5395 54.898 78.5992 55.113 78.5985C55.3532 78.6018 55.5876 78.5251 55.7791 78.3803C55.9573 78.2526 56.0952 78.0767 56.1766 77.8732C56.258 77.6697 56.2795 77.4471 56.2385 77.2318L55.7332 75.1072L70.594 71.6619L70.9385 73.1434C70.9991 73.4003 71.1464 73.6285 71.3556 73.7896C71.5648 73.9507 71.8231 74.0347 72.087 74.0277H72.3511L75.004 73.4075C75.5326 74.6742 76.4933 75.7124 77.7153 76.3374C78.9373 76.9624 80.3413 77.1338 81.6778 76.821C83.0142 76.5083 84.1964 75.7317 85.0142 74.6293C85.8319 73.5269 86.2322 72.1703 86.1438 70.8006L90.06 69.8818L91.2084 74.6019L91.6104 76.5313L89.3135 77.6797C89.042 77.8133 88.8341 78.0488 88.7352 78.3348C88.6363 78.6208 88.6543 78.9343 88.7852 79.2071L90.6342 83.0544L66.8041 95.4805C66.5735 95.5986 66.3895 95.7913 66.2822 96.0272C66.1749 96.2631 66.1505 96.5284 66.2131 96.7799C66.2756 97.0314 66.4214 97.2543 66.6267 97.4125C66.832 97.5707 67.0848 97.6547 67.3439 97.651C67.5272 97.6489 67.7077 97.6057 67.8722 97.5247L91.6793 85.0986L93.2756 88.4061C93.3687 88.6016 93.5151 88.7667 93.698 88.8825C93.8809 88.9983 94.0928 89.0601 94.3092 89.0607C94.4717 89.06 94.6322 89.0247 94.7801 88.9574L102.027 85.7188V92.6094C102.027 92.914 102.148 93.2061 102.363 93.4215C102.578 93.6368 102.871 93.7578 103.175 93.7578H104.094L66.1955 164.146C66.0432 164.414 66.0036 164.731 66.0854 165.028C66.1673 165.326 66.3638 165.578 66.6319 165.73C66.8999 165.883 67.2175 165.922 67.5147 165.84C67.8119 165.759 68.0644 165.562 68.2167 165.294L80.8495 141.9L105.69 135.01L121.102 140.304L125.133 154.418C125.205 154.665 125.357 154.88 125.565 155.03C125.773 155.18 126.025 155.255 126.282 155.245C126.385 155.256 126.489 155.256 126.592 155.245C126.738 155.204 126.874 155.135 126.993 155.041C127.112 154.947 127.211 154.83 127.284 154.698C127.358 154.566 127.405 154.42 127.422 154.27C127.439 154.119 127.426 153.967 127.384 153.821L123.801 141.188L135.171 145.104L145.897 169.222C145.987 169.427 146.134 169.602 146.322 169.724C146.51 169.847 146.729 169.912 146.954 169.911C147.112 169.908 147.269 169.873 147.413 169.807C147.551 169.746 147.676 169.659 147.78 169.55C147.884 169.44 147.966 169.312 148.02 169.171C148.074 169.03 148.101 168.88 148.097 168.729C148.093 168.578 148.06 168.429 147.999 168.291L114.728 93.7578H115.176C115.481 93.7578 115.773 93.6368 115.988 93.4215C116.204 93.2061 116.325 92.914 116.325 92.6094V76.8643L125.455 74.7282C125.602 74.6944 125.741 74.6319 125.864 74.5443C125.987 74.4567 126.091 74.3457 126.171 74.2177C126.251 74.0897 126.305 73.9472 126.33 73.7983C126.355 73.6495 126.35 73.4972 126.316 73.3501L125.007 67.7572L129.486 66.7121L130.083 69.2732C130.151 69.5678 130.333 69.8236 130.588 69.9852C130.771 70.0985 130.982 70.1581 131.197 70.1574H131.461L162.836 62.75C162.985 62.7163 163.125 62.6534 163.249 62.565C163.373 62.4766 163.478 62.3646 163.558 62.2353C163.638 62.106 163.691 61.9621 163.716 61.8119C163.74 61.6617 163.734 61.5083 163.698 61.3604L156.359 30.031C156.288 29.7361 156.104 29.4812 155.845 29.3219C155.587 29.1627 155.277 29.1121 154.981 29.1812L123.617 36.5197C123.322 36.5906 123.067 36.7753 122.908 37.0335C122.749 37.2917 122.698 37.6025 122.768 37.8978L123.261 40.0224L90.8754 47.6021L90.1863 44.6392L114.361 38.9774C114.508 38.9435 114.647 38.881 114.77 38.7934C114.893 38.7058 114.997 38.5948 115.077 38.4668C115.157 38.3389 115.211 38.1963 115.236 38.0475C115.261 37.8986 115.256 37.7463 115.222 37.5992L113.442 30.031C113.408 29.8839 113.346 29.745 113.258 29.6221C113.171 29.4991 113.06 29.3947 112.932 29.3147C112.804 29.2347 112.661 29.1807 112.512 29.1558C112.363 29.131 112.211 29.1357 112.064 29.1697L70.2954 38.9429C70.0004 39.0138 69.7455 39.1985 69.5863 39.4567C69.4271 39.7149 69.3765 40.0257 69.4455 40.321L71.2141 47.8892C71.2725 48.1483 71.4188 48.3791 71.6282 48.5425C71.8376 48.7058 72.0971 48.7915 72.3626 48.785C72.4502 48.797 72.5391 48.797 72.6267 48.785L87.9584 45.2019L88.6474 48.1534L86.3505 48.7046C86.2035 48.7385 86.0645 48.801 85.9416 48.8886C85.8186 48.9762 85.7142 49.0872 85.6342 49.2151C85.5542 49.3431 85.5002 49.4856 85.4754 49.6345C85.4505 49.7834 85.4552 49.9357 85.4892 50.0828L86.0405 52.3796L68.2512 56.537C67.9562 56.6079 67.7013 56.7926 67.5421 57.0508C67.3829 57.309 67.3323 57.6197 67.4013 57.9151L67.7459 59.3966L52.8851 62.8419L52.6898 62.015C52.6189 61.7201 52.4342 61.4652 52.176 61.3059C51.9178 61.1467 51.6071 61.0961 51.3117 61.1652L50.703 61.303L47.1084 45.9943C47.0403 45.6997 46.8587 45.4439 46.6031 45.2823C46.4739 45.2028 46.3303 45.1497 46.1805 45.1261C46.0307 45.1024 45.8777 45.1087 45.7303 45.1445L37.6912 47.0164C37.5442 47.0503 37.4052 47.1128 37.2823 47.2004C37.1594 47.288 37.0549 47.399 36.9749 47.5269C36.8949 47.6549 36.8409 47.7974 36.8161 47.9463C36.7912 48.0952 36.7959 48.2475 36.8299 48.3946L40.4245 63.7262L36.1294 64.7253C35.9146 64.7826 35.7211 64.901 35.5722 65.0661C35.4234 65.2313 35.3257 65.436 35.291 65.6556ZM112.719 36.9446L89.6351 42.3423L88.3833 37.071L111.467 31.6733L112.719 36.9446ZM73.1895 46.1321L71.9377 40.9297L86.1553 37.5992L87.3956 42.9395L73.1895 46.1321ZM83.3072 72.9022C83.0013 73.3914 82.5796 73.7978 82.0793 74.0854C81.5791 74.3731 81.0158 74.5331 80.4391 74.5514C79.8624 74.5697 79.29 74.4457 78.7726 74.1904C78.2551 73.9351 77.8085 73.5562 77.4722 73.0874C77.1358 72.6186 76.9201 72.0741 76.844 71.5021C76.768 70.9302 76.8339 70.3483 77.0361 69.8078C77.2382 69.2674 77.5703 68.785 78.0031 68.4034C78.4358 68.0217 78.9559 67.7524 79.5173 67.6194C79.7799 67.5512 80.05 67.5165 80.3212 67.516C81.1171 67.5193 81.8889 67.7892 82.5135 68.2826C83.138 68.7759 83.5792 69.4643 83.7666 70.2378C83.8703 70.6902 83.8832 71.1587 83.8043 71.6161C83.7254 72.0735 83.5565 72.5107 83.3072 72.9022ZM112.937 91.461H104.324V88.9459H114.028V91.461H112.937ZM106.643 93.7578H107.792L116.256 123.456L105.116 132.644L82.2736 139.052L106.643 93.7578ZM107.93 133.299L116.91 125.914L120.241 137.582L107.93 133.299ZM133.747 142.176L122.882 138.444L110.146 93.7578H112.213L133.747 142.176ZM114.028 86.649H104.324V84.6507L106.391 83.7435C106.545 83.6732 106.681 83.5698 106.79 83.4408C106.899 83.3118 106.979 83.1602 107.022 82.997L108.171 78.7822L114.097 77.4041L114.028 86.649ZM123.824 72.7529L106.919 76.7035C106.716 76.751 106.529 76.8531 106.379 76.9988C106.229 77.1445 106.122 77.3283 106.069 77.5304L104.921 81.8715L94.9064 86.4078L93.2986 83.0659C93.2986 83.0659 93.2986 83.0659 93.2986 82.997L91.4955 79.2531L93.5512 78.2425C93.7825 78.1277 93.9684 77.9383 94.0788 77.705C94.1892 77.4716 94.2178 77.2078 94.1599 76.9562L93.735 75.1417L122.871 68.3314L123.824 72.7529ZM161.194 60.8206L156.509 61.9117L149.687 32.7758L154.384 31.6274L161.194 60.8206ZM123.767 42.2619L124.157 43.9501C124.191 44.1009 124.254 44.2436 124.343 44.3699C124.432 44.4963 124.546 44.6038 124.676 44.6865C124.807 44.7691 124.952 44.8252 125.105 44.8516C125.257 44.878 125.413 44.8741 125.564 44.8401C125.715 44.8062 125.857 44.7429 125.984 44.6538C126.11 44.5648 126.218 44.4517 126.3 44.3211C126.383 44.1904 126.439 44.0448 126.465 43.8925C126.492 43.7401 126.488 43.5841 126.454 43.4333L125.306 38.495L147.528 33.2926L154.338 62.4399L132.058 67.6309L131.461 65.0469L128.211 51.2656C128.123 50.9906 127.934 50.7591 127.682 50.6173C127.43 50.4754 127.134 50.4337 126.853 50.5003C126.572 50.567 126.326 50.7372 126.165 50.9769C126.004 51.2167 125.939 51.5084 125.983 51.7939L128.958 64.4727L93.1034 72.8563L87.9124 50.6455L123.767 42.2619ZM86.4884 54.6306L89.5087 67.539L85.5237 68.4922C85.0664 67.5111 84.3369 66.682 83.422 66.1035C82.7722 65.6952 82.048 65.4196 81.2912 65.2927C80.5343 65.1658 79.7598 65.1901 79.0124 65.3641C78.265 65.5382 77.5594 65.8586 76.9365 66.3067C76.3135 66.7549 75.7855 67.3221 75.383 67.9754C74.8056 68.8971 74.5066 69.9658 74.5216 71.0532L72.9138 71.4207L70.238 59.9938L69.8934 58.5123L86.4884 54.6306ZM68.2627 61.6016L70.0772 69.3191L55.2164 72.7644L53.4019 65.0469L68.2627 61.6016ZM39.368 48.9688L45.1102 47.6136L48.4406 61.8313L42.6984 63.1749L39.368 48.9688ZM50.7145 63.6573L53.3674 74.9924L39.3909 66.3332L50.7145 63.6573Z" fill="white"/>
</svg>
