<svg width="200" height="200" viewBox="0 0 200 200" fill="none" xmlns="http://www.w3.org/2000/svg">
<path d="M136.546 100.828C136.546 101.214 136.699 101.583 136.972 101.856C137.244 102.128 137.614 102.281 137.999 102.281C138.385 102.281 138.754 102.128 139.027 101.856C139.299 101.583 139.453 101.214 139.453 100.828C139.588 94.7967 138.335 88.8146 135.79 83.3444C133.246 77.8743 129.477 73.0625 124.776 69.281C124.473 69.0401 124.088 68.9293 123.703 68.9729C123.319 69.0165 122.968 69.211 122.727 69.5135C122.486 69.8161 122.375 70.2019 122.419 70.5861C122.463 70.9704 122.657 71.3216 122.96 71.5624C127.326 75.0643 130.824 79.5276 133.18 84.6042C135.537 89.6808 136.689 95.2332 136.546 100.828Z" fill="white"/>
<path d="M110.172 65.1249C111.653 65.5204 113.109 66.0056 114.531 66.578C114.711 66.6512 114.903 66.6906 115.098 66.6943C115.433 66.6936 115.757 66.5775 116.016 66.3654C116.275 66.1533 116.453 65.8584 116.519 65.5304C116.586 65.2024 116.537 64.8614 116.381 64.5652C116.226 64.2689 115.973 64.0354 115.665 63.9043C114.135 63.2381 112.562 62.6749 110.956 62.2186C110.772 62.1655 110.579 62.1493 110.389 62.1709C110.199 62.1926 110.014 62.2518 109.847 62.345C109.679 62.4382 109.532 62.5636 109.413 62.714C109.294 62.8644 109.207 63.0368 109.155 63.2213C109.086 63.4127 109.057 63.6164 109.072 63.8193C109.087 64.0223 109.144 64.2199 109.24 64.3993C109.336 64.5787 109.468 64.7361 109.629 64.861C109.789 64.986 109.974 65.0759 110.172 65.1249Z" fill="white"/>
<path d="M35.6845 73.4513C27.8667 74.1052 23.4056 76.1977 22.432 79.6416C22.3813 79.8258 22.3674 80.0181 22.3911 80.2077C22.4148 80.3972 22.4756 80.5802 22.5701 80.7462C22.6646 80.9122 22.7908 81.0579 22.9417 81.1751C23.0925 81.2923 23.265 81.3785 23.4492 81.429C23.5791 81.4501 23.7116 81.4501 23.8416 81.429C24.1677 81.441 24.4884 81.343 24.752 81.1505C25.0156 80.9581 25.2068 80.6825 25.2947 80.3682C25.8759 78.3048 29.7703 76.808 35.9752 76.2849C36.3606 76.2541 36.7179 76.0714 36.9686 75.7771C37.2193 75.4828 37.3429 75.1009 37.312 74.7155C37.2812 74.3301 37.0985 73.9728 36.8042 73.7221C36.5099 73.4714 36.1281 73.3478 35.7427 73.3787L35.6845 73.4513Z" fill="white"/>
<path d="M168.18 110.361C167.864 110.142 167.474 110.057 167.095 110.125C166.717 110.193 166.381 110.409 166.161 110.724C165.94 111.039 165.853 111.428 165.918 111.806C165.983 112.185 166.196 112.522 166.509 112.744C172.235 116.755 175.228 120.329 174.531 122.553C173.717 125.459 165.71 128.133 145.86 126.2C145.475 126.163 145.091 126.281 144.792 126.528C144.494 126.775 144.306 127.13 144.269 127.515C144.233 127.9 144.351 128.285 144.597 128.583C144.844 128.881 145.199 129.07 145.584 129.106C149.639 129.499 153.969 129.789 158.081 129.789C167.556 129.789 175.926 128.336 177.321 123.352C178.352 119.704 175.272 115.345 168.18 110.361Z" fill="white"/>
<path d="M52.9334 57.2927C52.548 57.2619 52.1661 57.3854 51.8718 57.6361C51.5775 57.8869 51.3949 58.2442 51.364 58.6296C51.3332 59.015 51.4567 59.3969 51.7074 59.6912C51.9581 59.9855 52.3155 60.1682 52.7009 60.199C54.6626 60.3734 56.6534 60.5623 58.6878 60.7802H58.8476C59.233 60.8014 59.611 60.6687 59.8985 60.4111C60.186 60.1536 60.3595 59.7924 60.3807 59.407C60.4019 59.0216 60.2691 58.6436 60.0116 58.3561C59.754 58.0686 59.3929 57.8952 59.0075 57.874C56.944 57.656 54.9532 57.4526 52.9334 57.2927Z" fill="white"/>
<path d="M32.6621 56.6968C32.4713 56.7025 32.2835 56.7458 32.1094 56.8241C31.9353 56.9024 31.7783 57.0143 31.6474 57.1533C31.5165 57.2922 31.4143 57.4556 31.3465 57.6341C31.2788 57.8126 31.2469 58.0027 31.2526 58.1935C31.2583 58.3844 31.3016 58.5722 31.3799 58.7463C31.4582 58.9204 31.5701 59.0774 31.709 59.2083C31.848 59.3392 32.0114 59.4414 32.1899 59.5091C32.3684 59.5769 32.5585 59.6088 32.7493 59.6031C36.2223 59.4868 39.9278 59.5014 43.764 59.6031C44.1494 59.6031 44.519 59.45 44.7915 59.1775C45.064 58.9049 45.2171 58.5353 45.2171 58.1499C45.2171 57.7646 45.064 57.3949 44.7915 57.1224C44.519 56.8499 44.1494 56.6968 43.764 56.6968C39.9568 56.5951 36.1932 56.5806 32.6621 56.6968Z" fill="white"/>
<path d="M42.5872 115.2C42.9154 115.198 43.2333 115.085 43.4891 114.879C43.7449 114.674 43.9235 114.387 43.996 114.067C44.0684 113.747 44.0304 113.412 43.888 113.116C43.7457 112.821 43.5074 112.582 43.212 112.439C30.5989 106.423 19.962 99.9418 12.3186 93.6789C12.0199 93.4342 11.6363 93.3181 11.252 93.3562C10.8678 93.3944 10.5144 93.5836 10.2697 93.8823C10.025 94.181 9.90892 94.5647 9.94707 94.9489C9.98522 95.3331 10.1745 95.6865 10.4731 95.9312C20.1864 103.514 30.7549 109.932 41.9624 115.054C42.1561 115.152 42.3703 115.202 42.5872 115.2Z" fill="white"/>
<path d="M155.901 144.349C156.287 144.349 156.656 144.196 156.929 143.924C157.202 143.651 157.355 143.282 157.355 142.896C157.355 142.511 157.202 142.141 156.929 141.869C156.656 141.596 156.287 141.443 155.901 141.443C152.443 141.312 148.825 141.065 145.119 140.717C144.928 140.699 144.736 140.719 144.552 140.776C144.369 140.832 144.199 140.925 144.052 141.048C143.905 141.171 143.783 141.322 143.695 141.492C143.606 141.662 143.552 141.848 143.535 142.039C143.521 142.243 143.55 142.448 143.62 142.64C143.69 142.833 143.8 143.008 143.943 143.155C144.086 143.302 144.258 143.417 144.448 143.492C144.638 143.568 144.842 143.602 145.047 143.594C148.723 143.957 152.399 144.219 155.901 144.349Z" fill="white"/>
<path d="M186.795 138.973C179.316 140.8 171.636 141.679 163.938 141.588C163.552 141.588 163.182 141.742 162.91 142.014C162.637 142.287 162.484 142.656 162.484 143.042C162.484 143.427 162.637 143.797 162.91 144.069C163.182 144.342 163.552 144.495 163.938 144.495C171.892 144.59 179.826 143.676 187.551 141.777C187.735 141.727 187.907 141.64 188.058 141.523C188.209 141.406 188.335 141.26 188.43 141.094C188.524 140.928 188.585 140.745 188.609 140.556C188.632 140.366 188.619 140.174 188.568 139.99C188.517 139.806 188.431 139.633 188.314 139.483C188.197 139.332 188.051 139.206 187.885 139.111C187.719 139.017 187.536 138.956 187.347 138.932C187.157 138.908 186.965 138.922 186.781 138.973H186.795Z" fill="white"/>
<path d="M156.294 88.375C163.189 91.6045 169.89 95.2338 176.362 99.2444C176.596 99.3955 176.868 99.4762 177.146 99.4769C177.463 99.4779 177.771 99.3757 178.024 99.1856C178.277 98.9956 178.461 98.7282 178.548 98.424C178.635 98.1198 178.621 97.7955 178.507 97.5004C178.393 97.2052 178.185 96.9553 177.916 96.7886C171.357 92.7133 164.564 89.0257 157.573 85.7449C157.224 85.5812 156.824 85.5627 156.462 85.6935C156.1 85.8243 155.804 86.0937 155.64 86.4424C155.473 86.7858 155.448 87.1811 155.571 87.5428C155.693 87.9044 155.953 88.2034 156.294 88.375Z" fill="white"/>
<path d="M150.176 92.1532C148.64 82.6409 144.417 73.7656 138.006 66.5723C131.595 59.379 123.262 54.1671 113.989 51.5502C104.715 48.9334 94.8868 49.0205 85.6612 51.8013C76.4355 54.5821 68.1963 59.9408 61.9137 67.2466C31.1946 63.1343 11.3594 66.1423 8.74381 75.2969C5.83756 85.4688 24.5829 98.794 50.7246 110.288C52.548 119.394 56.8571 127.818 63.1743 134.625C69.4916 141.432 77.5703 146.357 86.5151 148.854C91.0262 150.126 95.6909 150.771 100.378 150.772C107.282 150.777 114.113 149.36 120.445 146.61C126.777 143.86 132.476 139.836 137.186 134.788C145.568 135.97 154.019 136.596 162.484 136.662C178.193 136.662 189.266 133.756 191.213 126.825C193.843 117.641 178.469 104.708 150.176 92.1532ZM148.912 113.95C149.217 112.831 149.479 111.712 149.726 110.579C153.94 113.485 155.204 115.636 154.928 116.595C154.55 117.961 151.818 118.833 147.125 119.065C147.81 117.383 148.407 115.666 148.912 113.921V113.95ZM113.194 54.3719C125.333 57.8091 135.614 65.9186 141.784 76.9231C147.953 87.9275 149.508 100.929 146.108 113.078C145.52 115.111 144.806 117.106 143.972 119.051C133.974 118.963 117.685 116.595 97.2246 110.826C83.9273 107.25 70.9919 102.444 58.586 96.469C56.4644 95.3791 54.648 94.3619 53.0932 93.4319C53.3927 91.348 53.8247 89.2852 54.3865 87.2562C57.8295 75.0984 65.9553 64.8033 76.9805 58.63C88.0058 52.4567 101.03 50.9097 113.194 54.3283V54.3719ZM45.0719 85.5705C45.3335 84.626 47.5132 83.4926 52.6572 83.1583C52.2649 84.2482 51.9016 85.338 51.5819 86.4569C51.1024 88.1862 50.7391 89.9444 50.434 91.7027C45.9147 88.564 44.7813 86.4715 45.0719 85.5705ZM87.2997 146.05C79.209 143.795 71.8634 139.43 66.0158 133.401C60.1683 127.373 56.0293 119.897 54.0232 111.741C66.7676 117.095 79.8321 121.652 93.1413 125.386C106.436 129.157 119.952 132.098 133.611 134.192C127.638 140.1 120.2 144.312 112.062 146.395C103.923 148.479 95.3769 148.36 87.2997 146.05ZM188.452 126.026C186.403 133.291 166.815 136.023 137.098 131.838C136.906 131.775 136.705 131.745 136.503 131.751C122.123 129.635 107.899 126.567 93.926 122.567C79.9246 118.675 66.1964 113.859 52.8316 108.152C52.67 108.039 52.4871 107.96 52.294 107.92C24.7863 95.9168 9.48491 83.3618 11.6065 76.0816C13.728 68.8015 32.4879 66.4038 59.8502 69.8623C57.4522 73.0489 55.447 76.5129 53.8779 80.1794C46.9319 80.4119 43.1393 81.9087 42.3255 84.7568C41.5118 87.6049 44.3454 91.2813 50.8118 95.3501C52.6718 96.5126 54.8079 97.7332 57.2637 98.9829C69.8577 105.071 82.9928 109.97 96.498 113.616C111.349 117.801 131.228 121.928 144.291 121.928C151.644 121.928 156.846 120.62 157.791 117.292C158.59 114.386 156.149 111.175 150.336 107.353C150.914 103.413 151.021 99.4175 150.656 95.4518C175.722 106.873 190.515 118.745 188.452 126.026Z" fill="white"/>
<path d="M159.898 70.0946C159.602 71.1528 159.517 72.2589 159.649 73.3498C159.781 74.4406 160.127 75.4946 160.667 76.4516C161.207 77.4086 161.93 78.2497 162.796 78.9268C163.661 79.6038 164.652 80.1035 165.71 80.3973C166.447 80.6111 167.21 80.7188 167.977 80.717C169.431 80.7085 170.858 80.3215 172.116 79.5941C173.375 78.8668 174.423 77.8241 175.156 76.5687C175.889 75.3134 176.283 73.8887 176.298 72.435C176.313 70.9813 175.95 69.5487 175.243 68.2782C174.707 67.3216 173.988 66.48 173.127 65.8014C172.266 65.1229 171.279 64.6208 170.224 64.3239C169.169 64.027 168.065 63.9411 166.976 64.071C165.888 64.201 164.835 64.5443 163.879 65.0814C162.914 65.6084 162.065 66.3236 161.381 67.1847C160.697 68.0458 160.193 69.0353 159.898 70.0946ZM165.274 67.6098C166.083 67.158 166.993 66.9181 167.919 66.9123C168.411 66.9152 168.901 66.9887 169.372 67.1303C170.064 67.3163 170.712 67.64 171.276 68.0819C171.84 68.5238 172.31 69.0749 172.656 69.7023C173.008 70.3258 173.233 71.0128 173.318 71.7236C173.402 72.4344 173.346 73.155 173.15 73.8437C172.909 74.7081 172.457 75.4993 171.836 76.1471C171.214 76.7949 170.443 77.2792 169.589 77.5569C168.736 77.8347 167.827 77.8974 166.943 77.7393C166.06 77.5813 165.229 77.2074 164.525 76.651C163.82 76.0946 163.264 75.3728 162.906 74.5499C162.548 73.7269 162.399 72.8281 162.471 71.9335C162.544 71.0389 162.837 70.1762 163.323 69.4219C163.81 68.6676 164.475 68.0451 165.26 67.6098H165.274Z" fill="white"/>
<path d="M150.147 57.8593C150.536 57.9624 150.937 58.0161 151.339 58.0191C152.082 58.0188 152.812 57.8287 153.461 57.467C153.963 57.1873 154.406 56.811 154.762 56.3596C155.119 55.9082 155.383 55.3906 155.539 54.8368C155.77 54.0072 155.75 53.1276 155.482 52.3091C155.214 51.4906 154.71 50.7699 154.032 50.2379C153.355 49.7058 152.535 49.3863 151.677 49.3197C150.818 49.2531 149.959 49.4423 149.207 49.8635C148.456 50.2847 147.847 50.919 147.455 51.6863C147.064 52.4536 146.909 53.3196 147.01 54.175C147.11 55.0304 147.462 55.8368 148.02 56.4925C148.579 57.1482 149.319 57.6238 150.147 57.8593ZM149.93 53.2529C150.017 52.9386 150.209 52.663 150.472 52.4706C150.736 52.2781 151.056 52.18 151.383 52.1921C151.513 52.1778 151.645 52.1778 151.775 52.1921C152.05 52.2709 152.297 52.4293 152.482 52.6475C152.668 52.8657 152.785 53.134 152.819 53.4186C152.852 53.7031 152.801 53.9913 152.672 54.2468C152.542 54.5023 152.34 54.7138 152.09 54.8547C151.84 54.9956 151.555 55.0595 151.269 55.0385C150.983 55.0175 150.71 54.9125 150.484 54.7366C150.258 54.5607 150.088 54.3219 149.998 54.0502C149.907 53.7784 149.898 53.4859 149.973 53.2093L149.93 53.2529Z" fill="white"/>
</svg>
