<svg width="200" height="200" viewBox="0 0 200 200" fill="none" xmlns="http://www.w3.org/2000/svg">
<g clip-path="url(#clip0_169_18)">
<path d="M150.974 158.256C163.98 158.256 171 128.24 171 100C171 71.7603 163.98 41.7437 150.974 41.7437C137.969 41.7437 130.949 71.7603 130.949 100C130.949 128.24 137.969 158.256 150.974 158.256ZM150.974 45.3847C158.726 45.3847 167.359 67.8134 167.359 100C167.359 132.187 158.726 154.615 150.974 154.615C143.223 154.615 134.59 132.187 134.59 100C134.59 67.8134 143.223 45.3847 150.974 45.3847Z" fill="white"/>
<path d="M119.982 158.256C123.077 158.256 127.665 156.454 131.968 147.88C132.416 146.98 132.052 145.888 131.156 145.436C130.261 144.989 129.161 145.342 128.71 146.248C126.008 151.644 122.906 154.615 119.982 154.615C111.965 154.615 103.033 132.187 103.033 100C103.033 67.8134 111.965 45.3847 119.982 45.3847C122.906 45.3847 126.004 48.3558 128.71 53.7518C129.161 54.6547 130.261 55.0079 131.156 54.5637C132.052 54.1122 132.416 53.0199 131.968 52.1206C127.668 43.546 123.077 41.7437 119.982 41.7437C107.093 41.7437 99.3921 71.3634 99.3921 100C99.3921 128.637 107.093 158.256 119.982 158.256Z" fill="white"/>
<path d="M84.7878 158.256C87.8826 158.256 92.4703 156.454 96.774 147.88C97.2219 146.98 96.8578 145.888 95.9621 145.436C95.0664 144.989 93.9704 145.342 93.5153 146.248C90.8137 151.644 87.7115 154.615 84.7878 154.615C76.7702 154.615 67.8388 132.187 67.8388 100C67.8388 67.8134 76.7702 45.3847 84.7878 45.3847C87.7115 45.3847 90.81 48.3558 93.5153 53.7518C93.9704 54.6547 95.0664 55.0079 95.9621 54.5637C96.8578 54.1122 97.2219 53.0199 96.774 52.1206C92.474 43.546 87.8826 41.7437 84.7878 41.7437C71.8985 41.7437 64.1978 71.3634 64.1978 100C64.1978 128.637 71.8985 158.256 84.7878 158.256Z" fill="white"/>
<path d="M49.59 158.256C52.6849 158.256 57.2726 156.454 61.5763 147.88C62.0241 146.98 61.66 145.888 60.7643 145.436C59.8686 144.989 58.769 145.342 58.3175 146.248C55.6159 151.644 52.5137 154.615 49.59 154.615C41.5725 154.615 32.641 132.187 32.641 100C32.641 67.8134 41.5725 45.3847 49.59 45.3847C52.5137 45.3847 55.6159 48.3558 58.3212 53.7518C58.7727 54.6547 59.8723 55.0079 60.7679 54.5637C61.6636 54.1122 62.0241 53.0199 61.5763 52.1206C57.2762 43.546 52.6849 41.7437 49.59 41.7437C36.7008 41.7437 29 71.3634 29 100C29 128.637 36.7008 158.256 49.59 158.256Z" fill="white"/>
</g>
<defs>
<clipPath id="clip0_169_18">
<rect width="142" height="142" fill="white" transform="translate(29 29)"/>
</clipPath>
</defs>
</svg>
