<svg width="375" height="379" viewBox="0 0 375 379" fill="none" xmlns="http://www.w3.org/2000/svg">
<path d="M4 185.5C4 83.0512 87.0512 0 189.5 0C291.949 0 375 83.0512 375 185.5C375 287.949 291.949 371 189.5 371C87.0512 371 4 287.949 4 185.5Z" fill="#DCDCDC"/>
<mask id="mask0_233_114" style="mask-type:alpha" maskUnits="userSpaceOnUse" x="4" y="0" width="371" height="371">
<path d="M189.5 371C291.949 371 375 287.949 375 185.5C375 83.0512 291.949 0 189.5 0C87.0512 0 4 83.0512 4 185.5C4 287.949 87.0512 371 189.5 371Z" fill="#DCDCDC"/>
</mask>
<g mask="url(#mask0_233_114)">
<path d="M212 204C229.121 204 243 190.121 243 173C243 155.879 229.121 142 212 142C194.879 142 181 155.879 181 173C181 190.121 194.879 204 212 204Z" fill="#CCCBCB"/>
<path d="M300 238C314.359 238 326 226.359 326 212C326 197.641 314.359 186 300 186C285.641 186 274 197.641 274 212C274 226.359 285.641 238 300 238Z" fill="#C4C4C4"/>
<path d="M304.5 149C316.374 149 326 139.374 326 127.5C326 115.626 316.374 106 304.5 106C292.626 106 283 115.626 283 127.5C283 139.374 292.626 149 304.5 149Z" fill="#C4C4C4"/>
<path d="M262.5 295C274.374 295 284 285.374 284 273.5C284 261.626 274.374 252 262.5 252C250.626 252 241 261.626 241 273.5C241 285.374 250.626 295 262.5 295Z" fill="#C4C4C4"/>
<path d="M151.5 197C155.642 197 159 193.642 159 189.5C159 185.358 155.642 182 151.5 182C147.358 182 144 185.358 144 189.5C144 193.642 147.358 197 151.5 197Z" fill="#C4C4C4"/>
<path d="M162.5 204C164.985 204 167 201.985 167 199.5C167 197.015 164.985 195 162.5 195C160.015 195 158 197.015 158 199.5C158 201.985 160.015 204 162.5 204Z" fill="#C4C4C4"/>
<path d="M120 151C143.196 151 162 132.196 162 109C162 85.804 143.196 67 120 67C96.804 67 78 85.804 78 109C78 132.196 96.804 151 120 151Z" fill="#C4C4C4"/>
<path d="M64.5 249C91.2858 249 113 227.286 113 200.5C113 173.714 91.2858 152 64.5 152C37.7142 152 16 173.714 16 200.5C16 227.286 37.7142 249 64.5 249Z" fill="#C4C4C4"/>
<path d="M150.5 233C157.956 233 164 226.956 164 219.5C164 212.044 157.956 206 150.5 206C143.044 206 137 212.044 137 219.5C137 226.956 143.044 233 150.5 233Z" fill="#C4C4C4"/>
<path d="M142 309C154.703 309 165 298.703 165 286C165 273.297 154.703 263 142 263C129.297 263 119 273.297 119 286C119 298.703 129.297 309 142 309Z" fill="#C4C4C4"/>
<path d="M94 275C98.9706 275 103 270.971 103 266C103 261.029 98.9706 257 94 257C89.0294 257 85 261.029 85 266C85 270.971 89.0294 275 94 275Z" fill="#C4C4C4"/>
<path d="M90 314C97.732 314 104 307.732 104 300C104 292.268 97.732 286 90 286C82.268 286 76 292.268 76 300C76 307.732 82.268 314 90 314Z" fill="#C4C4C4"/>
<path d="M220.5 59C228.508 59 235 52.5081 235 44.5C235 36.4919 228.508 30 220.5 30C212.492 30 206 36.4919 206 44.5C206 52.5081 212.492 59 220.5 59Z" fill="#C4C4C4"/>
<path d="M225.5 101C229.09 101 232 98.0899 232 94.5C232 90.9101 229.09 88 225.5 88C221.91 88 219 90.9101 219 94.5C219 98.0899 221.91 101 225.5 101Z" fill="#C4C4C4"/>
<path d="M217.5 250C220.538 250 223 247.538 223 244.5C223 241.462 220.538 239 217.5 239C214.462 239 212 241.462 212 244.5C212 247.538 214.462 250 217.5 250Z" fill="#C4C4C4"/>
<path d="M229 409C254.957 409 276 387.957 276 362C276 336.043 254.957 315 229 315C203.043 315 182 336.043 182 362C182 387.957 203.043 409 229 409Z" fill="#C4C4C4"/>
<path d="M190 -6H-194V378H190V-6Z" fill="#48484A" fill-opacity="0.7"/>
</g>
</svg>
