<svg width="371" height="379" viewBox="0 0 371 379" fill="none" xmlns="http://www.w3.org/2000/svg">
<path d="M0 185.5C0 83.0512 83.0512 0 185.5 0C287.949 0 371 83.0512 371 185.5C371 287.949 287.949 371 185.5 371C83.0512 371 0 287.949 0 185.5Z" fill="#DCDCDC"/>
<mask id="mask0_233_71" style="mask-type:alpha" maskUnits="userSpaceOnUse" x="0" y="0" width="371" height="371">
<path d="M185.5 371C287.949 371 371 287.949 371 185.5C371 83.0512 287.949 0 185.5 0C83.0512 0 0 83.0512 0 185.5C0 287.949 83.0512 371 185.5 371Z" fill="#DCDCDC"/>
</mask>
<g mask="url(#mask0_233_71)">
<path d="M208 204C225.121 204 239 190.121 239 173C239 155.879 225.121 142 208 142C190.879 142 177 155.879 177 173C177 190.121 190.879 204 208 204Z" fill="#CCCBCB"/>
<path d="M296 238C310.359 238 322 226.359 322 212C322 197.641 310.359 186 296 186C281.641 186 270 197.641 270 212C270 226.359 281.641 238 296 238Z" fill="#C4C4C4"/>
<path d="M300.5 149C312.374 149 322 139.374 322 127.5C322 115.626 312.374 106 300.5 106C288.626 106 279 115.626 279 127.5C279 139.374 288.626 149 300.5 149Z" fill="#C4C4C4"/>
<path d="M258.5 295C270.374 295 280 285.374 280 273.5C280 261.626 270.374 252 258.5 252C246.626 252 237 261.626 237 273.5C237 285.374 246.626 295 258.5 295Z" fill="#C4C4C4"/>
<path d="M147.5 197C151.642 197 155 193.642 155 189.5C155 185.358 151.642 182 147.5 182C143.358 182 140 185.358 140 189.5C140 193.642 143.358 197 147.5 197Z" fill="#C4C4C4"/>
<path d="M158.5 204C160.985 204 163 201.985 163 199.5C163 197.015 160.985 195 158.5 195C156.015 195 154 197.015 154 199.5C154 201.985 156.015 204 158.5 204Z" fill="#C4C4C4"/>
<path d="M116 151C139.196 151 158 132.196 158 109C158 85.804 139.196 67 116 67C92.804 67 74 85.804 74 109C74 132.196 92.804 151 116 151Z" fill="#C4C4C4"/>
<path d="M60.5 249C87.2858 249 109 227.286 109 200.5C109 173.714 87.2858 152 60.5 152C33.7142 152 12 173.714 12 200.5C12 227.286 33.7142 249 60.5 249Z" fill="#C4C4C4"/>
<path d="M146.5 233C153.956 233 160 226.956 160 219.5C160 212.044 153.956 206 146.5 206C139.044 206 133 212.044 133 219.5C133 226.956 139.044 233 146.5 233Z" fill="#C4C4C4"/>
<path d="M138 309C150.703 309 161 298.703 161 286C161 273.297 150.703 263 138 263C125.297 263 115 273.297 115 286C115 298.703 125.297 309 138 309Z" fill="#C4C4C4"/>
<path d="M90 275C94.9706 275 99 270.971 99 266C99 261.029 94.9706 257 90 257C85.0294 257 81 261.029 81 266C81 270.971 85.0294 275 90 275Z" fill="#C4C4C4"/>
<path d="M86 314C93.732 314 100 307.732 100 300C100 292.268 93.732 286 86 286C78.268 286 72 292.268 72 300C72 307.732 78.268 314 86 314Z" fill="#C4C4C4"/>
<path d="M216.5 59C224.508 59 231 52.5081 231 44.5C231 36.4919 224.508 30 216.5 30C208.492 30 202 36.4919 202 44.5C202 52.5081 208.492 59 216.5 59Z" fill="#C4C4C4"/>
<path d="M221.5 101C225.09 101 228 98.0899 228 94.5C228 90.9101 225.09 88 221.5 88C217.91 88 215 90.9101 215 94.5C215 98.0899 217.91 101 221.5 101Z" fill="#C4C4C4"/>
<path d="M213.5 250C216.538 250 219 247.538 219 244.5C219 241.462 216.538 239 213.5 239C210.462 239 208 241.462 208 244.5C208 247.538 210.462 250 213.5 250Z" fill="#C4C4C4"/>
<path d="M225 409C250.957 409 272 387.957 272 362C272 336.043 250.957 315 225 315C199.043 315 178 336.043 178 362C178 387.957 199.043 409 225 409Z" fill="#C4C4C4"/>
</g>
</svg>
