<svg width="200" height="200" viewBox="0 0 200 200" fill="none" xmlns="http://www.w3.org/2000/svg">
<g filter="url(#filter0_i_65_854)">
<path d="M71.599 141.762H152.267V199.857H71.599V141.762Z" fill="#BFBFBF"/>
<path d="M143.198 128.429C143.198 167.877 111.142 199.857 71.599 199.857C32.056 199.857 0 167.877 0 128.429C0 88.9797 32.056 57 71.599 57C111.142 57 143.198 88.9797 143.198 128.429Z" fill="#BFBFBF"/>
<path d="M200 152.238C200 178.537 178.629 199.857 152.267 199.857C125.905 199.857 104.535 178.537 104.535 152.238C104.535 125.939 125.905 104.619 152.267 104.619C178.629 104.619 200 125.939 200 152.238Z" fill="#BFBFBF"/>
</g>
<defs>
<filter id="filter0_i_65_854" x="0" y="57" width="200" height="159.857" filterUnits="userSpaceOnUse" color-interpolation-filters="sRGB">
<feFlood flood-opacity="0" result="BackgroundImageFix"/>
<feBlend mode="normal" in="SourceGraphic" in2="BackgroundImageFix" result="shape"/>
<feColorMatrix in="SourceAlpha" type="matrix" values="0 0 0 0 0 0 0 0 0 0 0 0 0 0 0 0 0 0 127 0" result="hardAlpha"/>
<feOffset dy="17"/>
<feGaussianBlur stdDeviation="14.8"/>
<feComposite in2="hardAlpha" operator="arithmetic" k2="-1" k3="1"/>
<feColorMatrix type="matrix" values="0 0 0 0 1 0 0 0 0 1 0 0 0 0 1 0 0 0 1 0"/>
<feBlend mode="normal" in2="shape" result="effect1_innerShadow_65_854"/>
</filter>
</defs>
</svg>
