<svg width="200" height="200" viewBox="0 0 200 200" fill="none" xmlns="http://www.w3.org/2000/svg">
<g filter="url(#filter0_i_65_48)">
<path d="M90.2172 129.387H159.188V179H90.2172V129.387Z" fill="#605F5F"/>
<path d="M151.434 118C151.434 151.689 124.026 179 90.2172 179C56.4078 179 29 151.689 29 118C29 84.3106 56.4079 57 90.2172 57C124.026 57 151.434 84.3106 151.434 118Z" fill="#605F5F"/>
<path d="M200 138.333C200 160.793 181.728 179 159.188 179C136.649 179 118.377 160.793 118.377 138.333C118.377 115.874 136.649 97.6667 159.189 97.6667C181.728 97.6667 200 115.874 200 138.333Z" fill="#605F5F"/>
</g>
<g filter="url(#filter1_i_65_48)">
<path d="M58.0668 152.742H123.489V199.857H58.0668V152.742Z" fill="#BFBFBF"/>
<path d="M116.134 141.929C116.134 173.922 90.1362 199.857 58.0668 199.857C25.9974 199.857 0 173.922 0 141.929C0 109.935 25.9974 84 58.0668 84C90.1362 84 116.134 109.935 116.134 141.929Z" fill="#BFBFBF"/>
<path d="M162.2 161.238C162.2 182.567 144.868 199.857 123.489 199.857C102.109 199.857 84.7776 182.567 84.7776 161.238C84.7776 139.909 102.109 122.619 123.489 122.619C144.868 122.619 162.2 139.909 162.2 161.238Z" fill="#BFBFBF"/>
</g>
<defs>
<filter id="filter0_i_65_48" x="29" y="57" width="171" height="139" filterUnits="userSpaceOnUse" color-interpolation-filters="sRGB">
<feFlood flood-opacity="0" result="BackgroundImageFix"/>
<feBlend mode="normal" in="SourceGraphic" in2="BackgroundImageFix" result="shape"/>
<feColorMatrix in="SourceAlpha" type="matrix" values="0 0 0 0 0 0 0 0 0 0 0 0 0 0 0 0 0 0 127 0" result="hardAlpha"/>
<feOffset dy="17"/>
<feGaussianBlur stdDeviation="14.8"/>
<feComposite in2="hardAlpha" operator="arithmetic" k2="-1" k3="1"/>
<feColorMatrix type="matrix" values="0 0 0 0 0.808333 0 0 0 0 0.808333 0 0 0 0 0.808333 0 0 0 1 0"/>
<feBlend mode="normal" in2="shape" result="effect1_innerShadow_65_48"/>
</filter>
<filter id="filter1_i_65_48" x="0" y="84" width="162.2" height="132.857" filterUnits="userSpaceOnUse" color-interpolation-filters="sRGB">
<feFlood flood-opacity="0" result="BackgroundImageFix"/>
<feBlend mode="normal" in="SourceGraphic" in2="BackgroundImageFix" result="shape"/>
<feColorMatrix in="SourceAlpha" type="matrix" values="0 0 0 0 0 0 0 0 0 0 0 0 0 0 0 0 0 0 127 0" result="hardAlpha"/>
<feOffset dy="17"/>
<feGaussianBlur stdDeviation="14.8"/>
<feComposite in2="hardAlpha" operator="arithmetic" k2="-1" k3="1"/>
<feColorMatrix type="matrix" values="0 0 0 0 1 0 0 0 0 1 0 0 0 0 1 0 0 0 1 0"/>
<feBlend mode="normal" in2="shape" result="effect1_innerShadow_65_48"/>
</filter>
</defs>
</svg>
