<svg width="200" height="201" viewBox="0 0 200 201" fill="none" xmlns="http://www.w3.org/2000/svg">
<g filter="url(#filter0_i_65_62)">
<path d="M90.2172 107.387H159.188V157H90.2172V107.387Z" fill="#605F5F"/>
<path d="M151.434 96C151.434 129.689 124.026 157 90.2172 157C56.4078 157 29 129.689 29 96C29 62.3106 56.4079 35 90.2172 35C124.026 35 151.434 62.3106 151.434 96Z" fill="#605F5F"/>
<path d="M200 116.333C200 138.793 181.728 157 159.188 157C136.649 157 118.377 138.793 118.377 116.333C118.377 93.8738 136.649 75.6667 159.189 75.6667C181.728 75.6667 200 93.8738 200 116.333Z" fill="#605F5F"/>
</g>
<circle cx="100" cy="120" r="55" fill="url(#paint0_linear_65_62)"/>
<g filter="url(#filter1_i_65_62)">
<path d="M58.0668 130.742H123.489V177.857H58.0668V130.742Z" fill="#BFBFBF"/>
<path d="M116.134 119.929C116.134 151.922 90.1362 177.857 58.0668 177.857C25.9974 177.857 0 151.922 0 119.929C0 87.9355 25.9974 62 58.0668 62C90.1362 62 116.134 87.9355 116.134 119.929Z" fill="#BFBFBF"/>
<path d="M162.2 139.238C162.2 160.567 144.868 177.857 123.489 177.857C102.109 177.857 84.7776 160.567 84.7776 139.238C84.7776 117.909 102.109 100.619 123.489 100.619C144.868 100.619 162.2 117.909 162.2 139.238Z" fill="#BFBFBF"/>
</g>
<path d="M54.2321 182.422L56.6538 191.459C57.7301 195.476 54.0545 199.152 50.0377 198.076C46.0209 196.999 44.6755 191.978 47.616 189.038L54.2321 182.422Z" fill="url(#paint1_linear_65_62)"/>
<path d="M85.2321 182.422L87.6538 191.459C88.7301 195.476 85.0545 199.152 81.0377 198.076C77.0209 196.999 75.6755 191.978 78.616 189.038L85.2321 182.422Z" fill="url(#paint2_linear_65_62)"/>
<path d="M116.232 182.422L118.654 191.459C119.73 195.476 116.054 199.152 112.038 198.076C108.021 196.999 106.676 191.978 109.616 189.038L116.232 182.422Z" fill="url(#paint3_linear_65_62)"/>
<defs>
<filter id="filter0_i_65_62" x="29" y="35" width="171" height="139" filterUnits="userSpaceOnUse" color-interpolation-filters="sRGB">
<feFlood flood-opacity="0" result="BackgroundImageFix"/>
<feBlend mode="normal" in="SourceGraphic" in2="BackgroundImageFix" result="shape"/>
<feColorMatrix in="SourceAlpha" type="matrix" values="0 0 0 0 0 0 0 0 0 0 0 0 0 0 0 0 0 0 127 0" result="hardAlpha"/>
<feOffset dy="17"/>
<feGaussianBlur stdDeviation="14.8"/>
<feComposite in2="hardAlpha" operator="arithmetic" k2="-1" k3="1"/>
<feColorMatrix type="matrix" values="0 0 0 0 0.808333 0 0 0 0 0.808333 0 0 0 0 0.808333 0 0 0 1 0"/>
<feBlend mode="normal" in2="shape" result="effect1_innerShadow_65_62"/>
</filter>
<filter id="filter1_i_65_62" x="0" y="62" width="162.2" height="132.857" filterUnits="userSpaceOnUse" color-interpolation-filters="sRGB">
<feFlood flood-opacity="0" result="BackgroundImageFix"/>
<feBlend mode="normal" in="SourceGraphic" in2="BackgroundImageFix" result="shape"/>
<feColorMatrix in="SourceAlpha" type="matrix" values="0 0 0 0 0 0 0 0 0 0 0 0 0 0 0 0 0 0 127 0" result="hardAlpha"/>
<feOffset dy="17"/>
<feGaussianBlur stdDeviation="14.8"/>
<feComposite in2="hardAlpha" operator="arithmetic" k2="-1" k3="1"/>
<feColorMatrix type="matrix" values="0 0 0 0 1 0 0 0 0 1 0 0 0 0 1 0 0 0 1 0"/>
<feBlend mode="normal" in2="shape" result="effect1_innerShadow_65_62"/>
</filter>
<linearGradient id="paint0_linear_65_62" x1="100" y1="65" x2="100" y2="175" gradientUnits="userSpaceOnUse">
<stop stop-color="#FFD358"/>
<stop offset="1" stop-color="#FA6C21"/>
</linearGradient>
<linearGradient id="paint1_linear_65_62" x1="54.2321" y1="182.422" x2="50.0377" y2="198.076" gradientUnits="userSpaceOnUse">
<stop stop-color="#1F41F5"/>
<stop offset="1" stop-color="#429CCF"/>
</linearGradient>
<linearGradient id="paint2_linear_65_62" x1="85.2321" y1="182.422" x2="81.0377" y2="198.076" gradientUnits="userSpaceOnUse">
<stop stop-color="#1F41F5"/>
<stop offset="1" stop-color="#429CCF"/>
</linearGradient>
<linearGradient id="paint3_linear_65_62" x1="116.232" y1="182.422" x2="112.038" y2="198.076" gradientUnits="userSpaceOnUse">
<stop stop-color="#1F41F5"/>
<stop offset="1" stop-color="#429CCF"/>
</linearGradient>
</defs>
</svg>
