<svg width="200" height="200" viewBox="0 0 200 200" fill="none" xmlns="http://www.w3.org/2000/svg">
<g filter="url(#filter0_i_65_173)">
<path d="M90.2172 78.3867H159.188V128H90.2172V78.3867Z" fill="#605F5F"/>
<path d="M151.434 67C151.434 100.689 124.026 128 90.2172 128C56.4078 128 29 100.689 29 67C29 33.3106 56.4079 6 90.2172 6C124.026 6 151.434 33.3106 151.434 67Z" fill="#605F5F"/>
<path d="M200 87.3333C200 109.793 181.728 128 159.188 128C136.649 128 118.377 109.793 118.377 87.3333C118.377 64.8738 136.649 46.6667 159.189 46.6667C181.728 46.6667 200 64.8738 200 87.3333Z" fill="#605F5F"/>
</g>
<circle cx="100" cy="91" r="55" fill="url(#paint0_linear_65_173)"/>
<g filter="url(#filter1_i_65_173)">
<path d="M58.0668 101.742H123.489V148.857H58.0668V101.742Z" fill="#BFBFBF"/>
<path d="M116.134 90.9286C116.134 122.922 90.1362 148.857 58.0668 148.857C25.9974 148.857 0 122.922 0 90.9286C0 58.9355 25.9974 33 58.0668 33C90.1362 33 116.134 58.9355 116.134 90.9286Z" fill="#BFBFBF"/>
<path d="M162.2 110.238C162.2 131.567 144.868 148.857 123.489 148.857C102.109 148.857 84.7776 131.567 84.7776 110.238C84.7776 88.9094 102.109 71.619 123.489 71.619C144.868 71.619 162.2 88.9094 162.2 110.238Z" fill="#BFBFBF"/>
</g>
<path d="M54.2323 153.422L56.6539 162.459C57.7302 166.476 54.0546 170.152 50.0378 169.076C46.021 167.999 44.6756 162.978 47.6161 160.038L54.2323 153.422Z" fill="url(#paint1_linear_65_173)"/>
<path d="M116.232 153.422L118.654 162.459C119.73 166.476 116.055 170.152 112.038 169.076C108.021 167.999 106.676 162.978 109.616 160.038L116.232 153.422Z" fill="url(#paint2_linear_65_173)"/>
<path d="M147.232 153.422L149.654 162.459C150.73 166.476 147.055 170.152 143.038 169.076C139.021 167.999 137.676 162.978 140.616 160.038L147.232 153.422Z" fill="url(#paint3_linear_65_173)"/>
<path d="M65.2323 175.422L67.6539 184.459C68.7302 188.476 65.0546 192.152 61.0378 191.076C57.021 189.999 55.6756 184.978 58.6161 182.038L65.2323 175.422Z" fill="url(#paint4_linear_65_173)"/>
<path d="M96.2323 175.422L98.6539 184.459C99.7302 188.476 96.0546 192.152 92.0378 191.076C88.021 189.999 86.6756 184.978 89.6161 182.038L96.2323 175.422Z" fill="url(#paint5_linear_65_173)"/>
<path d="M127.232 175.422L129.654 184.459C130.73 188.476 127.055 192.152 123.038 191.076C119.021 189.999 117.676 184.978 120.616 182.038L127.232 175.422Z" fill="url(#paint6_linear_65_173)"/>
<path d="M63.8221 154.373L82.0177 121.516C82.1939 121.197 82.5289 121 82.8925 121H100.704C101.479 121 101.96 121.843 101.565 122.509L88.3058 144.919C87.9114 145.586 88.3919 146.429 89.1665 146.429H104.842C105.694 146.429 106.156 147.425 105.605 148.075L72.5792 187.064C71.8684 187.903 70.5212 187.147 70.8669 186.103L80.4486 157.172C80.6629 156.524 80.181 155.857 79.4993 155.857H64.6969C63.935 155.857 63.453 155.039 63.8221 154.373Z" fill="#FFD600"/>
<defs>
<filter id="filter0_i_65_173" x="29" y="6" width="171" height="139" filterUnits="userSpaceOnUse" color-interpolation-filters="sRGB">
<feFlood flood-opacity="0" result="BackgroundImageFix"/>
<feBlend mode="normal" in="SourceGraphic" in2="BackgroundImageFix" result="shape"/>
<feColorMatrix in="SourceAlpha" type="matrix" values="0 0 0 0 0 0 0 0 0 0 0 0 0 0 0 0 0 0 127 0" result="hardAlpha"/>
<feOffset dy="17"/>
<feGaussianBlur stdDeviation="14.8"/>
<feComposite in2="hardAlpha" operator="arithmetic" k2="-1" k3="1"/>
<feColorMatrix type="matrix" values="0 0 0 0 0.808333 0 0 0 0 0.808333 0 0 0 0 0.808333 0 0 0 1 0"/>
<feBlend mode="normal" in2="shape" result="effect1_innerShadow_65_173"/>
</filter>
<filter id="filter1_i_65_173" x="0" y="33" width="162.2" height="132.857" filterUnits="userSpaceOnUse" color-interpolation-filters="sRGB">
<feFlood flood-opacity="0" result="BackgroundImageFix"/>
<feBlend mode="normal" in="SourceGraphic" in2="BackgroundImageFix" result="shape"/>
<feColorMatrix in="SourceAlpha" type="matrix" values="0 0 0 0 0 0 0 0 0 0 0 0 0 0 0 0 0 0 127 0" result="hardAlpha"/>
<feOffset dy="17"/>
<feGaussianBlur stdDeviation="14.8"/>
<feComposite in2="hardAlpha" operator="arithmetic" k2="-1" k3="1"/>
<feColorMatrix type="matrix" values="0 0 0 0 1 0 0 0 0 1 0 0 0 0 1 0 0 0 1 0"/>
<feBlend mode="normal" in2="shape" result="effect1_innerShadow_65_173"/>
</filter>
<linearGradient id="paint0_linear_65_173" x1="100" y1="36" x2="100" y2="146" gradientUnits="userSpaceOnUse">
<stop stop-color="#FFD358"/>
<stop offset="1" stop-color="#FA6C21"/>
</linearGradient>
<linearGradient id="paint1_linear_65_173" x1="54.2323" y1="153.422" x2="50.0378" y2="169.076" gradientUnits="userSpaceOnUse">
<stop stop-color="#1F41F5"/>
<stop offset="1" stop-color="#429CCF"/>
</linearGradient>
<linearGradient id="paint2_linear_65_173" x1="116.232" y1="153.422" x2="112.038" y2="169.076" gradientUnits="userSpaceOnUse">
<stop stop-color="#1F41F5"/>
<stop offset="1" stop-color="#429CCF"/>
</linearGradient>
<linearGradient id="paint3_linear_65_173" x1="147.232" y1="153.422" x2="143.038" y2="169.076" gradientUnits="userSpaceOnUse">
<stop stop-color="#1F41F5"/>
<stop offset="1" stop-color="#429CCF"/>
</linearGradient>
<linearGradient id="paint4_linear_65_173" x1="65.2323" y1="175.422" x2="61.0378" y2="191.076" gradientUnits="userSpaceOnUse">
<stop stop-color="#1F41F5"/>
<stop offset="1" stop-color="#429CCF"/>
</linearGradient>
<linearGradient id="paint5_linear_65_173" x1="96.2323" y1="175.422" x2="92.0378" y2="191.076" gradientUnits="userSpaceOnUse">
<stop stop-color="#1F41F5"/>
<stop offset="1" stop-color="#429CCF"/>
</linearGradient>
<linearGradient id="paint6_linear_65_173" x1="127.232" y1="175.422" x2="123.038" y2="191.076" gradientUnits="userSpaceOnUse">
<stop stop-color="#1F41F5"/>
<stop offset="1" stop-color="#429CCF"/>
</linearGradient>
</defs>
</svg>
