<svg width="200" height="200" viewBox="0 0 200 200" fill="none" xmlns="http://www.w3.org/2000/svg">
<circle cx="100" cy="100" r="100" fill="url(#paint0_linear_65_1062)"/>
<path d="M6 183L10.8231 184.745C38.077 194.602 67.923 194.602 95.1769 184.745L100 183L102.652 181.984C131.206 171.049 162.794 171.049 191.348 181.984L194 183" stroke="url(#paint1_linear_65_1062)" stroke-width="10" stroke-linecap="round"/>
<path d="M6 165L10.8231 166.745C38.077 176.602 67.923 176.602 95.1769 166.745L100 165L102.652 163.984C131.206 153.049 162.794 153.049 191.348 163.984L194 165" stroke="url(#paint2_linear_65_1062)" stroke-width="10" stroke-linecap="round"/>
<path d="M6 147L10.8231 148.745C38.077 158.602 67.923 158.602 95.1769 148.745L100 147L102.652 145.984C131.206 135.049 162.794 135.049 191.348 145.984L194 147" stroke="url(#paint3_linear_65_1062)" stroke-width="10" stroke-linecap="round"/>
<path d="M6 129L10.8231 130.745C38.077 140.602 67.923 140.602 95.1769 130.745L100 129L102.652 127.984C131.206 117.049 162.794 117.049 191.348 127.984L194 129" stroke="url(#paint4_linear_65_1062)" stroke-width="10" stroke-linecap="round"/>
<defs>
<linearGradient id="paint0_linear_65_1062" x1="100" y1="0" x2="100" y2="200" gradientUnits="userSpaceOnUse">
<stop stop-color="#FFD358"/>
<stop offset="1" stop-color="#FA6C21"/>
</linearGradient>
<linearGradient id="paint1_linear_65_1062" x1="100" y1="165" x2="100" y2="200" gradientUnits="userSpaceOnUse">
<stop stop-color="#DBD6D6"/>
<stop offset="1" stop-color="white"/>
</linearGradient>
<linearGradient id="paint2_linear_65_1062" x1="100" y1="147" x2="100" y2="182" gradientUnits="userSpaceOnUse">
<stop stop-color="#DBD6D6"/>
<stop offset="1" stop-color="white"/>
</linearGradient>
<linearGradient id="paint3_linear_65_1062" x1="100" y1="129" x2="100" y2="164" gradientUnits="userSpaceOnUse">
<stop stop-color="#DBD6D6"/>
<stop offset="1" stop-color="white"/>
</linearGradient>
<linearGradient id="paint4_linear_65_1062" x1="100" y1="111" x2="100" y2="146" gradientUnits="userSpaceOnUse">
<stop stop-color="#DBD6D6"/>
<stop offset="1" stop-color="white"/>
</linearGradient>
</defs>
</svg>
