<svg width="1571" height="246" viewBox="0 0 1571 246" fill="none" xmlns="http://www.w3.org/2000/svg">
<path d="M30.8 183H36.96V211H29.8V190.52L24.92 191.76L23.2 185.72L30.8 183ZM45.3625 211.56C44.1892 211.56 43.1892 211.16 42.3625 210.36C41.5625 209.533 41.1625 208.547 41.1625 207.4C41.1625 206.253 41.5758 205.28 42.4025 204.48C43.2292 203.653 44.2158 203.24 45.3625 203.24C46.5092 203.24 47.4825 203.653 48.2825 204.48C49.1092 205.28 49.5225 206.253 49.5225 207.4C49.5225 208.547 49.1092 209.533 48.2825 210.36C47.4825 211.16 46.5092 211.56 45.3625 211.56ZM73.2675 183C76.0942 183 78.4675 183.92 80.3875 185.76C82.3075 187.6 83.2675 189.947 83.2675 192.8C83.2675 195.653 82.3075 198 80.3875 199.84C78.4675 201.68 76.0942 202.6 73.2675 202.6H69.5475V211H62.3875V183H73.2675ZM73.2675 195.8C74.0675 195.8 74.7342 195.52 75.2675 194.96C75.8275 194.4 76.1075 193.68 76.1075 192.8C76.1075 191.92 75.8275 191.213 75.2675 190.68C74.7342 190.12 74.0675 189.84 73.2675 189.84H69.5475V195.8H73.2675ZM93.2194 204.08H102.859V211H86.0594V183H93.2194V204.08ZM123.335 211L122.135 206.96H112.815L111.615 211H103.855L113.095 183H121.815L131.055 211H123.335ZM114.655 200.8H120.295L117.455 191.28L114.655 200.8ZM148.531 183H155.651V211H150.131L140.251 196.92V211H133.091V183H138.651L148.531 197.08V183ZM160.083 183H167.243V211H160.083V183ZM188.845 189.92H178.805V194.48H188.645V201.4H178.805V211H171.645V183H188.845V189.92ZM192.348 183H199.508V211H192.348V183ZM211.071 204.28H221.911V211H203.911V183H221.711V189.68H211.071V193.56H220.711V200.16H211.071V204.28ZM233.717 204.08H243.917V211H224.437V205.48L234.317 189.92H224.637V183H243.597V188.52L233.717 204.08Z" fill="white"/>
<g clip-path="url(#clip0_229_96)">
<path d="M199.28 22.715H67.7198C64.9557 22.715 62.7148 24.9558 62.7148 27.72V159.28C62.7148 162.044 64.9557 164.285 67.7198 164.285H199.28C202.044 164.285 204.285 162.044 204.285 159.28V27.72C204.285 24.9558 202.044 22.715 199.28 22.715Z" stroke="white"/>
<path d="M164.94 58.2026V61.6662V63.097C164.94 66.5293 162.148 69.3223 158.715 69.3223H157.616C154.184 69.3223 151.391 66.5302 151.391 63.097V61.6662V58.2026H115.155V61.6662V63.097C115.155 66.5293 112.363 69.3223 108.93 69.3223H107.831C104.399 69.3223 101.606 66.5302 101.606 63.097V61.6662V58.2026H99.5044C94.5946 58.2026 90.5996 62.1976 90.5996 67.1073V127.548C90.5996 132.457 94.5946 136.452 99.5044 136.452H157.91H158.735V136.341C159.351 136.19 159.936 135.88 160.408 135.39L174.47 120.779C175.037 120.188 175.713 119.449 175.782 118.693V67.1073C175.782 62.1976 171.788 58.2026 166.878 58.2026H164.94ZM97.5325 127.547V76.4441H168.848V115.156H161.08C158.088 115.156 155.642 117.603 155.642 120.595V129.519H99.5044C98.436 129.518 97.5325 128.615 97.5325 127.547Z" fill="white"/>
<path d="M107.832 66.6476H108.931C110.889 66.6476 112.482 65.0546 112.482 63.0962V54.1514C112.482 52.193 110.889 50.6 108.931 50.6H107.832C105.873 50.6 104.28 52.193 104.28 54.1514V63.0962C104.28 65.0546 105.873 66.6476 107.832 66.6476Z" fill="white"/>
<path d="M157.618 66.6476H158.717C160.675 66.6476 162.268 65.0546 162.268 63.0962V54.1514C162.267 52.193 160.674 50.6 158.717 50.6H157.618C155.659 50.6 154.066 52.193 154.066 54.1514V63.0962C154.066 65.0546 155.659 66.6476 157.618 66.6476Z" fill="white"/>
<path d="M155.402 92.3459L151.014 87.9578C150.399 87.3426 149.403 87.334 148.777 87.9378L129.602 106.453C128.99 107.044 128.022 107.051 127.401 106.469L117.95 97.6086C117.275 96.9771 116.208 97.0476 115.623 97.7621L111.038 103.364C110.495 104.029 110.574 105.006 111.22 105.574L127.4 119.813C128.026 120.363 128.97 120.34 129.568 119.758L155.387 94.618C156.025 93.997 156.031 92.9754 155.402 92.3459Z" fill="white"/>
</g>
<g clip-path="url(#clip1_229_96)">
<path fill-rule="evenodd" clip-rule="evenodd" d="M331.172 96.6716C332.734 95.1095 335.266 95.1095 336.828 96.6716L360.828 120.672C362.391 122.234 362.391 124.766 360.828 126.328L336.828 150.328C335.266 151.89 332.734 151.89 331.172 150.328C329.609 148.766 329.609 146.234 331.172 144.672L352.343 123.5L331.172 102.328C329.609 100.766 329.609 98.2337 331.172 96.6716Z" fill="white"/>
</g>
<path d="M447.84 211V205.8L457.12 196C458.053 194.987 458.733 194.173 459.16 193.56C459.587 192.92 459.8 192.293 459.8 191.68C459.8 190.987 459.573 190.427 459.12 190C458.693 189.573 458.093 189.36 457.32 189.36C455.667 189.36 454.413 190.333 453.56 192.28L447.4 188.84C448.307 186.733 449.64 185.133 451.4 184.04C453.16 182.947 455.107 182.4 457.24 182.4C459.907 182.4 462.187 183.2 464.08 184.8C466 186.373 466.96 188.533 466.96 191.28C466.96 192.907 466.573 194.413 465.8 195.8C465.053 197.16 463.947 198.6 462.48 200.12L458.68 204.08H467.44V211H447.84ZM474.363 211.56C473.189 211.56 472.189 211.16 471.363 210.36C470.563 209.533 470.163 208.547 470.163 207.4C470.163 206.253 470.576 205.28 471.403 204.48C472.229 203.653 473.216 203.24 474.363 203.24C475.509 203.24 476.483 203.653 477.283 204.48C478.109 205.28 478.523 206.253 478.523 207.4C478.523 208.547 478.109 209.533 477.283 210.36C476.483 211.16 475.509 211.56 474.363 211.56ZM498.228 211L489.188 183H497.028L502.468 202.28L507.948 183H515.788L506.748 211H498.228ZM533.909 175L529.269 180.8H522.949L526.149 175H533.909ZM525.149 204.28H535.989V211H517.989V183H535.789V189.68H525.149V193.56H534.789V200.16H525.149V204.28ZM553.995 211L549.115 201.96H546.555V211H539.395V183H550.595C553.449 183 555.835 183.92 557.755 185.76C559.702 187.573 560.675 189.88 560.675 192.68C560.675 194.36 560.249 195.907 559.395 197.32C558.542 198.707 557.382 199.813 555.915 200.64L561.675 211H553.995ZM546.555 189.6V195.88H550.515C551.395 195.907 552.115 195.627 552.675 195.04C553.235 194.453 553.515 193.693 553.515 192.76C553.515 191.827 553.235 191.067 552.675 190.48C552.115 189.893 551.395 189.6 550.515 189.6H546.555ZM564.2 183H571.36V211H564.2V183ZM592.963 189.92H582.923V194.48H592.763V201.4H582.923V211H575.763V183H592.963V189.92ZM596.466 183H603.626V211H596.466V183ZM615.188 204.28H626.028V211H608.028V183H625.828V189.68H615.188V193.56H624.828V200.16H615.188V204.28ZM637.834 204.08H648.034V211H628.554V205.48L638.434 189.92H628.754V183H647.714V188.52L637.834 204.08Z" fill="white"/>
<g clip-path="url(#clip2_229_96)">
<path d="M613.28 22.715H481.72C478.956 22.715 476.715 24.9558 476.715 27.72V159.28C476.715 162.044 478.956 164.285 481.72 164.285H613.28C616.044 164.285 618.285 162.044 618.285 159.28V27.72C618.285 24.9558 616.044 22.715 613.28 22.715Z" stroke="white"/>
<path d="M607.56 67.4206V121.009C607.56 124.765 604.517 127.82 600.776 127.82H492.794C489.053 127.82 486.01 124.765 486.01 121.009V67.4206C486.01 63.6648 489.053 60.61 492.794 60.61H600.776C604.517 60.61 607.56 63.6648 607.56 67.4206ZM604.659 67.4206C604.659 65.2715 602.917 63.5225 600.776 63.5225H492.794C490.653 63.5225 488.911 65.2715 488.911 67.4206V121.009C488.911 123.158 490.653 124.908 492.794 124.908H600.776C602.917 124.908 604.659 123.158 604.659 121.009V67.4206ZM525.414 71.1262V117.304C525.414 119.366 523.698 121.043 521.59 121.043H494.841C492.733 121.043 491.018 119.366 491.018 117.304V71.1262C491.018 69.064 492.733 67.3868 494.841 67.3868H521.589C523.698 67.3868 525.414 69.064 525.414 71.1262ZM522.513 71.1262C522.513 70.6775 522.09 70.2978 521.589 70.2978H494.841C494.34 70.2978 493.917 70.6775 493.917 71.1262V117.304C493.917 117.753 494.34 118.132 494.841 118.132H521.589C522.09 118.132 522.513 117.753 522.513 117.304V71.1262ZM563.983 71.1262V117.304C563.983 119.366 562.268 121.043 560.159 121.043H533.41C531.302 121.043 529.587 119.366 529.587 117.304V71.1262C529.587 69.064 531.302 67.3868 533.41 67.3868H560.158C562.268 67.3868 563.983 69.064 563.983 71.1262ZM561.083 71.1262C561.083 70.6775 560.66 70.2978 560.159 70.2978H533.41C532.909 70.2978 532.486 70.6775 532.486 71.1262V117.304C532.486 117.753 532.909 118.132 533.41 118.132H560.158C560.659 118.132 561.082 117.753 561.082 117.304L561.083 71.1262ZM602.553 71.1262V117.304C602.553 119.366 600.838 121.043 598.73 121.043H571.981C569.873 121.043 568.157 119.366 568.157 117.304V71.1262C568.157 69.064 569.873 67.3868 571.981 67.3868H598.729C600.837 67.3868 602.553 69.064 602.553 71.1262ZM599.652 71.1262C599.652 70.6775 599.23 70.2978 598.729 70.2978H571.981C571.48 70.2978 571.057 70.6775 571.057 71.1262V117.304C571.057 117.753 571.48 118.132 571.981 118.132H598.729C599.23 118.132 599.652 117.753 599.652 117.304V71.1262ZM595.659 81.8187C595.659 83.9489 593.933 85.6817 591.811 85.6817H578.898C576.777 85.6817 575.051 83.9489 575.051 81.8187C575.051 80.0737 576.248 78.5511 577.88 78.0942C578.511 77.1179 579.57 76.4956 580.749 76.4332C581.594 75.0285 583.131 74.1322 584.806 74.1322C586.186 74.1322 587.474 74.7315 588.362 75.7458C588.725 75.6454 589.103 75.594 589.484 75.594C591.244 75.594 592.802 76.7016 593.418 78.3084C594.765 78.9294 595.659 80.2879 595.659 81.8187ZM592.759 81.8187C592.759 81.389 592.457 81.0012 592.039 80.8954C591.39 80.7314 590.903 80.2189 590.77 79.5599C590.647 78.9483 590.105 78.505 589.484 78.505C589.245 78.505 589.022 78.5661 588.819 78.6853C588.409 78.9267 587.933 78.9891 587.48 78.8629C587.022 78.7341 586.648 78.4331 586.422 78.0142C586.101 77.4162 585.482 77.0434 584.806 77.0434C584.037 77.0434 583.343 77.5302 583.081 78.2542C582.788 79.0596 581.938 79.5327 581.102 79.3551C581.051 79.3443 580.998 79.3388 580.944 79.3388C580.638 79.3388 580.364 79.5233 580.246 79.808C580 80.4032 579.451 80.8113 578.81 80.8697C578.33 80.9144 577.951 81.3307 577.951 81.8175C577.951 82.3327 578.385 82.7693 578.9 82.7693H591.812C592.324 82.7705 592.759 82.3354 592.759 81.8187ZM583.591 90.788C584.016 90.788 584.437 90.6022 584.723 90.2429L585.519 89.249C586.02 88.6213 585.92 87.7061 585.296 87.203C584.671 86.6999 583.759 86.8003 583.258 87.4268L582.462 88.4206C581.961 89.0484 582.061 89.9636 582.685 90.4667C582.953 90.6836 583.273 90.788 583.591 90.788ZM587.955 90.788C588.379 90.788 588.801 90.6022 589.087 90.2429L589.882 89.249C590.383 88.6213 590.284 87.7061 589.659 87.203C589.034 86.6999 588.121 86.8003 587.622 87.4268L586.826 88.4206C586.325 89.0484 586.425 89.9636 587.049 90.4667C587.316 90.6836 587.638 90.788 587.955 90.788ZM579.228 90.788C579.652 90.788 580.073 90.6022 580.36 90.2429L581.155 89.249C581.656 88.6213 581.556 87.7061 580.932 87.203C580.307 86.6999 579.394 86.8003 578.894 87.4268L578.099 88.4206C577.598 89.0484 577.698 89.9636 578.322 90.4667C578.589 90.6836 578.909 90.788 579.228 90.788ZM503.732 83.6424C503.732 81.1612 505.743 79.1422 508.214 79.1422C510.686 79.1422 512.697 81.1612 512.697 83.6424C512.697 86.1238 510.686 88.1426 508.214 88.1426C505.743 88.1426 503.732 86.125 503.732 83.6424ZM506.633 83.6424C506.633 84.5183 507.343 85.2316 508.216 85.2316C509.088 85.2316 509.798 84.5183 509.798 83.6424C509.798 82.7665 509.088 82.0534 508.216 82.0534C507.343 82.0547 506.633 82.7665 506.633 83.6424ZM508.216 78.5389C509.016 78.5389 509.666 77.8867 509.666 77.0827V75.5871C509.666 74.7831 509.016 74.1309 508.216 74.1309C507.415 74.1309 506.765 74.7831 506.765 75.5871V77.0827C506.765 77.8881 507.415 78.5389 508.216 78.5389ZM502.57 80.0344C502.854 80.3191 503.224 80.4602 503.595 80.4602C503.967 80.4602 504.338 80.3178 504.62 80.0331C505.186 79.465 505.186 78.5429 504.62 77.9749L503.567 76.9186C503.001 76.3504 502.083 76.3504 501.516 76.9186C500.95 77.4867 500.95 78.4088 501.516 78.9769L502.57 80.0344ZM503.132 83.6439C503.132 82.8398 502.483 82.1875 501.682 82.1875H500.192C499.391 82.1875 498.741 82.8398 498.741 83.6439C498.741 84.4478 499.391 85.1 500.192 85.1H501.682C502.483 85.0987 503.132 84.4478 503.132 83.6439ZM502.57 87.2519L501.517 88.3094C500.951 88.8775 500.951 89.7996 501.517 90.369C501.8 90.6537 502.17 90.7947 502.542 90.7947C502.913 90.7947 503.285 90.6524 503.567 90.369L504.62 89.3114C505.186 88.7432 505.186 87.8213 504.62 87.2519C504.055 86.6837 503.136 86.6837 502.57 87.2519ZM506.765 90.2023V91.6978C506.765 92.5018 507.415 93.1541 508.216 93.1541C509.016 93.1541 509.666 92.5018 509.666 91.6978V90.2023C509.666 89.3982 509.016 88.7459 508.216 88.7459C507.415 88.7474 506.765 89.3982 506.765 90.2023ZM511.809 89.3101L512.863 90.3677C513.146 90.6524 513.517 90.7947 513.888 90.7947C514.259 90.7947 514.631 90.6524 514.913 90.369C515.479 89.8009 515.479 88.8789 514.913 88.3108L513.86 87.2532C513.294 86.685 512.375 86.685 511.808 87.2532C511.244 87.8199 511.244 88.7419 511.809 89.3101ZM516.238 82.1875H514.748C513.947 82.1875 513.298 82.8398 513.298 83.6439C513.298 84.4478 513.947 85.1 514.748 85.1H516.238C517.039 85.1 517.688 84.4478 517.688 83.6439C517.688 82.8398 517.039 82.1875 516.238 82.1875ZM512.836 80.4602C513.207 80.4602 513.579 80.3178 513.861 80.0331L514.914 78.9755C515.48 78.4073 515.48 77.4854 514.914 76.9173C514.349 76.3491 513.43 76.3491 512.863 76.9173L511.809 77.9749C511.244 78.5429 511.244 79.465 511.809 80.0331C512.093 80.3191 512.464 80.4602 512.836 80.4602ZM515.582 104.028H501.99C501.189 104.028 500.539 104.68 500.539 105.484C500.539 106.288 501.189 106.941 501.99 106.941H515.583C516.384 106.941 517.033 106.288 517.033 105.484C517.032 104.679 516.382 104.028 515.582 104.028ZM515.582 111.385H501.99C501.189 111.385 500.539 112.038 500.539 112.841C500.539 113.646 501.189 114.298 501.99 114.298H515.583C516.384 114.298 517.033 113.646 517.033 112.841C517.032 112.038 516.382 111.385 515.582 111.385ZM557.089 81.8187C557.089 83.9489 555.363 85.6817 553.242 85.6817H540.329C538.207 85.6817 536.481 83.9489 536.481 81.8187C536.481 80.0737 537.681 78.5498 539.311 78.0942C539.943 77.1179 541.002 76.4956 542.178 76.4332C543.023 75.0285 544.56 74.1322 546.235 74.1322C547.615 74.1322 548.904 74.7315 549.791 75.7458C550.154 75.6454 550.533 75.594 550.913 75.594C552.673 75.594 554.232 76.7016 554.846 78.3084C556.195 78.9294 557.089 80.2879 557.089 81.8187ZM554.188 81.8187C554.188 81.389 553.886 81.0012 553.469 80.8954C552.819 80.7314 552.333 80.2189 552.199 79.5599C552.076 78.9483 551.535 78.505 550.913 78.505C550.674 78.505 550.452 78.5661 550.249 78.6853C549.841 78.9267 549.366 78.9891 548.909 78.8616C548.453 78.7341 548.077 78.4331 547.852 78.0128C547.53 77.4149 546.912 77.042 546.235 77.042C545.467 77.042 544.774 77.5287 544.51 78.2528C544.217 79.0581 543.366 79.5315 542.532 79.3537C542.481 79.343 542.428 79.3375 542.374 79.3375C542.067 79.3375 541.793 79.5219 541.676 79.8066C541.431 80.4005 540.881 80.8086 540.24 80.8684C539.759 80.913 539.381 81.3293 539.381 81.816C539.381 82.3313 539.815 82.7678 540.329 82.7678H553.242C553.755 82.7706 554.188 82.3354 554.188 81.8187ZM553.581 104.028H539.989C539.188 104.028 538.538 104.68 538.538 105.484C538.538 106.288 539.188 106.941 539.989 106.941H553.582C554.383 106.941 555.033 106.288 555.033 105.484C555.031 104.679 554.382 104.028 553.581 104.028ZM553.581 111.385H539.989C539.188 111.385 538.538 112.038 538.538 112.841C538.538 113.646 539.188 114.298 539.989 114.298H553.582C554.383 114.298 555.033 113.646 555.033 112.841C555.031 112.038 554.382 111.385 553.581 111.385ZM592.151 104.028H578.558C577.757 104.028 577.107 104.68 577.107 105.484C577.107 106.288 577.757 106.941 578.558 106.941H592.151C592.952 106.941 593.602 106.288 593.602 105.484C593.602 104.679 592.952 104.028 592.151 104.028ZM592.151 111.385H578.558C577.757 111.385 577.107 112.038 577.107 112.841C577.107 113.646 577.757 114.298 578.558 114.298H592.151C592.952 114.298 593.602 113.646 593.602 112.841C593.602 112.038 592.952 111.385 592.151 111.385Z" fill="white"/>
</g>
<g clip-path="url(#clip3_229_96)">
<path fill-rule="evenodd" clip-rule="evenodd" d="M735.172 96.6716C736.734 95.1095 739.266 95.1095 740.828 96.6716L764.828 120.672C766.391 122.234 766.391 124.766 764.828 126.328L740.828 150.328C739.266 151.89 736.734 151.89 735.172 150.328C733.609 148.766 733.609 146.234 735.172 144.672L756.343 123.5L735.172 102.328C733.609 100.766 733.609 98.2337 735.172 96.6716Z" fill="white"/>
</g>
<path d="M865.92 194.4C867.707 194.96 869.147 195.92 870.24 197.28C871.333 198.64 871.88 200.28 871.88 202.2C871.88 205.213 870.893 207.533 868.92 209.16C866.947 210.787 864.507 211.6 861.6 211.6C859.28 211.6 857.213 211.067 855.4 210C853.613 208.933 852.32 207.36 851.52 205.28L857.76 201.72C858.347 203.667 859.627 204.64 861.6 204.64C862.613 204.64 863.387 204.4 863.92 203.92C864.48 203.44 864.76 202.8 864.76 202C864.76 201.2 864.48 200.573 863.92 200.12C863.387 199.64 862.613 199.4 861.6 199.4H860.08L857.32 195.32L861.8 189.84H852.4V183H870.6V188.64L865.92 194.4ZM877.933 211.56C876.759 211.56 875.759 211.16 874.933 210.36C874.133 209.533 873.733 208.547 873.733 207.4C873.733 206.253 874.146 205.28 874.973 204.48C875.799 203.653 876.786 203.24 877.933 203.24C879.079 203.24 880.053 203.653 880.853 204.48C881.679 205.28 882.093 206.253 882.093 207.4C882.093 208.547 881.679 209.533 880.853 210.36C880.053 211.16 879.079 211.56 877.933 211.56ZM918.958 207.4C916.131 210.2 912.664 211.6 908.558 211.6C904.451 211.6 900.971 210.2 898.118 207.4C895.291 204.573 893.878 201.107 893.878 197C893.878 192.893 895.291 189.44 898.118 186.64C900.971 183.813 904.451 182.4 908.558 182.4C912.664 182.4 916.131 183.813 918.958 186.64C921.811 189.44 923.238 192.893 923.238 197C923.238 201.107 921.811 204.573 918.958 207.4ZM903.158 202.48C904.598 203.893 906.398 204.6 908.558 204.6C910.718 204.6 912.518 203.893 913.958 202.48C915.398 201.04 916.118 199.213 916.118 197C916.118 194.787 915.398 192.973 913.958 191.56C912.518 190.12 910.718 189.4 908.558 189.4C906.398 189.4 904.598 190.12 903.158 191.56C901.718 192.973 900.998 194.787 900.998 197C900.998 199.213 901.718 201.04 903.158 202.48ZM941.159 211L936.279 201.96H933.719V211H926.559V183H937.759C940.613 183 942.999 183.92 944.919 185.76C946.866 187.573 947.839 189.88 947.839 192.68C947.839 194.36 947.413 195.907 946.559 197.32C945.706 198.707 944.546 199.813 943.079 200.64L948.839 211H941.159ZM933.719 189.6V195.88H937.679C938.559 195.907 939.279 195.627 939.839 195.04C940.399 194.453 940.679 193.693 940.679 192.76C940.679 191.827 940.399 191.067 939.839 190.48C939.279 189.893 938.559 189.6 937.679 189.6H933.719ZM978.773 194.96V197.8C978.773 201.907 977.48 205.24 974.893 207.8C972.333 210.333 969 211.6 964.893 211.6C960.52 211.6 956.92 210.2 954.093 207.4C951.293 204.6 949.893 201.147 949.893 197.04C949.893 192.933 951.293 189.467 954.093 186.64C956.893 183.813 960.36 182.4 964.493 182.4C967.107 182.4 969.493 182.987 971.653 184.16C973.84 185.333 975.547 186.893 976.773 188.84L970.693 192.32C970.133 191.44 969.307 190.733 968.213 190.2C967.147 189.667 965.933 189.4 964.573 189.4C962.36 189.4 960.547 190.12 959.133 191.56C957.72 193 957.013 194.84 957.013 197.08C957.013 199.24 957.707 201.067 959.093 202.56C960.507 204.053 962.48 204.8 965.013 204.8C968.267 204.8 970.413 203.573 971.453 201.12H964.653V194.96H978.773ZM998.171 211L996.971 206.96H987.651L986.451 211H978.691L987.931 183H996.651L1005.89 211H998.171ZM989.491 200.8H995.131L992.291 191.28L989.491 200.8ZM1023.37 183H1030.49V211H1024.97L1015.09 196.92V211H1007.93V183H1013.49L1023.37 197.08V183ZM1034.92 183H1042.08V211H1034.92V183ZM1056.05 211.6C1053.09 211.6 1050.64 210.973 1048.69 209.72C1046.74 208.467 1045.38 206.773 1044.61 204.64L1050.73 201.08C1051.77 203.56 1053.61 204.8 1056.25 204.8C1058.44 204.8 1059.53 204.173 1059.53 202.92C1059.53 202.093 1058.9 201.427 1057.65 200.92C1057.12 200.707 1055.94 200.347 1054.13 199.84C1051.57 199.093 1049.54 198.053 1048.05 196.72C1046.56 195.36 1045.81 193.48 1045.81 191.08C1045.81 188.493 1046.73 186.4 1048.57 184.8C1050.44 183.2 1052.76 182.4 1055.53 182.4C1057.88 182.4 1059.96 182.947 1061.77 184.04C1063.58 185.133 1064.97 186.72 1065.93 188.8L1059.93 192.32C1059.05 190.24 1057.6 189.2 1055.57 189.2C1054.72 189.2 1054.06 189.373 1053.61 189.72C1053.18 190.067 1052.97 190.507 1052.97 191.04C1052.97 191.653 1053.29 192.173 1053.93 192.6C1054.6 193.027 1055.88 193.52 1057.77 194.08C1059.13 194.48 1060.22 194.853 1061.05 195.2C1061.88 195.547 1062.78 196.053 1063.77 196.72C1064.76 197.36 1065.49 198.2 1065.97 199.24C1066.45 200.253 1066.69 201.453 1066.69 202.84C1066.69 205.587 1065.72 207.733 1063.77 209.28C1061.82 210.827 1059.25 211.6 1056.05 211.6ZM1076.45 204.28H1087.29V211H1069.29V183H1087.09V189.68H1076.45V193.56H1086.09V200.16H1076.45V204.28ZM1099.1 204.08H1109.3V211H1089.82V205.48L1099.7 189.92H1090.02V183H1108.98V188.52L1099.1 204.08Z" fill="white"/>
<g clip-path="url(#clip4_229_96)">
<path d="M1046.28 22.715H914.72C911.956 22.715 909.715 24.9558 909.715 27.72V159.28C909.715 162.044 911.956 164.285 914.72 164.285H1046.28C1049.04 164.285 1051.28 162.044 1051.28 159.28V27.72C1051.28 24.9558 1049.04 22.715 1046.28 22.715Z" stroke="white"/>
<path d="M956.82 164.176C945.451 144.532 929.071 128.16 909.43 116.79V159.176C909.43 161.938 911.668 164.176 914.43 164.176H956.82Z" fill="white"/>
<path d="M1020.68 43.8254C1018.24 46.2408 1018.27 50.2202 1020.74 52.714C1023.21 55.2076 1027.18 55.2711 1029.62 52.8557C1032.06 50.4404 1032.04 46.4609 1029.57 43.9673C1027.1 41.4736 1023.12 41.4101 1020.68 43.8254Z" fill="white"/>
<path d="M1033.71 31.7079C1031.49 33.9104 1031.51 37.5387 1033.76 39.8118C1036.02 42.0849 1039.64 42.1421 1041.87 39.9396C1044.09 37.7372 1044.07 34.109 1041.82 31.8359C1039.57 29.5627 1035.94 29.5055 1033.71 31.7079Z" fill="white"/>
<path d="M946.452 123.835C945.789 124.492 945.796 125.575 946.468 126.253C947.14 126.931 948.222 126.949 948.885 126.291C949.548 125.635 949.541 124.552 948.869 123.874C948.197 123.195 947.115 123.178 946.452 123.835Z" fill="white"/>
<path d="M942.518 127.994C941.929 128.579 941.936 129.543 942.536 130.147C943.135 130.75 944.098 130.765 944.688 130.18C945.278 129.595 945.27 128.631 944.671 128.027C944.072 127.424 943.108 127.409 942.518 127.994Z" fill="white"/>
<path d="M940.385 132.277C940.016 131.903 940.012 131.305 940.376 130.943C940.744 130.581 941.342 130.588 941.71 130.962C942.081 131.338 942.085 131.934 941.719 132.299C941.353 132.658 940.757 132.65 940.385 132.277Z" fill="white"/>
<path d="M938.58 133.28C938.366 133.491 938.368 133.839 938.584 134.058C938.8 134.276 939.148 134.283 939.361 134.072C939.575 133.861 939.573 133.513 939.358 133.294C939.142 133.076 938.794 133.069 938.58 133.28Z" fill="white"/>
<path d="M990.301 76.4071C992.646 81.7324 998.183 85.1286 1004.13 84.3865C1010.09 83.6414 1014.62 78.9896 1015.58 73.2453C1024.04 71.4264 1029.69 69.2099 1029.48 67.4967C1029.26 65.7807 1023.25 65.0214 1014.6 65.3417C1012.25 60.0121 1006.71 56.6159 1000.76 57.3595C994.807 58.1045 990.276 62.7577 989.314 68.4992C980.848 70.3196 975.208 72.5346 975.423 74.2492C975.635 75.9652 981.648 76.726 990.301 76.4071ZM1015.2 66.9977C1020.48 66.8575 1023.95 67.2522 1024.07 68.1717C1024.18 69.0912 1020.91 70.3267 1015.76 71.4936C1015.79 70.7471 1015.76 69.9849 1015.66 69.2213C1015.57 68.4563 1015.41 67.7127 1015.2 66.9977ZM1013.91 65.429L1001.18 66.3513C1010.8 64.1405 1013.91 65.429 1013.91 65.429ZM989.132 70.2538C989.104 70.9988 989.134 71.7596 989.231 72.5232C989.327 73.2897 989.483 74.0347 989.693 74.7497C984.413 74.8855 980.941 74.4937 980.828 73.5742C980.714 72.6562 983.981 71.4207 989.132 70.2538Z" fill="white"/>
<path d="M958.157 88.1934C950.928 95.3506 951.002 107.145 958.321 114.537C965.641 121.93 977.434 122.12 984.662 114.963C991.891 107.806 991.817 96.0114 984.498 88.6191C977.178 81.2269 965.385 81.0363 958.157 88.1934Z" fill="white"/>
</g>
<g clip-path="url(#clip5_229_96)">
<path fill-rule="evenodd" clip-rule="evenodd" d="M1197.17 96.6716C1198.73 95.1095 1201.27 95.1095 1202.83 96.6716L1226.83 120.672C1228.39 122.234 1228.39 124.766 1226.83 126.328L1202.83 150.328C1201.27 151.89 1198.73 151.89 1197.17 150.328C1195.61 148.766 1195.61 146.234 1197.17 144.672L1218.34 123.5L1197.17 102.328C1195.61 100.766 1195.61 98.2337 1197.17 96.6716Z" fill="white"/>
</g>
<path d="M1335.8 200.2V206.72H1333V211H1325.88V206.72H1313.6V200.2L1321.96 183H1329.88L1321.44 200.2H1325.88V195.16H1333V200.2H1335.8ZM1341.93 211.56C1340.75 211.56 1339.75 211.16 1338.93 210.36C1338.13 209.533 1337.73 208.547 1337.73 207.4C1337.73 206.253 1338.14 205.28 1338.97 204.48C1339.79 203.653 1340.78 203.24 1341.93 203.24C1343.07 203.24 1344.05 203.653 1344.85 204.48C1345.67 205.28 1346.09 206.253 1346.09 207.4C1346.09 208.547 1345.67 209.533 1344.85 210.36C1344.05 211.16 1343.07 211.56 1341.93 211.56ZM1369.83 183C1372.66 183 1375.03 183.92 1376.95 185.76C1378.87 187.6 1379.83 189.947 1379.83 192.8C1379.83 195.653 1378.87 198 1376.95 199.84C1375.03 201.68 1372.66 202.6 1369.83 202.6H1366.11V211H1358.95V183H1369.83ZM1369.83 195.8C1370.63 195.8 1371.3 195.52 1371.83 194.96C1372.39 194.4 1372.67 193.68 1372.67 192.8C1372.67 191.92 1372.39 191.213 1371.83 190.68C1371.3 190.12 1370.63 189.84 1369.83 189.84H1366.11V195.8H1369.83ZM1397.08 211L1395.88 206.96H1386.56L1385.36 211H1377.6L1386.84 183H1395.56L1404.8 211H1397.08ZM1388.4 200.8H1394.04L1391.2 191.28L1388.4 200.8ZM1421.44 211L1416.56 201.96H1414V211H1406.84V183H1418.04C1420.89 183 1423.28 183.92 1425.2 185.76C1427.15 187.573 1428.12 189.88 1428.12 192.68C1428.12 194.36 1427.69 195.907 1426.84 197.32C1425.99 198.707 1424.83 199.813 1423.36 200.64L1429.12 211H1421.44ZM1414 189.6V195.88H1417.96C1418.84 195.907 1419.56 195.627 1420.12 195.04C1420.68 194.453 1420.96 193.693 1420.96 192.76C1420.96 191.827 1420.68 191.067 1420.12 190.48C1419.56 189.893 1418.84 189.6 1417.96 189.6H1414ZM1450.26 183V189.92H1443.34V211H1436.18V189.92H1429.26V183H1450.26ZM1467.94 211L1466.74 206.96H1457.42L1456.22 211H1448.46L1457.7 183H1466.42L1475.66 211H1467.94ZM1459.26 200.8H1464.9L1462.06 191.28L1459.26 200.8ZM1504.48 194.96V197.8C1504.48 201.907 1503.19 205.24 1500.6 207.8C1498.04 210.333 1494.71 211.6 1490.6 211.6C1486.23 211.6 1482.63 210.2 1479.8 207.4C1477 204.6 1475.6 201.147 1475.6 197.04C1475.6 192.933 1477 189.467 1479.8 186.64C1482.6 183.813 1486.07 182.4 1490.2 182.4C1492.82 182.4 1495.2 182.987 1497.36 184.16C1499.55 185.333 1501.26 186.893 1502.48 188.84L1496.4 192.32C1495.84 191.44 1495.02 190.733 1493.92 190.2C1492.86 189.667 1491.64 189.4 1490.28 189.4C1488.07 189.4 1486.26 190.12 1484.84 191.56C1483.43 193 1482.72 194.84 1482.72 197.08C1482.72 199.24 1483.42 201.067 1484.8 202.56C1486.22 204.053 1488.19 204.8 1490.72 204.8C1493.98 204.8 1496.12 203.573 1497.16 201.12H1490.36V194.96H1504.48ZM1514.98 204.28H1525.82V211H1507.82V183H1525.62V189.68H1514.98V193.56H1524.62V200.16H1514.98V204.28ZM1537.62 204.08H1547.82V211H1528.34V205.48L1538.22 189.92H1528.54V183H1547.5V188.52L1537.62 204.08Z" fill="white"/>
<g clip-path="url(#clip6_229_96)">
<path d="M1496.28 22.715H1364.72C1361.96 22.715 1359.71 24.9558 1359.71 27.72V159.28C1359.71 162.044 1361.96 164.285 1364.72 164.285H1496.28C1499.04 164.285 1501.28 162.044 1501.28 159.28V27.72C1501.28 24.9558 1499.04 22.715 1496.28 22.715Z" stroke="white"/>
<path d="M1428.3 130.394C1428.3 129.873 1427.88 129.452 1427.36 129.452H1372.81C1372.29 129.452 1371.87 129.873 1371.87 130.394C1371.87 130.915 1372.29 131.336 1372.81 131.336H1427.36C1427.88 131.336 1428.3 130.915 1428.3 130.394Z" fill="white"/>
<path d="M1489.62 128.99H1466.98C1466.46 128.99 1466.04 129.412 1466.04 129.933C1466.04 130.454 1466.46 130.875 1466.98 130.875H1489.62C1490.14 130.875 1490.56 130.454 1490.56 129.933C1490.56 129.412 1490.14 128.99 1489.62 128.99Z" fill="white"/>
<path d="M1459.98 54.9334C1459.88 54.8232 1459.84 54.7827 1459.84 54.7827C1459.47 54.4258 1458.88 54.4277 1458.52 54.7893C1458.16 55.1511 1458.15 55.7351 1458.5 56.1062L1458.58 56.1957L1458.59 56.2033C1459.25 56.8956 1464.95 63.0949 1460.61 67.4628C1460.42 67.6464 1460.33 67.8867 1460.33 68.1269C1460.33 68.369 1460.43 68.6111 1460.61 68.7947C1460.98 69.1631 1461.58 69.1612 1461.94 68.791C1466.12 64.5917 1471.99 69.75 1473.17 70.8652L1473.21 70.9124C1473.39 71.0904 1473.62 71.1771 1473.85 71.1771C1474.09 71.1771 1474.33 71.0791 1474.52 70.8888C1474.89 70.5204 1474.87 69.9017 1474.5 69.5333C1474.49 69.5296 1474.47 69.5107 1474.46 69.4908C1473.37 68.322 1468.29 62.4062 1472.45 58.221C1472.81 57.8518 1472.81 57.2555 1472.44 56.889C1472.07 56.5226 1471.48 56.5255 1471.11 56.8928L1471.11 56.8947C1466.93 61.0893 1461.05 55.9423 1459.98 54.9334Z" fill="white"/>
<path d="M1412.89 86.1914C1412.9 86.1961 1412.91 86.197 1412.91 86.2017C1412.91 86.2054 1412.91 86.2102 1412.92 86.214C1413.51 86.8404 1418.62 92.4424 1414.79 96.299C1414.6 96.4826 1414.51 96.7228 1414.51 96.963C1414.51 97.2051 1414.61 97.4471 1414.79 97.6309C1415.16 97.9992 1415.76 97.9954 1416.12 97.6271C1420.09 93.6406 1425.88 99.2586 1426.13 99.4989C1426.13 99.5026 1426.13 99.5063 1426.14 99.5102C1426.32 99.7014 1426.57 99.8077 1426.83 99.8077C1426.96 99.8077 1427.1 99.7786 1427.23 99.7164C1427.7 99.4923 1427.9 98.9299 1427.68 98.4607C1427.64 98.3798 1427.57 98.3007 1427.5 98.2253C1427.49 98.2112 1427.48 98.1933 1427.47 98.1791C1426.88 97.5526 1421.77 91.9479 1425.6 88.0932C1425.78 87.9096 1425.87 87.6693 1425.87 87.4291C1425.87 87.187 1425.78 86.9449 1425.6 86.7613C1425.23 86.3948 1424.63 86.3968 1424.26 86.765C1420.3 90.7506 1414.51 85.1335 1414.26 84.8924C1414.26 84.8877 1414.25 84.883 1414.25 84.8783C1414.24 84.8745 1414.24 84.8735 1414.23 84.8698L1414.23 84.8632L1384.24 54.6725C1383.87 54.3023 1383.27 54.3004 1382.91 54.6678C1382.54 55.0343 1382.53 55.6305 1382.9 55.9998L1412.89 86.1914Z" fill="white"/>
<path d="M1396.33 96.2706C1396.51 96.4553 1396.75 96.5485 1396.99 96.5485C1397.23 96.5485 1397.47 96.4571 1397.66 96.2745C1398.03 95.907 1398.03 95.3117 1397.66 94.9425L1377.76 74.9253C1377.39 74.5551 1376.79 74.5541 1376.43 74.9215C1376.06 75.288 1376.05 75.8841 1376.42 76.2535L1396.33 96.2706Z" fill="white"/>
<path d="M1441.53 90.8166C1441.72 91.0022 1441.96 91.0945 1442.2 91.0945C1442.44 91.0945 1442.68 91.0031 1442.86 90.8203C1443.23 90.454 1443.23 89.8576 1442.87 89.4884L1413.13 59.571C1412.76 59.2007 1412.17 59.1989 1411.8 59.5671C1411.43 59.9336 1411.43 60.5298 1411.79 60.8992L1441.53 90.8166Z" fill="white"/>
<path d="M1466.9 51.159C1467.08 51.3446 1467.33 51.4369 1467.57 51.4369C1467.81 51.4369 1468.05 51.3455 1468.23 51.1627C1468.6 50.7964 1468.6 50.2001 1468.24 49.8308L1456.48 38.0089C1456.11 37.6387 1455.52 37.6368 1455.15 38.0052C1454.78 38.3715 1454.78 38.9678 1455.14 39.3371L1466.9 51.159Z" fill="white"/>
<path d="M1456.93 76.862C1456.56 77.2285 1456.56 77.8246 1456.92 78.194L1464.96 86.2762C1465.14 86.4618 1465.38 86.5541 1465.63 86.5541C1465.87 86.5541 1466.11 86.4627 1466.29 86.2799C1466.66 85.9136 1466.66 85.3173 1466.29 84.948L1458.26 76.8658C1457.89 76.4956 1457.3 76.4937 1456.93 76.862Z" fill="white"/>
<path d="M1449.75 60.6636C1449.94 60.8482 1450.18 60.9415 1450.42 60.9415C1450.66 60.9415 1450.9 60.8501 1451.08 60.6675C1451.45 60.3 1451.46 59.7047 1451.09 59.3344L1446.45 54.6716C1446.09 54.3024 1445.49 54.3006 1445.12 54.6679C1444.75 55.0353 1444.75 55.6306 1445.12 56.0008L1449.75 60.6636Z" fill="white"/>
<path d="M1417.4 46.8061C1417.58 46.9916 1417.82 47.0848 1418.07 47.0848C1418.3 47.0848 1418.55 46.9936 1418.73 46.8117C1419.1 46.4453 1419.1 45.849 1418.73 45.4798L1414.1 40.8075C1413.73 40.4381 1413.14 40.4354 1412.77 40.8018C1412.4 41.1683 1412.4 41.7645 1412.76 42.1338L1417.4 46.8061Z" fill="white"/>
<path d="M1426.2 56.8391C1426.21 56.8438 1426.21 56.8447 1426.22 56.8494C1426.23 56.8588 1426.23 56.872 1426.24 56.8814C1426.25 56.8984 1426.27 56.9126 1426.29 56.9276C1426.29 56.9305 1426.29 56.9333 1426.29 56.9352C1426.3 56.9408 1426.31 56.9512 1426.32 56.9615C1426.32 56.9634 1426.32 56.9654 1426.32 56.9681C1426.33 56.9699 1426.33 56.972 1426.33 56.9738C1427.27 57.9948 1431.76 63.2681 1428.1 66.9466C1427.73 67.316 1427.73 67.9122 1428.1 68.2795C1428.47 68.6469 1429.07 68.645 1429.43 68.2767C1429.43 68.2748 1429.44 68.272 1429.44 68.2691C1433.16 64.5408 1438.38 69.1498 1439.39 70.1117C1439.41 70.1305 1439.43 70.1484 1439.43 70.1521C1439.44 70.1578 1439.44 70.1626 1439.45 70.1681C1439.63 70.3603 1439.88 70.4659 1440.14 70.4659C1440.28 70.4659 1440.43 70.4328 1440.57 70.3622C1441.03 70.1248 1441.21 69.5578 1440.97 69.0944C1440.93 69.0096 1440.85 68.8946 1440.73 68.7872C1439.77 67.766 1435.2 62.4825 1438.9 58.7589C1438.91 58.757 1438.91 58.7542 1438.91 58.7523C1439.28 58.3839 1439.28 57.7876 1438.91 57.4203C1438.54 57.0529 1437.94 57.0539 1437.58 57.4221C1437.57 57.425 1437.57 57.4268 1437.57 57.4297C1434.05 60.9508 1429.13 56.9822 1427.67 55.6551C1427.67 55.6475 1427.66 55.6399 1427.65 55.6323C1427.58 55.5485 1427.54 55.5136 1427.54 55.5118L1422.39 50.3309C1422.02 49.9607 1421.42 49.9598 1421.06 50.3272C1420.69 50.6945 1420.68 51.2898 1421.05 51.6591L1426.2 56.8391Z" fill="white"/>
<path d="M1463.32 135.781C1463.37 135.557 1463.4 135.331 1463.41 135.084C1463.47 133.687 1463.06 132.423 1462.25 131.426C1462.9 130.652 1463.76 129.24 1463.59 127.044C1463.38 124.282 1461.69 122.43 1459.99 121.474C1460.48 120.527 1460.95 119.169 1460.89 117.512C1460.81 115.416 1459.93 113.869 1459.33 113.048C1458.35 109.058 1454.83 106.289 1450.69 106.289C1449.67 106.289 1448.69 106.464 1447.76 106.795C1448.35 106.43 1448.75 105.994 1448.82 105.914C1449.01 105.694 1449.09 105.4 1449.03 105.117C1448.97 104.833 1448.79 104.591 1448.53 104.461C1447.49 103.929 1446.64 103.362 1446.02 102.778C1444.81 101.635 1443.42 100.987 1441.89 100.848C1440.26 100.317 1438.39 100.316 1436.74 100.858C1434.6 100.764 1431.69 99.6816 1431.66 99.6703C1431.37 99.5647 1431.05 99.6015 1430.8 99.7711C1430.55 99.9406 1430.39 100.223 1430.39 100.528C1430.35 101.904 1430.91 102.896 1431.49 103.553C1430.33 104.363 1428.83 105.998 1428.47 109.154C1428.33 110.302 1427.91 111.297 1427.22 112.112C1426.97 112.406 1426.92 112.822 1427.1 113.162C1427.28 113.503 1427.66 113.7 1428.04 113.659C1428.23 113.638 1429.47 113.486 1430.59 112.952C1431.27 115.71 1433 117.954 1435.26 119.195C1431.6 120.768 1429.03 124.409 1429.03 128.641V135.868C1426.59 136.588 1424.78 138.246 1424.53 140.094C1424.37 141.304 1424.85 142.656 1425.85 143.801C1427.26 145.407 1429.42 146.345 1431.8 146.413C1432.71 146.98 1433.76 147.292 1434.85 147.292H1443.77C1443.95 147.292 1444.13 147.28 1444.31 147.263C1445.4 148.866 1447.19 149.83 1449.12 149.83C1449.3 149.83 1449.48 149.822 1449.66 149.805L1458.54 148.958C1460.27 148.799 1461.83 147.854 1462.8 146.418C1464.15 146.105 1468.51 144.892 1469.89 142.108C1470.52 140.844 1470.47 139.468 1469.75 138.02C1468.48 135.463 1465.16 135.527 1463.32 135.781ZM1457.54 113.659C1457.57 113.796 1457.63 113.925 1457.71 114.035C1458.17 114.62 1458.94 115.857 1459 117.58C1459.07 119.37 1458.33 120.707 1457.88 121.344C1457.71 121.585 1457.66 121.89 1457.75 122.17C1457.84 122.451 1458.05 122.675 1458.33 122.774C1458.85 122.962 1461.47 124.057 1461.71 127.187C1461.86 129.209 1460.84 130.208 1460.41 130.633C1460.34 130.7 1460.28 130.758 1460.24 130.803C1460.07 130.992 1460 131.26 1460.01 131.517C1460.03 131.774 1460.17 132.027 1460.37 132.193C1461.39 133.045 1461.56 134.195 1461.53 135.011C1461.52 135.362 1461.45 135.659 1461.32 135.938C1460.93 136.839 1459.97 137.346 1459.09 137.723C1458.83 137.83 1458.64 138.043 1458.56 138.304C1458.47 138.565 1458.51 138.849 1458.65 139.084C1459.25 140.054 1459.15 141.279 1458.43 141.929C1457.75 142.543 1456.75 142.361 1456.44 142.289C1456.16 142.225 1455.87 142.289 1455.64 142.466C1455.09 142.899 1454.19 143.417 1453.02 143.424C1451.21 143.424 1450.01 142.179 1449.57 141.644C1449.58 141.59 1449.58 141.537 1449.58 141.482V128.643C1449.58 125.514 1448.19 122.608 1445.76 120.651L1445.75 120.64C1445.02 119.947 1444.44 119.01 1444.08 117.93C1443.81 117.098 1443.67 116.196 1443.67 115.248C1443.67 112.581 1445.13 110.169 1447.48 108.954C1448.48 108.435 1449.56 108.174 1450.69 108.174C1454.01 108.173 1456.83 110.43 1457.54 113.659ZM1432.2 111.21C1432.16 110.823 1431.89 110.498 1431.52 110.394C1431.14 110.288 1430.74 110.421 1430.51 110.732C1430.38 110.906 1430.16 111.059 1429.91 111.191C1430.12 110.621 1430.26 110.014 1430.34 109.373C1430.79 105.448 1433.33 104.675 1433.43 104.646C1433.81 104.546 1434.09 104.222 1434.13 103.832C1434.17 103.442 1433.96 103.068 1433.61 102.893C1433.61 102.888 1433.04 102.6 1432.65 101.975C1433.84 102.324 1435.47 102.718 1436.86 102.745C1436.97 102.747 1437.08 102.728 1437.19 102.691C1438.53 102.218 1440.08 102.216 1441.39 102.667C1441.47 102.692 1441.55 102.709 1441.63 102.715C1442.77 102.798 1443.81 103.28 1444.73 104.148C1445.19 104.578 1445.73 104.992 1446.36 105.39C1446.28 105.414 1446.2 105.429 1446.12 105.43C1445.79 105.436 1445.48 105.619 1445.32 105.911C1445.15 106.203 1445.15 106.559 1445.32 106.848L1445.51 107.163C1445.64 107.383 1445.75 107.569 1445.85 107.746C1443.33 109.387 1441.78 112.176 1441.78 115.245C1441.78 116.111 1441.88 116.949 1442.07 117.748C1441.23 118.156 1440.32 118.364 1439.33 118.364H1439.31C1435.65 118.356 1432.59 115.28 1432.2 111.21ZM1427.27 142.56C1426.63 141.834 1426.31 141.005 1426.39 140.348C1426.53 139.378 1427.6 138.411 1429.03 137.856V141.48C1429.03 142.418 1429.26 143.326 1429.68 144.138C1428.73 143.802 1427.89 143.27 1427.27 142.56ZM1434.85 145.408C1434.04 145.408 1433.26 145.167 1432.61 144.71C1431.55 143.972 1430.91 142.764 1430.91 141.48V128.641C1430.91 124.013 1434.68 120.248 1439.31 120.248H1439.33C1441.23 120.248 1443.01 120.871 1444.5 122.048C1444.53 122.073 1444.55 122.098 1444.56 122.104C1444.57 122.11 1444.58 122.112 1444.58 122.118C1446.56 123.717 1447.7 126.087 1447.7 128.64V141.479C1447.7 141.6 1447.69 141.721 1447.68 141.863C1447.52 143.572 1446.28 144.96 1444.58 145.318C1444.32 145.377 1444.05 145.407 1443.77 145.407L1434.85 145.408ZM1458.37 147.081L1449.49 147.928C1448.27 148.051 1447.09 147.581 1446.27 146.709C1447.54 146.11 1448.54 145.092 1449.1 143.825C1449.98 144.56 1451.3 145.305 1453.03 145.305C1454.5 145.296 1455.66 144.749 1456.45 144.204C1457.22 144.31 1458.59 144.316 1459.69 143.329C1460.84 142.297 1461.2 140.584 1460.7 139.042C1460.98 138.895 1461.25 138.718 1461.52 138.526L1461.92 142.759C1462 143.578 1461.82 144.389 1461.41 145.111C1460.77 146.228 1459.64 146.965 1458.37 147.081ZM1468.21 141.27C1467.5 142.688 1465.38 143.666 1463.71 144.208C1463.81 143.675 1463.85 143.129 1463.79 142.58L1463.33 137.69C1464.65 137.479 1467.28 137.284 1468.06 138.859C1468.51 139.764 1468.56 140.552 1468.21 141.27Z" fill="white"/>
</g>
<defs>
<clipPath id="clip0_229_96">
<rect width="143" height="143" fill="white" transform="translate(62 22)"/>
</clipPath>
<clipPath id="clip1_229_96">
<rect width="32" height="56" fill="white" transform="translate(330 95.5)"/>
</clipPath>
<clipPath id="clip2_229_96">
<rect width="143" height="143" fill="white" transform="translate(476 22)"/>
</clipPath>
<clipPath id="clip3_229_96">
<rect width="32" height="56" fill="white" transform="translate(734 95.5)"/>
</clipPath>
<clipPath id="clip4_229_96">
<rect width="143" height="143" fill="white" transform="translate(909 22)"/>
</clipPath>
<clipPath id="clip5_229_96">
<rect width="32" height="56" fill="white" transform="translate(1196 95.5)"/>
</clipPath>
<clipPath id="clip6_229_96">
<rect width="143" height="143" fill="white" transform="translate(1359 22)"/>
</clipPath>
</defs>
</svg>
