<svg width="1040" height="864" viewBox="0 0 1040 864" fill="none" xmlns="http://www.w3.org/2000/svg">
<g clip-path="url(#clip0_230_73)">
<path d="M79.4087 265.325H89.2647V310.125H77.8087V277.357L70.0007 279.341L67.2487 269.677L79.4087 265.325ZM102.709 311.021C100.831 311.021 99.2314 310.381 97.9087 309.101C96.6287 307.778 95.9887 306.2 95.9887 304.365C95.9887 302.53 96.65 300.973 97.9727 299.693C99.2954 298.37 100.874 297.709 102.709 297.709C104.543 297.709 106.101 298.37 107.381 299.693C108.703 300.973 109.365 302.53 109.365 304.365C109.365 306.2 108.703 307.778 107.381 309.101C106.101 310.381 104.543 311.021 102.709 311.021ZM147.357 265.325C151.879 265.325 155.677 266.797 158.749 269.741C161.821 272.685 163.357 276.44 163.357 281.005C163.357 285.57 161.821 289.325 158.749 292.269C155.677 295.213 151.879 296.685 147.357 296.685H141.405V310.125H129.949V265.325H147.357ZM147.357 285.805C148.637 285.805 149.703 285.357 150.557 284.461C151.453 283.565 151.901 282.413 151.901 281.005C151.901 279.597 151.453 278.466 150.557 277.613C149.703 276.717 148.637 276.269 147.357 276.269H141.405V285.805H147.357ZM179.28 299.053H194.704V310.125H167.824V265.325H179.28V299.053ZM227.464 310.125L225.544 303.661H210.632L208.712 310.125H196.296L211.08 265.325H225.032L239.816 310.125H227.464ZM213.576 293.805H222.6L218.056 278.573L213.576 293.805ZM267.778 265.325H279.17V310.125H270.338L254.53 287.597V310.125H243.074V265.325H251.97L267.778 287.853V265.325ZM286.261 265.325H297.717V310.125H286.261V265.325ZM332.281 276.397H316.217V283.693H331.961V294.765H316.217V310.125H304.761V265.325H332.281V276.397ZM337.886 265.325H349.342V310.125H337.886V265.325ZM367.842 299.373H385.186V310.125H356.386V265.325H384.866V276.013H367.842V282.221H383.266V292.781H367.842V299.373ZM404.076 299.053H420.396V310.125H389.228V301.293L405.036 276.397H389.548V265.325H419.884V274.157L404.076 299.053Z" fill="white"/>
<g clip-path="url(#clip1_230_73)">
<path d="M336 36.875H152C148.134 36.875 145 40.009 145 43.875V227.875C145 231.741 148.134 234.875 152 234.875H336C339.866 234.875 343 231.741 343 227.875V43.875C343 40.009 339.866 36.875 336 36.875Z" stroke="white"/>
<path d="M287.973 86.5081V91.3523V93.3535C287.973 98.1539 284.068 102.06 279.266 102.06H277.73C272.929 102.06 269.023 98.1551 269.023 93.3535V91.3523V86.5081H218.343V91.3523V93.3535C218.343 98.1539 214.438 102.06 209.637 102.06H208.1C203.3 102.06 199.393 98.1551 199.393 93.3535V91.3523V86.5081H196.454C189.587 86.5081 184 92.0955 184 98.9623V183.494C184 190.361 189.587 195.948 196.454 195.948H278.14H279.294V195.792C280.156 195.581 280.974 195.148 281.635 194.462L301.301 174.027C302.095 173.201 303.039 172.167 303.137 171.109V98.9623C303.137 92.0955 297.551 86.5081 290.683 86.5081H287.973ZM193.696 183.493V112.021H293.439V166.164H282.574C278.39 166.164 274.968 169.586 274.968 173.77V186.251H196.454C194.96 186.249 193.696 184.987 193.696 183.493Z" fill="white"/>
<path d="M208.1 98.3192H209.637C212.376 98.3192 214.604 96.0912 214.604 93.3522V80.842C214.604 78.103 212.376 75.875 209.637 75.875H208.1C205.361 75.875 203.133 78.103 203.133 80.842V93.3522C203.133 96.0912 205.361 98.3192 208.1 98.3192Z" fill="white"/>
<path d="M277.731 98.3192H279.268C282.007 98.3192 284.235 96.0912 284.235 93.3522V80.842C284.233 78.103 282.005 75.875 279.268 75.875H277.731C274.992 75.875 272.764 78.103 272.764 80.842V93.3522C272.764 96.0912 274.992 98.3192 277.731 98.3192Z" fill="white"/>
<path d="M274.631 134.261L268.494 128.124C267.634 127.263 266.241 127.251 265.366 128.096L238.547 153.991C237.692 154.817 236.338 154.828 235.469 154.014L222.25 141.621C221.307 140.738 219.814 140.837 218.997 141.836L212.585 149.671C211.824 150.601 211.935 151.967 212.838 152.761L235.468 172.676C236.343 173.446 237.664 173.414 238.5 172.6L274.611 137.439C275.502 136.57 275.512 135.141 274.631 134.261Z" fill="white"/>
</g>
<g clip-path="url(#clip2_230_73)">
<path fill-rule="evenodd" clip-rule="evenodd" d="M509.021 136.592C511.81 133.803 516.333 133.803 519.122 136.592L561.979 179.449C564.769 182.239 564.769 186.761 561.979 189.551L519.122 232.408C516.333 235.197 511.81 235.197 509.021 232.408C506.231 229.619 506.231 225.096 509.021 222.306L546.827 184.5L509.021 146.694C506.231 143.904 506.231 139.382 509.021 136.592Z" fill="white"/>
</g>
<path d="M650.415 313.625V305.305L665.263 289.625C666.757 288.004 667.845 286.702 668.527 285.721C669.21 284.697 669.551 283.694 669.551 282.713C669.551 281.604 669.189 280.708 668.463 280.025C667.781 279.342 666.821 279.001 665.583 279.001C662.938 279.001 660.933 280.558 659.567 283.673L649.711 278.169C651.162 274.798 653.295 272.238 656.111 270.489C658.927 268.74 662.042 267.865 665.455 267.865C669.722 267.865 673.37 269.145 676.399 271.705C679.471 274.222 681.007 277.678 681.007 282.073C681.007 284.676 680.389 287.086 679.151 289.305C677.957 291.481 676.186 293.785 673.839 296.217L667.759 302.553H681.775V313.625H650.415ZM692.851 314.521C690.974 314.521 689.374 313.881 688.051 312.601C686.771 311.278 686.131 309.7 686.131 307.865C686.131 306.03 686.793 304.473 688.115 303.193C689.438 301.87 691.017 301.209 692.851 301.209C694.686 301.209 696.243 301.87 697.523 303.193C698.846 304.473 699.507 306.03 699.507 307.865C699.507 309.7 698.846 311.278 697.523 312.601C696.243 313.881 694.686 314.521 692.851 314.521ZM731.035 313.625L716.571 268.825H729.115L737.819 299.673L746.587 268.825H759.131L744.667 313.625H731.035ZM788.126 256.025L780.702 265.305H770.59L775.71 256.025H788.126ZM774.11 302.873H791.454V313.625H762.654V268.825H791.134V279.513H774.11V285.721H789.534V296.281H774.11V302.873ZM820.264 313.625L812.456 299.161H808.36V313.625H796.904V268.825H814.824C819.389 268.825 823.208 270.297 826.28 273.241C829.394 276.142 830.952 279.833 830.952 284.313C830.952 287.001 830.269 289.476 828.904 291.737C827.538 293.956 825.682 295.726 823.336 297.049L832.552 313.625H820.264ZM808.36 279.385V289.433H814.696C816.104 289.476 817.256 289.028 818.152 288.089C819.048 287.15 819.496 285.934 819.496 284.441C819.496 282.948 819.048 281.732 818.152 280.793C817.256 279.854 816.104 279.385 814.696 279.385H808.36ZM836.591 268.825H848.047V313.625H836.591V268.825ZM882.611 279.897H866.547V287.193H882.291V298.265H866.547V313.625H855.091V268.825H882.611V279.897ZM888.216 268.825H899.672V313.625H888.216V268.825ZM918.172 302.873H935.516V313.625H906.716V268.825H935.196V279.513H918.172V285.721H933.596V296.281H918.172V302.873ZM954.406 302.553H970.726V313.625H939.558V304.793L955.366 279.897H939.878V268.825H970.214V277.657L954.406 302.553Z" fill="white"/>
<g clip-path="url(#clip3_230_73)">
<path d="M903 33.375H719C715.134 33.375 712 36.509 712 40.375V224.375C712 228.241 715.134 231.375 719 231.375H903C906.866 231.375 910 228.241 910 224.375V40.375C910 36.509 906.866 33.375 903 33.375Z" stroke="white"/>
<path d="M895 95.9004V170.85C895 176.103 890.744 180.375 885.512 180.375H734.488C729.256 180.375 725 176.103 725 170.85V95.9004C725 90.6474 729.256 86.375 734.488 86.375H885.512C890.744 86.375 895 90.6474 895 95.9004ZM890.943 95.9004C890.943 92.8946 888.506 90.4484 885.512 90.4484H734.488C731.494 90.4484 729.057 92.8946 729.057 95.9004V170.85C729.057 173.855 731.494 176.302 734.488 176.302H885.512C888.506 176.302 890.943 173.855 890.943 170.85V95.9004ZM780.11 101.083V165.667C780.11 168.551 777.711 170.897 774.763 170.897H737.351C734.403 170.897 732.004 168.551 732.004 165.667V101.083C732.004 98.1988 734.403 95.853 737.351 95.853H774.761C777.711 95.853 780.11 98.1988 780.11 101.083ZM776.053 101.083C776.053 100.455 775.462 99.9244 774.761 99.9244H737.351C736.651 99.9244 736.059 100.455 736.059 101.083V165.667C736.059 166.295 736.651 166.826 737.351 166.826H774.761C775.462 166.826 776.053 166.295 776.053 165.667V101.083ZM834.053 101.083V165.667C834.053 168.551 831.654 170.897 828.706 170.897H791.294C788.346 170.897 785.947 168.551 785.947 165.667V101.083C785.947 98.1988 788.346 95.853 791.294 95.853H828.704C831.654 95.853 834.053 98.1988 834.053 101.083ZM829.998 101.083C829.998 100.455 829.406 99.9244 828.706 99.9244H791.294C790.594 99.9244 790.002 100.455 790.002 101.083V165.667C790.002 166.295 790.594 166.826 791.294 166.826H828.704C829.405 166.826 829.996 166.295 829.996 165.667L829.998 101.083ZM887.998 101.083V165.667C887.998 168.551 885.599 170.897 882.65 170.897H845.239C842.291 170.897 839.892 168.551 839.892 165.667V101.083C839.892 98.1988 842.291 95.853 845.239 95.853H882.649C885.597 95.853 887.998 98.1988 887.998 101.083ZM883.941 101.083C883.941 100.455 883.349 99.9244 882.649 99.9244H845.239C844.538 99.9244 843.947 100.455 843.947 101.083V165.667C843.947 166.295 844.538 166.826 845.239 166.826H882.649C883.349 166.826 883.941 166.295 883.941 165.667V101.083ZM878.355 116.038C878.355 119.017 875.941 121.44 872.974 121.44H854.914C851.947 121.44 849.533 119.017 849.533 116.038C849.533 113.597 851.208 111.467 853.49 110.828C854.372 109.463 855.853 108.593 857.502 108.505C858.684 106.541 860.834 105.287 863.176 105.287C865.106 105.287 866.908 106.125 868.149 107.544C868.658 107.404 869.186 107.332 869.719 107.332C872.18 107.332 874.36 108.881 875.221 111.128C877.105 111.997 878.355 113.897 878.355 116.038ZM874.3 116.038C874.3 115.437 873.877 114.894 873.293 114.746C872.384 114.517 871.704 113.8 871.517 112.878C871.345 112.023 870.588 111.403 869.719 111.403C869.385 111.403 869.073 111.488 868.79 111.655C868.216 111.993 867.551 112.08 866.916 111.904C866.276 111.723 865.752 111.302 865.437 110.717C864.987 109.88 864.122 109.359 863.176 109.359C862.101 109.359 861.13 110.04 860.764 111.052C860.354 112.179 859.166 112.84 857.997 112.592C857.925 112.577 857.851 112.569 857.776 112.569C857.347 112.569 856.963 112.827 856.799 113.225C856.455 114.058 855.687 114.629 854.791 114.71C854.119 114.773 853.59 115.355 853.59 116.036C853.59 116.756 854.196 117.367 854.916 117.367H872.976C873.691 117.369 874.3 116.76 874.3 116.038ZM861.478 128.582C862.071 128.582 862.66 128.322 863.061 127.82L864.173 126.43C864.874 125.552 864.734 124.272 863.862 123.568C862.987 122.864 861.712 123.005 861.011 123.881L859.899 125.271C859.198 126.149 859.338 127.429 860.21 128.133C860.584 128.436 861.032 128.582 861.478 128.582ZM867.581 128.582C868.174 128.582 868.763 128.322 869.164 127.82L870.276 126.43C870.977 125.552 870.837 124.272 869.965 123.568C869.09 122.864 867.813 123.005 867.114 123.881L866.002 125.271C865.301 126.149 865.441 127.429 866.313 128.133C866.687 128.436 867.137 128.582 867.581 128.582ZM855.375 128.582C855.968 128.582 856.557 128.322 856.958 127.82L858.07 126.43C858.771 125.552 858.631 124.272 857.759 123.568C856.884 122.864 855.607 123.005 854.908 123.881L853.796 125.271C853.095 126.149 853.235 127.429 854.107 128.133C854.481 128.436 854.929 128.582 855.375 128.582ZM749.786 118.588C749.786 115.118 752.599 112.294 756.055 112.294C759.512 112.294 762.324 115.118 762.324 118.588C762.324 122.059 759.512 124.882 756.055 124.882C752.599 124.882 749.786 122.06 749.786 118.588ZM753.843 118.588C753.843 119.813 754.837 120.811 756.057 120.811C757.277 120.811 758.271 119.813 758.271 118.588C758.271 117.363 757.277 116.366 756.057 116.366C754.837 116.368 753.843 117.363 753.843 118.588ZM756.057 111.45C757.177 111.45 758.086 110.538 758.086 109.414V107.322C758.086 106.198 757.177 105.285 756.057 105.285C754.937 105.285 754.028 106.198 754.028 107.322V109.414C754.028 110.54 754.937 111.45 756.057 111.45ZM748.162 113.542C748.558 113.94 749.076 114.138 749.595 114.138C750.115 114.138 750.634 113.938 751.029 113.54C751.82 112.746 751.82 111.456 751.029 110.662L749.556 109.184C748.764 108.39 747.48 108.39 746.686 109.184C745.895 109.979 745.895 111.268 746.686 112.063L748.162 113.542ZM748.947 118.59C748.947 117.466 748.039 116.553 746.919 116.553H744.835C743.715 116.553 742.807 117.466 742.807 118.59C742.807 119.715 743.715 120.627 744.835 120.627H746.919C748.039 120.625 748.947 119.715 748.947 118.59ZM748.162 123.636L746.688 125.115C745.897 125.91 745.897 127.2 746.688 127.996C747.085 128.394 747.602 128.591 748.122 128.591C748.641 128.591 749.161 128.392 749.556 127.996L751.029 126.517C751.82 125.722 751.82 124.433 751.029 123.636C750.237 122.842 748.953 122.842 748.162 123.636ZM754.028 127.763V129.854C754.028 130.979 754.937 131.891 756.057 131.891C757.177 131.891 758.086 130.979 758.086 129.854V127.763C758.086 126.638 757.177 125.726 756.057 125.726C754.937 125.728 754.028 126.638 754.028 127.763ZM761.083 126.515L762.557 127.994C762.953 128.392 763.471 128.591 763.99 128.591C764.51 128.591 765.029 128.392 765.424 127.996C766.216 127.201 766.216 125.912 765.424 125.117L763.951 123.638C763.159 122.844 761.875 122.844 761.082 123.638C760.292 124.431 760.292 125.72 761.083 126.515ZM767.277 116.553H765.194C764.074 116.553 763.165 117.466 763.165 118.59C763.165 119.715 764.074 120.627 765.194 120.627H767.277C768.397 120.627 769.306 119.715 769.306 118.59C769.306 117.466 768.397 116.553 767.277 116.553ZM762.519 114.138C763.038 114.138 763.558 113.938 763.953 113.54L765.426 112.061C766.217 111.266 766.217 109.977 765.426 109.182C764.635 108.388 763.35 108.388 762.557 109.182L761.083 110.662C760.292 111.456 760.292 112.746 761.083 113.54C761.48 113.94 762 114.138 762.519 114.138ZM766.359 147.1H747.349C746.229 147.1 745.321 148.012 745.321 149.136C745.321 150.261 746.229 151.173 747.349 151.173H766.361C767.481 151.173 768.39 150.261 768.39 149.136C768.388 148.01 767.479 147.1 766.359 147.1ZM766.359 157.389H747.349C746.229 157.389 745.321 158.302 745.321 159.426C745.321 160.551 746.229 161.463 747.349 161.463H766.361C767.481 161.463 768.39 160.551 768.39 159.426C768.388 158.302 767.479 157.389 766.359 157.389ZM824.412 116.038C824.412 119.017 821.998 121.44 819.031 121.44H800.971C798.004 121.44 795.59 119.017 795.59 116.038C795.59 113.597 797.267 111.466 799.547 110.828C800.431 109.463 801.912 108.593 803.557 108.505C804.739 106.541 806.889 105.287 809.231 105.287C811.162 105.287 812.964 106.125 814.205 107.544C814.713 107.404 815.242 107.332 815.774 107.332C818.236 107.332 820.415 108.881 821.275 111.128C823.162 111.997 824.412 113.897 824.412 116.038ZM820.355 116.038C820.355 115.437 819.932 114.894 819.348 114.746C818.44 114.517 817.76 113.8 817.573 112.878C817.401 112.023 816.643 111.403 815.774 111.403C815.44 111.403 815.128 111.488 814.845 111.655C814.275 111.993 813.61 112.08 812.971 111.902C812.333 111.723 811.808 111.302 811.492 110.715C811.043 109.878 810.178 109.357 809.231 109.357C808.156 109.357 807.187 110.038 806.819 111.05C806.409 112.177 805.219 112.839 804.052 112.59C803.98 112.575 803.906 112.567 803.831 112.567C803.402 112.567 803.019 112.825 802.854 113.223C802.512 114.054 801.744 114.625 800.846 114.708C800.174 114.771 799.645 115.353 799.645 116.034C799.645 116.754 800.251 117.365 800.971 117.365H819.031C819.749 117.369 820.355 116.76 820.355 116.038ZM819.505 147.1H800.495C799.375 147.1 798.466 148.012 798.466 149.136C798.466 150.261 799.375 151.173 800.495 151.173H819.507C820.627 151.173 821.535 150.261 821.535 149.136C821.534 148.01 820.625 147.1 819.505 147.1ZM819.505 157.389H800.495C799.375 157.389 798.466 158.302 798.466 159.426C798.466 160.551 799.375 161.463 800.495 161.463H819.507C820.627 161.463 821.535 160.551 821.535 159.426C821.534 158.302 820.625 157.389 819.505 157.389ZM873.45 147.1H854.438C853.318 147.1 852.409 148.012 852.409 149.136C852.409 150.261 853.318 151.173 854.438 151.173H873.45C874.57 151.173 875.478 150.261 875.478 149.136C875.478 148.01 874.57 147.1 873.45 147.1ZM873.45 157.389H854.438C853.318 157.389 852.409 158.302 852.409 159.426C852.409 160.551 853.318 161.463 854.438 161.463H873.45C874.57 161.463 875.478 160.551 875.478 159.426C875.478 158.302 874.57 157.389 873.45 157.389Z" fill="white"/>
</g>
<path d="M33.8007 780.19C36.6594 781.086 38.9634 782.622 40.7127 784.798C42.462 786.974 43.3367 789.598 43.3367 792.67C43.3367 797.491 41.758 801.203 38.6007 803.806C35.4434 806.409 31.5394 807.71 26.8887 807.71C23.1767 807.71 19.87 806.857 16.9687 805.15C14.11 803.443 12.0407 800.926 10.7607 797.598L20.7447 791.902C21.6834 795.017 23.7314 796.574 26.8887 796.574C28.51 796.574 29.7474 796.19 30.6007 795.422C31.4967 794.654 31.9447 793.63 31.9447 792.35C31.9447 791.07 31.4967 790.067 30.6007 789.342C29.7474 788.574 28.51 788.19 26.8887 788.19H24.4567L20.0407 781.662L27.2087 772.894H12.1687V761.95H41.2887V770.974L33.8007 780.19ZM53.0212 807.646C51.1439 807.646 49.5439 807.006 48.2212 805.726C46.9412 804.403 46.3012 802.825 46.3012 800.99C46.3012 799.155 46.9625 797.598 48.2852 796.318C49.6079 794.995 51.1865 794.334 53.0212 794.334C54.8559 794.334 56.4132 794.995 57.6932 796.318C59.0159 797.598 59.6772 799.155 59.6772 800.99C59.6772 802.825 59.0159 804.403 57.6932 805.726C56.4132 807.006 54.8559 807.646 53.0212 807.646ZM118.661 800.99C114.139 805.47 108.592 807.71 102.021 807.71C95.4505 807.71 89.8825 805.47 85.3172 800.99C80.7945 796.467 78.5332 790.921 78.5332 784.35C78.5332 777.779 80.7945 772.254 85.3172 767.774C89.8825 763.251 95.4505 760.99 102.021 760.99C108.592 760.99 114.139 763.251 118.661 767.774C123.227 772.254 125.509 777.779 125.509 784.35C125.509 790.921 123.227 796.467 118.661 800.99ZM93.3812 793.118C95.6852 795.379 98.5652 796.51 102.021 796.51C105.477 796.51 108.357 795.379 110.661 793.118C112.965 790.814 114.117 787.891 114.117 784.35C114.117 780.809 112.965 777.907 110.661 775.646C108.357 773.342 105.477 772.19 102.021 772.19C98.5652 772.19 95.6852 773.342 93.3812 775.646C91.0772 777.907 89.9252 780.809 89.9252 784.35C89.9252 787.891 91.0772 790.814 93.3812 793.118ZM154.184 806.75L146.376 792.286H142.28V806.75H130.824V761.95H148.744C153.309 761.95 157.128 763.422 160.2 766.366C163.314 769.267 164.872 772.958 164.872 777.438C164.872 780.126 164.189 782.601 162.824 784.862C161.458 787.081 159.602 788.851 157.256 790.174L166.472 806.75H154.184ZM142.28 772.51V782.558H148.616C150.024 782.601 151.176 782.153 152.072 781.214C152.968 780.275 153.416 779.059 153.416 777.566C153.416 776.073 152.968 774.857 152.072 773.918C151.176 772.979 150.024 772.51 148.616 772.51H142.28ZM214.366 781.086V785.63C214.366 792.201 212.297 797.534 208.158 801.63C204.062 805.683 198.729 807.71 192.158 807.71C185.161 807.71 179.401 805.47 174.878 800.99C170.398 796.51 168.158 790.985 168.158 784.414C168.158 777.843 170.398 772.297 174.878 767.774C179.358 763.251 184.905 760.99 191.518 760.99C195.7 760.99 199.518 761.929 202.974 763.806C206.473 765.683 209.204 768.179 211.166 771.294L201.438 776.862C200.542 775.454 199.22 774.323 197.47 773.47C195.764 772.617 193.822 772.19 191.646 772.19C188.105 772.19 185.204 773.342 182.942 775.646C180.681 777.95 179.55 780.894 179.55 784.478C179.55 787.934 180.66 790.857 182.878 793.246C185.14 795.635 188.297 796.83 192.35 796.83C197.556 796.83 200.99 794.867 202.654 790.942H191.774V781.086H214.366ZM245.402 806.75L243.482 800.286H228.57L226.65 806.75H214.234L229.018 761.95H242.97L257.754 806.75H245.402ZM231.514 790.43H240.538L235.994 775.198L231.514 790.43ZM285.715 761.95H297.107V806.75H288.275L272.467 784.222V806.75H261.011V761.95H269.907L285.715 784.478V761.95ZM304.199 761.95H315.655V806.75H304.199V761.95ZM338.01 807.71C333.274 807.71 329.348 806.707 326.234 804.702C323.119 802.697 320.943 799.987 319.706 796.574L329.498 790.878C331.162 794.846 334.106 796.83 338.33 796.83C341.828 796.83 343.578 795.827 343.578 793.822C343.578 792.499 342.575 791.433 340.57 790.622C339.716 790.281 337.839 789.705 334.938 788.894C330.842 787.699 327.599 786.035 325.21 783.902C322.82 781.726 321.626 778.718 321.626 774.878C321.626 770.739 323.098 767.39 326.042 764.83C329.028 762.27 332.74 760.99 337.178 760.99C340.932 760.99 344.26 761.865 347.162 763.614C350.063 765.363 352.282 767.902 353.818 771.23L344.218 776.862C342.81 773.534 340.484 771.87 337.242 771.87C335.876 771.87 334.831 772.147 334.106 772.702C333.423 773.257 333.082 773.961 333.082 774.814C333.082 775.795 333.594 776.627 334.618 777.31C335.684 777.993 337.732 778.782 340.762 779.678C342.938 780.318 344.687 780.915 346.01 781.47C347.332 782.025 348.783 782.835 350.362 783.902C351.94 784.926 353.114 786.27 353.882 787.934C354.65 789.555 355.034 791.475 355.034 793.694C355.034 798.089 353.476 801.523 350.362 803.998C347.247 806.473 343.13 807.71 338.01 807.71ZM370.655 795.998H387.999V806.75H359.199V761.95H387.679V772.638H370.655V778.846H386.079V789.406H370.655V795.998ZM406.889 795.678H423.209V806.75H392.041V797.918L407.849 773.022H392.361V761.95H422.697V770.782L406.889 795.678Z" fill="white"/>
<g clip-path="url(#clip4_230_73)">
<path d="M309.786 530.25H125.786C121.92 530.25 118.786 533.384 118.786 537.25V721.25C118.786 725.116 121.92 728.25 125.786 728.25H309.786C313.652 728.25 316.786 725.116 316.786 721.25V537.25C316.786 533.384 313.652 530.25 309.786 530.25Z" stroke="white"/>
<path d="M184.667 728.098C168.767 700.624 145.857 677.726 118.387 661.824V723.098C118.387 725.859 120.625 728.098 123.387 728.098H184.667Z" fill="white"/>
<path d="M273.98 559.775C270.57 563.153 270.605 568.719 274.059 572.207C277.514 575.694 283.079 575.783 286.489 572.405C289.9 569.027 289.865 563.461 286.411 559.973C282.956 556.486 277.391 556.397 273.98 559.775Z" fill="white"/>
<path d="M292.211 542.828C289.101 545.908 289.132 550.982 292.281 554.162C295.43 557.341 300.503 557.421 303.614 554.34C306.724 551.26 306.692 546.186 303.544 543.006C300.395 539.827 295.321 539.747 292.211 542.828Z" fill="white"/>
<path d="M170.166 671.677C169.238 672.596 169.248 674.11 170.188 675.058C171.128 676.007 172.642 676.031 173.569 675.112C174.497 674.193 174.487 672.679 173.547 671.731C172.607 670.782 171.093 670.758 170.166 671.677Z" fill="white"/>
<path d="M164.664 677.493C163.84 678.312 163.85 679.66 164.688 680.504C165.526 681.348 166.874 681.369 167.699 680.551C168.524 679.732 168.513 678.384 167.675 677.54C166.837 676.696 165.489 676.675 164.664 677.493Z" fill="white"/>
<path d="M161.681 683.484C161.165 682.96 161.159 682.124 161.669 681.618C162.183 681.112 163.019 681.122 163.535 681.644C164.053 682.17 164.059 683.004 163.547 683.514C163.035 684.016 162.201 684.006 161.681 683.484Z" fill="white"/>
<path d="M159.156 684.886C158.857 685.181 158.86 685.668 159.162 685.974C159.463 686.28 159.95 686.289 160.249 685.994C160.548 685.699 160.545 685.212 160.244 684.907C159.942 684.601 159.455 684.592 159.156 684.886Z" fill="white"/>
<path d="M231.493 605.344C234.773 612.792 242.517 617.542 250.841 616.504C259.169 615.462 265.505 608.956 266.851 600.922C278.687 598.378 286.581 595.278 286.285 592.882C285.985 590.482 277.571 589.42 265.473 589.868C262.193 582.414 254.447 577.664 246.121 578.704C237.795 579.746 231.459 586.254 230.113 594.284C218.273 596.83 210.385 599.928 210.685 602.326C210.981 604.726 219.391 605.79 231.493 605.344ZM266.313 592.184C273.699 591.988 278.557 592.54 278.717 593.826C278.879 595.112 274.307 596.84 267.103 598.472C267.141 597.428 267.097 596.362 266.961 595.294C266.831 594.224 266.611 593.184 266.313 592.184ZM264.509 589.99L246.715 591.28C260.161 588.188 264.509 589.99 264.509 589.99ZM229.859 596.738C229.819 597.78 229.861 598.844 229.997 599.912C230.131 600.984 230.349 602.026 230.643 603.026C223.259 603.216 218.403 602.668 218.245 601.382C218.085 600.098 222.655 598.37 229.859 596.738Z" fill="white"/>
<path d="M186.537 621.828C176.427 631.838 176.53 648.334 186.767 658.673C197.004 669.012 213.498 669.278 223.608 659.268C233.717 649.258 233.614 632.762 223.377 622.424C213.14 612.085 196.646 611.818 186.537 621.828Z" fill="white"/>
</g>
<g clip-path="url(#clip5_230_73)">
<path fill-rule="evenodd" clip-rule="evenodd" d="M512.021 631.592C514.81 628.803 519.333 628.803 522.122 631.592L564.979 674.449C567.769 677.239 567.769 681.761 564.979 684.551L522.122 727.408C519.333 730.197 514.81 730.197 512.021 727.408C509.231 724.619 509.231 720.096 512.021 717.306L549.827 679.5L512.021 641.694C509.231 638.904 509.231 634.382 512.021 631.592Z" fill="white"/>
</g>
<path d="M688.551 787.72V798.152H684.071V805H672.679V798.152H653.031V787.72L666.407 760.2H679.079L665.575 787.72H672.679V779.656H684.071V787.72H688.551ZM698.351 805.896C696.474 805.896 694.874 805.256 693.551 803.976C692.271 802.653 691.631 801.075 691.631 799.24C691.631 797.405 692.293 795.848 693.615 794.568C694.938 793.245 696.517 792.584 698.351 792.584C700.186 792.584 701.743 793.245 703.023 794.568C704.346 795.848 705.007 797.405 705.007 799.24C705.007 801.075 704.346 802.653 703.023 803.976C701.743 805.256 700.186 805.896 698.351 805.896ZM742.999 760.2C747.522 760.2 751.319 761.672 754.391 764.616C757.463 767.56 758.999 771.315 758.999 775.88C758.999 780.445 757.463 784.2 754.391 787.144C751.319 790.088 747.522 791.56 742.999 791.56H737.047V805H725.591V760.2H742.999ZM742.999 780.68C744.279 780.68 745.346 780.232 746.199 779.336C747.095 778.44 747.543 777.288 747.543 775.88C747.543 774.472 747.095 773.341 746.199 772.488C745.346 771.592 744.279 771.144 742.999 771.144H737.047V780.68H742.999ZM786.607 805L784.687 798.536H769.775L767.855 805H755.439L770.223 760.2H784.175L798.959 805H786.607ZM772.719 788.68H781.743L777.199 773.448L772.719 788.68ZM825.576 805L817.768 790.536H813.672V805H802.216V760.2H820.136C824.702 760.2 828.52 761.672 831.592 764.616C834.707 767.517 836.264 771.208 836.264 775.688C836.264 778.376 835.582 780.851 834.216 783.112C832.851 785.331 830.995 787.101 828.648 788.424L837.864 805H825.576ZM813.672 770.76V780.808H820.008C821.416 780.851 822.568 780.403 823.464 779.464C824.36 778.525 824.808 777.309 824.808 775.816C824.808 774.323 824.36 773.107 823.464 772.168C822.568 771.229 821.416 770.76 820.008 770.76H813.672ZM871.686 760.2V771.272H860.614V805H849.158V771.272H838.086V760.2H871.686ZM899.982 805L898.062 798.536H883.15L881.23 805H868.814L883.598 760.2H897.55L912.334 805H899.982ZM886.094 788.68H895.118L890.574 773.448L886.094 788.68ZM958.446 779.336V783.88C958.446 790.451 956.377 795.784 952.238 799.88C948.142 803.933 942.809 805.96 936.238 805.96C929.241 805.96 923.481 803.72 918.958 799.24C914.478 794.76 912.238 789.235 912.238 782.664C912.238 776.093 914.478 770.547 918.958 766.024C923.438 761.501 928.985 759.24 935.598 759.24C939.78 759.24 943.598 760.179 947.054 762.056C950.553 763.933 953.284 766.429 955.246 769.544L945.518 775.112C944.622 773.704 943.3 772.573 941.55 771.72C939.844 770.867 937.902 770.44 935.726 770.44C932.185 770.44 929.284 771.592 927.022 773.896C924.761 776.2 923.63 779.144 923.63 782.728C923.63 786.184 924.74 789.107 926.958 791.496C929.22 793.885 932.377 795.08 936.43 795.08C941.636 795.08 945.07 793.117 946.734 789.192H935.854V779.336H958.446ZM975.235 794.248H992.579V805H963.779V760.2H992.259V770.888H975.235V777.096H990.659V787.656H975.235V794.248ZM1011.47 793.928H1027.79V805H996.621V796.168L1012.43 771.272H996.941V760.2H1027.28V769.032L1011.47 793.928Z" fill="white"/>
<g clip-path="url(#clip6_230_73)">
<path d="M933.071 532H749.071C745.205 532 742.071 535.134 742.071 539V723C742.071 726.866 745.205 730 749.071 730H933.071C936.937 730 940.071 726.866 940.071 723V539C940.071 535.134 936.937 532 933.071 532Z" stroke="white"/>
<path d="M838 682.6C838 681.872 837.41 681.283 836.683 681.283H760.389C759.662 681.283 759.071 681.872 759.071 682.6C759.071 683.329 759.662 683.918 760.389 683.918H836.683C837.41 683.918 838 683.329 838 682.6Z" fill="white"/>
<path d="M923.755 680.637H892.096C891.369 680.637 890.778 681.226 890.778 681.955C890.778 682.683 891.369 683.272 892.096 683.272H923.755C924.482 683.272 925.072 682.683 925.072 681.955C925.072 681.226 924.482 680.637 923.755 680.637Z" fill="white"/>
<path d="M882.299 577.061C882.164 576.907 882.106 576.85 882.106 576.85C881.591 576.351 880.768 576.353 880.258 576.859C879.749 577.365 879.736 578.182 880.232 578.701L880.349 578.826L880.355 578.837C881.284 579.805 889.252 588.475 883.179 594.584C882.923 594.841 882.795 595.177 882.795 595.513C882.795 595.852 882.924 596.19 883.184 596.447C883.702 596.962 884.534 596.96 885.047 596.442C890.883 590.569 899.1 597.783 900.743 599.343L900.809 599.409C901.058 599.658 901.374 599.779 901.693 599.779C902.032 599.779 902.374 599.642 902.639 599.376C903.154 598.861 903.121 597.995 902.606 597.48C902.601 597.475 902.573 597.449 902.547 597.421C901.029 595.786 893.928 587.512 899.738 581.659C900.25 581.142 900.246 580.308 899.731 579.796C899.216 579.283 898.382 579.287 897.868 579.801L897.866 579.804C892.025 585.67 883.799 578.472 882.299 577.061Z" fill="white"/>
<path d="M816.448 620.778C816.455 620.785 816.464 620.786 816.471 620.793C816.475 620.798 816.476 620.804 816.481 620.81C817.312 621.686 824.457 629.521 819.096 634.915C818.841 635.171 818.713 635.507 818.713 635.843C818.713 636.182 818.843 636.52 819.102 636.777C819.619 637.293 820.452 637.287 820.966 636.772C826.506 631.197 834.612 639.054 834.956 639.39C834.96 639.395 834.965 639.4 834.97 639.406C835.221 639.673 835.573 639.822 835.934 639.822C836.125 639.822 836.317 639.781 836.499 639.694C837.156 639.381 837.434 638.594 837.122 637.938C837.068 637.825 836.97 637.714 836.876 637.609C836.858 637.589 836.853 637.564 836.835 637.544C836.003 636.668 828.861 628.829 834.22 623.438C834.475 623.181 834.603 622.845 834.603 622.509C834.603 622.171 834.472 621.832 834.214 621.575C833.698 621.063 832.865 621.065 832.35 621.58C826.813 627.155 818.702 619.299 818.359 618.961C818.352 618.955 818.345 618.948 818.339 618.942C818.334 618.936 818.328 618.935 818.323 618.93L818.316 618.921L776.368 576.696C775.855 576.178 775.021 576.175 774.505 576.689C773.989 577.202 773.986 578.036 774.499 578.552L816.448 620.778Z" fill="white"/>
<path d="M793.275 634.875C793.532 635.133 793.871 635.264 794.209 635.264C794.545 635.264 794.881 635.136 795.138 634.88C795.655 634.366 795.657 633.534 795.144 633.017L767.306 605.021C766.792 604.504 765.958 604.502 765.443 605.016C764.926 605.529 764.924 606.362 765.437 606.879L793.275 634.875Z" fill="white"/>
<path d="M856.501 627.247C856.757 627.507 857.096 627.636 857.435 627.636C857.771 627.636 858.107 627.508 858.363 627.252C858.88 626.74 858.883 625.906 858.369 625.389L816.776 583.547C816.263 583.029 815.43 583.026 814.914 583.541C814.397 584.054 814.394 584.888 814.908 585.404L856.501 627.247Z" fill="white"/>
<path d="M891.979 571.782C892.236 572.041 892.574 572.17 892.913 572.17C893.249 572.17 893.585 572.043 893.842 571.787C894.358 571.275 894.361 570.441 893.847 569.924L877.405 553.39C876.891 552.872 876.057 552.87 875.542 553.385C875.026 553.897 875.023 554.731 875.537 555.248L891.979 571.782Z" fill="white"/>
<path d="M878.032 607.73C877.516 608.243 877.513 609.076 878.027 609.593L889.265 620.897C889.522 621.156 889.861 621.285 890.199 621.285C890.535 621.285 890.871 621.158 891.128 620.902C891.644 620.39 891.647 619.556 891.133 619.039L879.895 607.735C879.382 607.218 878.549 607.215 878.032 607.73Z" fill="white"/>
<path d="M867.999 585.075C868.257 585.333 868.596 585.464 868.933 585.464C869.269 585.464 869.605 585.336 869.862 585.08C870.378 584.566 870.381 583.734 869.867 583.216L863.385 576.695C862.87 576.178 862.037 576.176 861.521 576.689C861.004 577.203 861.002 578.036 861.516 578.554L867.999 585.075Z" fill="white"/>
<path d="M822.746 565.694C823.002 565.953 823.342 566.084 823.681 566.084C824.016 566.084 824.352 565.956 824.608 565.702C825.125 565.189 825.129 564.355 824.616 563.839L818.134 557.304C817.623 556.788 816.788 556.784 816.272 557.296C815.755 557.809 815.751 558.643 816.264 559.159L822.746 565.694Z" fill="white"/>
<path d="M835.064 579.726C835.071 579.733 835.078 579.734 835.085 579.74C835.097 579.754 835.102 579.772 835.114 579.785C835.134 579.809 835.156 579.829 835.177 579.85C835.18 579.854 835.181 579.858 835.185 579.86C835.193 579.868 835.209 579.883 835.223 579.897C835.226 579.9 835.229 579.903 835.231 579.906C835.234 579.909 835.237 579.912 835.239 579.914C836.551 581.342 842.836 588.718 837.712 593.862C837.199 594.379 837.201 595.213 837.716 595.727C838.232 596.24 839.066 596.238 839.579 595.723C839.582 595.72 839.586 595.716 839.589 595.712C844.792 590.498 852.095 596.944 853.507 598.289C853.532 598.315 853.559 598.34 853.564 598.346C853.57 598.354 853.578 598.36 853.586 598.368C853.838 598.637 854.19 598.784 854.549 598.784C854.751 598.784 854.956 598.738 855.149 598.639C855.796 598.307 856.052 597.514 855.72 596.866C855.659 596.748 855.553 596.587 855.379 596.437C854.043 595.008 847.64 587.619 852.825 582.411C852.827 582.408 852.83 582.404 852.833 582.402C853.346 581.887 853.345 581.053 852.83 580.539C852.314 580.025 851.481 580.026 850.967 580.541C850.964 580.545 850.961 580.548 850.957 580.552C846.038 585.477 839.151 579.926 837.119 578.07C837.109 578.059 837.098 578.049 837.088 578.038C836.986 577.921 836.936 577.872 836.932 577.87L829.726 570.624C829.212 570.106 828.378 570.105 827.863 570.618C827.346 571.132 827.344 571.965 827.857 572.481L835.064 579.726Z" fill="white"/>
<path d="M886.978 690.135C887.037 689.821 887.089 689.505 887.102 689.16C887.18 687.206 886.613 685.438 885.471 684.044C886.38 682.961 887.583 680.986 887.35 677.915C887.058 674.052 884.698 671.461 882.322 670.125C883.003 668.8 883.658 666.901 883.572 664.584C883.47 661.651 882.237 659.488 881.393 658.34C880.027 652.76 875.099 648.886 869.304 648.886C867.889 648.886 866.519 649.131 865.207 649.595C866.036 649.084 866.598 648.474 866.694 648.362C866.958 648.055 867.066 647.644 866.987 647.247C866.908 646.851 866.652 646.512 866.293 646.33C864.832 645.586 863.648 644.793 862.778 643.976C861.083 642.378 859.141 641.472 857.002 641.277C854.724 640.535 852.11 640.534 849.793 641.291C846.81 641.159 842.735 639.646 842.693 639.63C842.294 639.482 841.847 639.534 841.494 639.771C841.141 640.008 840.925 640.403 840.914 640.83C840.866 642.753 841.642 644.141 842.458 645.06C840.829 646.193 838.743 648.479 838.235 652.894C838.044 654.5 837.456 655.891 836.485 657.031C836.135 657.442 836.071 658.024 836.323 658.5C836.575 658.977 837.095 659.252 837.629 659.194C837.903 659.165 839.632 658.953 841.199 658.206C842.153 662.064 844.573 665.202 847.736 666.937C842.614 669.137 839.016 674.229 839.016 680.148V690.256C835.609 691.262 833.075 693.581 832.717 696.166C832.493 697.859 833.169 699.75 834.573 701.352C836.542 703.598 839.557 704.909 842.889 705.004C844.166 705.797 845.626 706.234 847.158 706.234H859.634C859.887 706.234 860.137 706.217 860.385 706.193C861.904 708.436 864.409 709.783 867.116 709.783C867.368 709.783 867.621 709.772 867.875 709.748L880.293 708.563C882.713 708.341 884.891 707.019 886.247 705.012C888.13 704.573 894.239 702.877 896.166 698.983C897.041 697.215 896.972 695.291 895.963 693.266C894.189 689.689 889.542 689.779 886.978 690.135ZM878.886 659.194C878.928 659.386 879.013 659.567 879.134 659.721C879.772 660.538 880.853 662.269 880.938 664.679C881.031 667.182 879.989 669.051 879.361 669.942C879.123 670.279 879.056 670.706 879.18 671.099C879.304 671.491 879.604 671.804 879.992 671.943C880.724 672.205 884.392 673.738 884.723 678.114C884.937 680.943 883.512 682.339 882.903 682.935C882.806 683.028 882.727 683.109 882.669 683.172C882.425 683.437 882.325 683.811 882.349 684.171C882.372 684.53 882.567 684.885 882.843 685.117C884.269 686.307 884.516 687.916 884.47 689.057C884.45 689.548 884.36 689.963 884.18 690.353C883.636 691.614 882.295 692.323 881.053 692.85C880.7 693 880.43 693.298 880.313 693.663C880.196 694.028 880.245 694.426 880.446 694.754C881.281 696.111 881.147 697.823 880.138 698.732C879.177 699.591 877.781 699.337 877.347 699.236C876.96 699.146 876.55 699.236 876.236 699.483C875.465 700.089 874.203 700.814 872.57 700.823C870.041 700.823 868.357 699.083 867.748 698.335C867.751 698.258 867.762 698.184 867.762 698.108V680.151C867.762 675.774 865.809 671.71 862.414 668.974L862.397 668.958C861.373 667.989 860.568 666.679 860.068 665.167C859.683 664.004 859.489 662.742 859.489 661.417C859.489 657.687 861.533 654.313 864.824 652.613C866.224 651.889 867.731 651.523 869.304 651.523C873.95 651.521 877.89 654.678 878.886 659.194ZM843.449 655.769C843.396 655.229 843.018 654.774 842.495 654.628C841.974 654.48 841.412 654.666 841.086 655.101C840.901 655.344 840.602 655.558 840.246 655.742C840.541 654.945 840.743 654.097 840.85 653.2C841.481 647.711 845.035 646.629 845.172 646.589C845.702 646.449 846.091 645.996 846.147 645.45C846.204 644.905 845.917 644.382 845.427 644.137C845.415 644.13 844.63 643.727 844.078 642.854C845.743 643.341 848.025 643.892 849.963 643.93C850.115 643.933 850.278 643.906 850.428 643.855C852.304 643.194 854.468 643.191 856.309 643.821C856.416 643.856 856.528 643.88 856.64 643.888C858.226 644.004 859.683 644.678 860.973 645.893C861.613 646.494 862.376 647.073 863.252 647.629C863.139 647.662 863.025 647.683 862.917 647.685C862.45 647.694 862.021 647.95 861.792 648.358C861.563 648.766 861.568 649.264 861.804 649.669L862.064 650.109C862.247 650.417 862.398 650.677 862.534 650.924C859.011 653.219 856.854 657.12 856.854 661.413C856.854 662.623 856.991 663.796 857.26 664.913C856.077 665.484 854.812 665.775 853.416 665.775H853.392C848.274 665.764 843.998 661.461 843.449 655.769ZM836.555 699.615C835.664 698.599 835.207 697.44 835.328 696.522C835.517 695.165 837.012 693.813 839.016 693.036V698.105C839.016 699.416 839.337 700.686 839.924 701.822C838.59 701.353 837.426 700.609 836.555 699.615ZM847.158 703.599C846.021 703.599 844.938 703.262 844.025 702.623C842.539 701.59 841.652 699.901 841.652 698.105V680.148C841.652 673.676 846.918 668.41 853.391 668.41H853.417C856.076 668.41 858.575 669.281 860.653 670.927C860.689 670.962 860.729 670.997 860.737 671.005C860.746 671.014 860.758 671.017 860.767 671.025C863.538 673.262 865.129 676.577 865.129 680.147V698.104C865.129 698.273 865.12 698.441 865.096 698.64C864.874 701.031 863.143 702.972 860.768 703.473C860.402 703.556 860.021 703.598 859.635 703.598L847.158 703.599ZM880.048 705.939L867.63 707.123C865.92 707.295 864.276 706.637 863.127 705.419C864.901 704.581 866.308 703.157 867.08 701.385C868.315 702.412 870.162 703.454 872.578 703.454C874.635 703.442 876.259 702.677 877.371 701.914C878.437 702.063 880.353 702.071 881.898 700.692C883.503 699.248 884.015 696.852 883.308 694.696C883.696 694.489 884.078 694.243 884.451 693.974L885.015 699.893C885.127 701.039 884.881 702.174 884.3 703.183C883.408 704.745 881.82 705.776 880.048 705.939ZM893.807 697.812C892.826 699.794 889.853 701.162 887.525 701.921C887.664 701.175 887.713 700.411 887.637 699.643L886.986 692.804C888.837 692.509 892.51 692.236 893.604 694.439C894.236 695.705 894.302 696.808 893.807 697.812Z" fill="white"/>
</g>
</g>
<defs>
<clipPath id="clip0_230_73">
<rect width="1040" height="864" fill="white"/>
</clipPath>
<clipPath id="clip1_230_73">
<rect width="200" height="200" fill="white" transform="translate(144 35.875)"/>
</clipPath>
<clipPath id="clip2_230_73">
<rect width="57.1429" height="100" fill="white" transform="translate(506.929 134.5)"/>
</clipPath>
<clipPath id="clip3_230_73">
<rect width="200" height="200" fill="white" transform="translate(711 32.375)"/>
</clipPath>
<clipPath id="clip4_230_73">
<rect width="200" height="200" fill="white" transform="translate(117.786 529.25)"/>
</clipPath>
<clipPath id="clip5_230_73">
<rect width="57.1429" height="100" fill="white" transform="translate(509.929 629.5)"/>
</clipPath>
<clipPath id="clip6_230_73">
<rect width="200" height="200" fill="white" transform="translate(741.071 531)"/>
</clipPath>
</defs>
</svg>
